<svg width="338" height="338" viewBox="0 0 368 368" fill="none" xmlns="http://www.w3.org/2000/svg">
<path d="M37 206.137H166.613Z" fill="black"/>
<path d="M37 206.137H166.613" stroke="black" stroke-width="5.2884"/>
<path d="M50.2335 189.554C47.8599 189.554 45.5534 189.255 43.3184 188.675C41.0834 188.068 39.2685 187.288 37.8716 186.321L40.5961 180.174C41.8969 181.044 43.4078 181.746 45.1355 182.283C46.8008 182.788 48.5299 183.048 50.2693 183.057C53.4296 183.057 55.0187 182.265 55.0187 180.669C55.0187 179.826 54.565 179.212 53.6576 178.807C52.7502 178.387 51.2907 177.955 49.2926 177.507C47.1023 177.042 45.2584 176.541 43.7743 175.996C42.3082 175.434 41.032 174.555 39.9681 173.361C38.9199 172.149 38.3969 170.515 38.3969 168.478C38.3969 166.677 38.8685 165.06 39.8295 163.63C40.8085 162.18 42.2567 161.031 44.1945 160.188C46.1501 159.345 48.5327 158.924 51.3533 158.924C53.2821 158.924 55.1774 159.153 57.0459 159.592C58.9054 160.015 60.5459 160.646 61.9696 161.49L59.4195 167.673C56.6257 166.153 53.9191 165.388 51.3175 165.388C49.6591 165.388 48.4545 165.633 47.6856 166.126C46.9346 166.618 46.5681 167.268 46.5681 168.057C46.5681 168.831 47.0039 169.418 47.8957 169.813C48.8031 170.218 50.2447 170.62 52.2272 171.043C54.4622 171.518 56.3128 172.028 57.7789 172.59C59.2451 173.134 60.5124 173.995 61.5852 175.189C62.658 176.383 63.1922 178 63.1922 180.037C63.2051 181.755 62.6933 183.435 61.726 184.851C60.7493 186.283 59.2809 187.432 57.3252 188.293C55.3696 189.136 53.0027 189.559 50.2358 189.559L50.2335 189.554Z" fill="#DB0C0C"/>
<path d="M76.8459 166.085H67.8701V159.482H94.0958V166.088H85.1557V188.959H76.8437L76.8459 166.085Z" fill="#DB0C0C"/>
<path d="M124.331 182.528V188.956H100.83V159.482H123.808V165.946H109.035V170.899H122.027V177.118H109.035V182.528H124.331ZM159.01 188.956L158.94 173.359L151.397 186.042H147.729L140.222 173.782V188.959H132.574V159.482H139.384L149.685 176.487L159.707 159.484H166.551L166.62 188.959L159.01 188.956Z" fill="#DB0C0C"/>
<path d="M183.517 160.11V175.572C183.517 177.991 183.99 179.921 185.039 181.256C186.112 182.62 187.703 183.262 189.697 183.262C191.679 183.262 193.263 182.619 194.329 181.255C195.373 179.92 195.843 177.99 195.843 175.572V160.11H202.758V175.819C202.758 179.95 201.652 183.083 199.522 185.313L199.313 185.527L199.311 185.528C197.079 187.75 193.914 188.907 189.738 188.927H189.627C185.52 188.927 182.378 187.839 180.121 185.731L179.905 185.524C177.657 183.286 176.496 180.085 176.496 175.817V160.11H183.517ZM220.276 160.11V182.981H234.245V188.33H213.256V160.11H220.276ZM258.937 160.11L271.341 188.328H264.136L261.989 182.995L261.831 182.602H248.585L248.427 182.995L246.28 188.328H239.215L251.585 160.11H258.937ZM254.608 167.437L250.87 176.853L250.53 177.713L251.454 177.712L258.962 177.71H259.89L259.545 176.849L255.775 167.435L255.189 165.973L254.608 167.437Z" fill="black" stroke="black" stroke-width="1.25585"/>
<path d="M301.13 160.11V165.459H292.19V188.33H285.134L285.136 166.085V165.457H276.16V160.11H301.13Z" fill="black" stroke="black" stroke-width="1.25585"/>
<path d="M330.84 160.11V165.318H316.069V171.528H329.061V176.49H316.071V183.156H331.366V188.328H309.118V160.11H330.84Z" fill="black" stroke="black" stroke-width="1.25585"/>
<mask id="path-10-inside-1_3_29" fill="white">
<path d="M180.674 210.031L179.172 207.888C178.98 207.915 178.832 207.924 178.718 207.924H177.006V210.033H176.029V203.043H178.718C179.625 203.043 180.334 203.272 180.848 203.711C181.355 204.133 181.617 204.72 181.617 205.467C181.617 206.029 181.485 206.503 181.232 206.872C180.98 207.241 180.604 207.522 180.115 207.679L181.755 210.033L180.674 210.031ZM178.682 207.045C179.31 207.045 179.782 206.921 180.115 206.658C180.464 206.377 180.638 205.982 180.638 205.464C180.638 204.972 180.464 204.603 180.115 204.34C179.784 204.059 179.313 203.92 178.682 203.92H177.006V207.047L178.682 207.045Z"/>
</mask>
<path d="M180.674 210.031L179.172 207.888C178.98 207.915 178.832 207.924 178.718 207.924H177.006V210.033H176.029V203.043H178.718C179.625 203.043 180.334 203.272 180.848 203.711C181.355 204.133 181.617 204.72 181.617 205.467C181.617 206.029 181.485 206.503 181.232 206.872C180.98 207.241 180.604 207.522 180.115 207.679L181.755 210.033L180.674 210.031ZM178.682 207.045C179.31 207.045 179.782 206.921 180.115 206.658C180.464 206.377 180.638 205.982 180.638 205.464C180.638 204.972 180.464 204.603 180.115 204.34C179.784 204.059 179.313 203.92 178.682 203.92H177.006V207.047L178.682 207.045Z" fill="black"/>
<path d="M180.674 210.031L179.645 210.752L180.019 211.285L180.671 211.287L180.674 210.031ZM179.172 207.888L180.2 207.167L179.759 206.538L178.997 206.645L179.172 207.888ZM177.006 207.924V206.668H175.75V207.924H177.006ZM177.006 210.033V211.289H178.262V210.033H177.006ZM176.029 210.033H174.773V211.289H176.029V210.033ZM176.029 203.043V201.787H174.773V203.043H176.029ZM180.848 203.711L180.033 204.666L180.039 204.671L180.044 204.675L180.848 203.711ZM180.115 207.679L179.73 206.484L178.113 207.003L179.085 208.397L180.115 207.679ZM181.755 210.033L181.753 211.289L184.165 211.294L182.786 209.315L181.755 210.033ZM178.682 207.045L178.682 205.789L178.681 205.789L178.682 207.045ZM180.115 206.658L180.893 207.644L180.903 207.636L180.115 206.658ZM180.115 204.34L179.302 205.297L179.329 205.321L179.359 205.343L180.115 204.34ZM177.006 203.92V202.664H175.75V203.92H177.006ZM177.006 207.047H175.75V208.305L177.008 208.303L177.006 207.047ZM180.674 210.031L181.702 209.31L180.2 207.167L179.172 207.888L178.143 208.609L179.645 210.752L180.674 210.031ZM179.172 207.888L178.997 206.645C178.854 206.665 178.766 206.668 178.718 206.668V207.924V209.18C178.898 209.18 179.105 209.166 179.346 209.132L179.172 207.888ZM178.718 207.924V206.668H177.006V207.924V209.18H178.718V207.924ZM177.006 207.924H175.75V210.033H177.006H178.262V207.924H177.006ZM177.006 210.033V208.777H176.029V210.033V211.289H177.006V210.033ZM176.029 210.033H177.285V203.043H176.029H174.773V210.033H176.029ZM176.029 203.043V204.299H178.718V203.043V201.787H176.029V203.043ZM178.718 203.043V204.299C179.416 204.299 179.806 204.472 180.033 204.666L180.848 203.711L181.663 202.755C180.862 202.072 179.835 201.787 178.718 201.787V203.043ZM180.848 203.711L180.044 204.675C180.232 204.832 180.361 205.048 180.361 205.467H181.617H182.873C182.873 204.392 182.478 203.434 181.652 202.746L180.848 203.711ZM181.617 205.467H180.361C180.361 205.835 180.275 206.047 180.196 206.162L181.232 206.872L182.269 207.582C182.694 206.96 182.873 206.223 182.873 205.467H181.617ZM181.232 206.872L180.196 206.162C180.112 206.286 179.973 206.405 179.73 206.484L180.115 207.679L180.499 208.875C181.235 208.638 181.848 208.196 182.269 207.582L181.232 206.872ZM180.115 207.679L179.085 208.397L180.725 210.751L181.755 210.033L182.786 209.315L181.145 206.961L180.115 207.679ZM181.755 210.033L181.758 208.777L180.676 208.775L180.674 210.031L180.671 211.287L181.753 211.289L181.755 210.033ZM178.682 207.045V208.301C179.451 208.301 180.249 208.153 180.893 207.644L180.115 206.658L179.336 205.673C179.315 205.69 179.169 205.789 178.682 205.789V207.045ZM180.115 206.658L180.903 207.636C181.593 207.08 181.894 206.298 181.894 205.464H180.638H179.382C179.382 205.582 179.363 205.633 179.357 205.645C179.354 205.652 179.352 205.656 179.35 205.659C179.347 205.662 179.341 205.669 179.327 205.681L180.115 206.658ZM180.638 205.464H181.894C181.894 204.626 181.571 203.866 180.871 203.338L180.115 204.34L179.359 205.343C179.373 205.353 179.376 205.359 179.375 205.357C179.373 205.354 179.371 205.351 179.369 205.348C179.365 205.339 179.382 205.367 179.382 205.464H180.638ZM180.115 204.34L180.928 203.383C180.288 202.84 179.482 202.664 178.682 202.664V203.92V205.176C179.143 205.176 179.28 205.279 179.302 205.297L180.115 204.34ZM178.682 203.92V202.664H177.006V203.92V205.176H178.682V203.92ZM177.006 203.92H175.75V207.047H177.006H178.262V203.92H177.006ZM177.006 207.047L177.008 208.303L178.684 208.301L178.682 207.045L178.681 205.789L177.004 205.791L177.006 207.047Z" fill="black" mask="url(#path-10-inside-1_3_29)"/>
<mask id="path-12-inside-2_3_29" fill="white">
<path d="M190.74 209.152V210.031H185.711V203.041H190.602V203.92H186.69V206.062H190.184V206.906H186.693V209.154L190.74 209.152Z"/>
</mask>
<path d="M190.74 209.152V210.031H185.711V203.041H190.602V203.92H186.69V206.062H190.184V206.906H186.693V209.154L190.74 209.152Z" fill="black"/>
<path d="M190.74 209.152H191.996V207.895L190.739 207.896L190.74 209.152ZM190.74 210.031V211.287H191.996V210.031H190.74ZM185.711 210.031H184.456V211.287H185.711V210.031ZM185.711 203.041V201.785H184.456V203.041H185.711ZM190.602 203.041H191.857V201.785H190.602V203.041ZM190.602 203.92V205.176H191.857V203.92H190.602ZM186.69 203.92V202.664H185.434V203.92H186.69ZM186.69 206.062H185.434V207.318H186.69V206.062ZM190.184 206.062H191.44V204.807H190.184V206.062ZM190.184 206.906V208.161H191.44V206.906H190.184ZM186.693 206.906V205.65H185.437V206.906H186.693ZM186.693 209.154H185.437V210.411L186.693 210.41L186.693 209.154ZM190.74 209.152H189.484V210.031H190.74H191.996V209.152H190.74ZM190.74 210.031V208.775H185.711V210.031V211.287H190.74V210.031ZM185.711 210.031H186.967V203.041H185.711H184.456V210.031H185.711ZM185.711 203.041V204.296H190.602V203.041V201.785H185.711V203.041ZM190.602 203.041H189.346V203.92H190.602H191.857V203.041H190.602ZM190.602 203.92V202.664H186.69V203.92V205.176H190.602V203.92ZM186.69 203.92H185.434V206.062H186.69H187.946V203.92H186.69ZM186.69 206.062V207.318H190.184V206.062V204.807H186.69V206.062ZM190.184 206.062H188.928V206.906H190.184H191.44V206.062H190.184ZM190.184 206.906V205.65H186.693V206.906V208.161H190.184V206.906ZM186.693 206.906H185.437V209.154H186.693H187.948V206.906H186.693ZM186.693 209.154L186.693 210.41L190.741 210.408L190.74 209.152L190.739 207.896L186.692 207.898L186.693 209.154Z" fill="black" mask="url(#path-12-inside-2_3_29)"/>
<mask id="path-14-inside-3_3_29" fill="white">
<path d="M196.853 210.101C196.312 210.101 195.805 210.022 195.317 209.856C194.846 209.698 194.479 209.487 194.2 209.224L194.549 208.45C194.828 208.686 195.159 208.889 195.561 209.048C195.977 209.189 196.414 209.26 196.853 209.26C197.412 209.26 197.832 209.172 198.111 208.979C198.409 208.767 198.565 208.504 198.565 208.171C198.565 207.942 198.478 207.751 198.321 207.609C198.183 207.452 197.991 207.328 197.763 207.259L196.786 206.978C196.272 206.863 195.852 206.748 195.53 206.627C195.199 206.487 194.92 206.294 194.692 206.029C194.464 205.763 194.343 205.422 194.343 204.974C194.343 204.605 194.43 204.264 194.622 203.956C194.832 203.657 195.13 203.421 195.53 203.254C195.923 203.07 196.419 202.973 197.032 202.973C197.425 202.973 197.818 203.034 198.219 203.148C198.612 203.245 198.952 203.394 199.231 203.605L198.916 204.378C198.636 204.194 198.321 204.052 197.973 203.958C197.642 203.87 197.327 203.819 197.03 203.819C196.444 203.819 196.017 203.924 195.738 204.136C195.458 204.347 195.32 204.619 195.32 204.943C195.316 205.054 195.336 205.165 195.378 205.268C195.42 205.371 195.483 205.464 195.563 205.541C195.738 205.694 195.94 205.813 196.158 205.892L197.101 206.137C197.633 206.26 198.053 206.382 198.359 206.523C198.683 206.647 198.963 206.831 199.197 207.086C199.432 207.34 199.546 207.699 199.546 208.14C199.546 208.493 199.436 208.838 199.231 209.125C199.039 209.433 198.742 209.678 198.324 209.862C197.921 210.029 197.434 210.107 196.857 210.107L196.853 210.101Z"/>
</mask>
<path d="M196.853 210.101C196.312 210.101 195.805 210.022 195.317 209.856C194.846 209.698 194.479 209.487 194.2 209.224L194.549 208.45C194.828 208.686 195.159 208.889 195.561 209.048C195.977 209.189 196.414 209.26 196.853 209.26C197.412 209.26 197.832 209.172 198.111 208.979C198.409 208.767 198.565 208.504 198.565 208.171C198.565 207.942 198.478 207.751 198.321 207.609C198.183 207.452 197.991 207.328 197.763 207.259L196.786 206.978C196.272 206.863 195.852 206.748 195.53 206.627C195.199 206.487 194.92 206.294 194.692 206.029C194.464 205.763 194.343 205.422 194.343 204.974C194.343 204.605 194.43 204.264 194.622 203.956C194.832 203.657 195.13 203.421 195.53 203.254C195.923 203.07 196.419 202.973 197.032 202.973C197.425 202.973 197.818 203.034 198.219 203.148C198.612 203.245 198.952 203.394 199.231 203.605L198.916 204.378C198.636 204.194 198.321 204.052 197.973 203.958C197.642 203.87 197.327 203.819 197.03 203.819C196.444 203.819 196.017 203.924 195.738 204.136C195.458 204.347 195.32 204.619 195.32 204.943C195.316 205.054 195.336 205.165 195.378 205.268C195.42 205.371 195.483 205.464 195.563 205.541C195.738 205.694 195.94 205.813 196.158 205.892L197.101 206.137C197.633 206.26 198.053 206.382 198.359 206.523C198.683 206.647 198.963 206.831 199.197 207.086C199.432 207.34 199.546 207.699 199.546 208.14C199.546 208.493 199.436 208.838 199.231 209.125C199.039 209.433 198.742 209.678 198.324 209.862C197.921 210.029 197.434 210.107 196.857 210.107L196.853 210.101Z" fill="black"/>
<path d="M196.853 210.101L197.9 209.407L197.527 208.845H196.853V210.101ZM195.317 209.856L195.723 208.667L195.715 208.664L195.317 209.856ZM194.2 209.224L193.055 208.708L192.687 209.524L193.339 210.138L194.2 209.224ZM194.549 208.45L195.359 207.491L194.088 206.417L193.404 207.934L194.549 208.45ZM195.561 209.048L195.098 210.216L195.128 210.228L195.16 210.238L195.561 209.048ZM196.853 209.26L196.853 208.004L196.851 208.004L196.853 209.26ZM198.111 208.979L198.826 210.011L198.833 210.007L198.839 210.002L198.111 208.979ZM198.321 207.609L197.379 208.439L197.426 208.493L197.478 208.54L198.321 207.609ZM197.763 207.259L198.13 206.058L198.12 206.055L198.11 206.052L197.763 207.259ZM196.786 206.978L197.133 205.771L197.097 205.76L197.059 205.752L196.786 206.978ZM195.53 206.627L195.042 207.784L195.064 207.793L195.087 207.802L195.53 206.627ZM194.622 203.956L193.595 203.234L193.575 203.262L193.557 203.291L194.622 203.956ZM195.53 203.254L196.012 204.414L196.038 204.403L196.063 204.391L195.53 203.254ZM198.219 203.148L197.873 204.356L197.896 204.362L197.919 204.368L198.219 203.148ZM199.231 203.605L200.394 204.079L200.758 203.185L199.989 202.603L199.231 203.605ZM198.916 204.378L198.224 205.427L199.501 206.27L200.079 204.852L198.916 204.378ZM197.973 203.958L198.301 202.746L198.295 202.744L197.973 203.958ZM195.32 204.943L196.575 204.986L196.576 204.964V204.943H195.32ZM195.563 205.541L194.697 206.45L194.716 206.469L194.737 206.487L195.563 205.541ZM196.158 205.892L195.73 207.072L195.785 207.092L195.842 207.107L196.158 205.892ZM197.101 206.137L196.785 207.352L196.801 207.356L196.817 207.36L197.101 206.137ZM198.359 206.523L197.832 207.663L197.871 207.681L197.912 207.697L198.359 206.523ZM199.546 208.14L198.29 208.14L198.29 208.14L199.546 208.14ZM199.231 209.125L198.209 208.395L198.186 208.427L198.166 208.46L199.231 209.125ZM198.324 209.862L198.804 211.023L198.817 211.017L198.83 211.011L198.324 209.862ZM196.857 210.107L195.811 210.801L196.183 211.363H196.857V210.107ZM196.853 210.101V208.845C196.437 208.845 196.068 208.785 195.723 208.667L195.317 209.856L194.912 211.044C195.541 211.259 196.187 211.357 196.853 211.357V210.101ZM195.317 209.856L195.715 208.664C195.379 208.552 195.182 208.423 195.061 208.309L194.2 209.224L193.339 210.138C193.777 210.551 194.313 210.844 194.92 211.047L195.317 209.856ZM194.2 209.224L195.345 209.74L195.694 208.966L194.549 208.45L193.404 207.934L193.055 208.708L194.2 209.224ZM194.549 208.45L193.738 209.41C194.124 209.736 194.573 210.007 195.098 210.216L195.561 209.048L196.024 207.881C195.745 207.77 195.532 207.637 195.359 207.491L194.549 208.45ZM195.561 209.048L195.16 210.238C195.706 210.423 196.278 210.516 196.855 210.516L196.853 209.26L196.851 208.004C196.549 208.004 196.249 207.955 195.963 207.858L195.561 209.048ZM196.853 209.26V210.516C197.495 210.516 198.229 210.424 198.826 210.011L198.111 208.979L197.397 207.946C197.425 207.926 197.414 207.944 197.317 207.965C197.221 207.986 197.072 208.004 196.853 208.004V209.26ZM198.111 208.979L198.839 210.002C199.401 209.603 199.821 208.986 199.821 208.171H198.565H197.309C197.309 208.155 197.311 208.128 197.32 208.094C197.329 208.06 197.342 208.027 197.359 207.999C197.391 207.941 197.417 207.931 197.384 207.955L198.111 208.979ZM198.565 208.171H199.821C199.821 207.594 199.589 207.063 199.164 206.678L198.321 207.609L197.478 208.54C197.432 208.498 197.385 208.438 197.352 208.363C197.319 208.287 197.309 208.219 197.309 208.171H198.565ZM198.321 207.609L199.264 206.78C198.961 206.435 198.564 206.191 198.13 206.058L197.763 207.259L197.395 208.46C197.405 208.463 197.408 208.465 197.405 208.463C197.402 208.461 197.392 208.454 197.379 208.439L198.321 207.609ZM197.763 207.259L198.11 206.052L197.133 205.771L196.786 206.978L196.439 208.184L197.415 208.466L197.763 207.259ZM196.786 206.978L197.059 205.752C196.567 205.642 196.213 205.542 195.973 205.452L195.53 206.627L195.087 207.802C195.49 207.954 195.977 208.084 196.512 208.203L196.786 206.978ZM195.53 206.627L196.018 205.47C195.844 205.396 195.731 205.311 195.644 205.21L194.692 206.029L193.739 206.847C194.109 207.277 194.555 207.579 195.042 207.784L195.53 206.627ZM194.692 206.029L195.644 205.21C195.636 205.201 195.63 205.191 195.622 205.17C195.614 205.144 195.599 205.085 195.599 204.974H194.343H193.087C193.087 205.665 193.281 206.314 193.739 206.847L194.692 206.029ZM194.343 204.974H195.599C195.599 204.812 195.634 204.707 195.688 204.621L194.622 203.956L193.557 203.291C193.226 203.821 193.087 204.399 193.087 204.974H194.343ZM194.622 203.956L195.65 204.678C195.709 204.594 195.807 204.499 196.012 204.414L195.53 203.254L195.048 202.095C194.453 202.342 193.956 202.719 193.595 203.234L194.622 203.956ZM195.53 203.254L196.063 204.391C196.243 204.307 196.544 204.229 197.032 204.229V202.973V201.717C196.295 201.717 195.604 201.833 194.997 202.117L195.53 203.254ZM197.032 202.973V204.229C197.294 204.229 197.57 204.269 197.873 204.356L198.219 203.148L198.565 201.941C198.067 201.799 197.556 201.717 197.032 201.717V202.973ZM198.219 203.148L197.919 204.368C198.188 204.434 198.361 204.521 198.473 204.606L199.231 203.605L199.989 202.603C199.543 202.266 199.036 202.056 198.518 201.929L198.219 203.148ZM199.231 203.605L198.068 203.131L197.753 203.905L198.916 204.378L200.079 204.852L200.394 204.079L199.231 203.605ZM198.916 204.378L199.608 203.33C199.211 203.069 198.772 202.873 198.301 202.746L197.973 203.958L197.644 205.17C197.87 205.231 198.062 205.319 198.224 205.427L198.916 204.378ZM197.973 203.958L198.295 202.744C197.896 202.638 197.468 202.563 197.03 202.563V203.819V205.074C197.185 205.074 197.388 205.102 197.651 205.172L197.973 203.958ZM197.03 203.819V202.563C196.334 202.563 195.579 202.68 194.98 203.134L195.738 204.136L196.495 205.137C196.469 205.157 196.479 205.139 196.569 205.117C196.66 205.095 196.808 205.074 197.03 205.074V203.819ZM195.738 204.136L194.98 203.134C194.409 203.566 194.064 204.199 194.064 204.943H195.32H196.576C196.576 204.966 196.569 205.016 196.54 205.073C196.512 205.126 196.485 205.145 196.495 205.137L195.738 204.136ZM195.32 204.943L194.065 204.9C194.055 205.188 194.106 205.475 194.215 205.742L195.378 205.268L196.541 204.794C196.566 204.855 196.577 204.92 196.575 204.986L195.32 204.943ZM195.378 205.268L194.215 205.742C194.323 206.009 194.488 206.25 194.697 206.45L195.563 205.541L196.43 204.632C196.478 204.678 196.516 204.734 196.541 204.794L195.378 205.268ZM195.563 205.541L194.737 206.487C195.029 206.742 195.366 206.94 195.73 207.072L196.158 205.892L196.586 204.711C196.514 204.685 196.448 204.646 196.39 204.595L195.563 205.541ZM196.158 205.892L195.842 207.107L196.785 207.352L197.101 206.137L197.417 204.921L196.474 204.676L196.158 205.892ZM197.101 206.137L196.817 207.36C197.336 207.481 197.65 207.579 197.832 207.663L198.359 206.523L198.887 205.384C198.456 205.185 197.93 205.04 197.385 204.913L197.101 206.137ZM198.359 206.523L197.912 207.697C198.064 207.755 198.178 207.833 198.275 207.938L199.197 207.086L200.12 206.233C199.747 205.83 199.303 205.539 198.807 205.35L198.359 206.523ZM199.197 207.086L198.275 207.938C198.257 207.918 198.258 207.909 198.266 207.933C198.275 207.961 198.29 208.026 198.29 208.14H199.546H200.802C200.802 207.493 200.633 206.789 200.12 206.233L199.197 207.086ZM199.546 208.14L198.29 208.14C198.29 208.232 198.262 208.321 198.209 208.395L199.231 209.125L200.253 209.855C200.61 209.354 200.802 208.754 200.802 208.14L199.546 208.14ZM199.231 209.125L198.166 208.46C198.133 208.512 198.055 208.608 197.817 208.713L198.324 209.862L198.83 211.011C199.429 210.747 199.944 210.354 200.296 209.79L199.231 209.125ZM198.324 209.862L197.844 208.702C197.64 208.786 197.328 208.852 196.857 208.852V210.107V211.363C197.54 211.363 198.203 211.271 198.804 211.023L198.324 209.862ZM196.857 210.107L197.904 209.414L197.9 209.407L196.853 210.101L195.806 210.794L195.811 210.801L196.857 210.107Z" fill="black" mask="url(#path-14-inside-3_3_29)"/>
<mask id="path-16-inside-4_3_29" fill="white">
<path d="M208.486 209.152V210.031H203.457V203.041H208.348V203.92H204.436V206.062H207.93V206.906H204.439V209.154L208.486 209.152Z"/>
</mask>
<path d="M208.486 209.152V210.031H203.457V203.041H208.348V203.92H204.436V206.062H207.93V206.906H204.439V209.154L208.486 209.152Z" fill="black"/>
<path d="M208.486 209.152H209.742V207.895L208.486 207.896L208.486 209.152ZM208.486 210.031V211.287H209.742V210.031H208.486ZM203.457 210.031H202.202V211.287H203.457V210.031ZM203.457 203.041V201.785H202.202V203.041H203.457ZM208.348 203.041H209.603V201.785H208.348V203.041ZM208.348 203.92V205.176H209.603V203.92H208.348ZM204.436 203.92V202.664H203.181V203.92H204.436ZM204.436 206.062H203.181V207.318H204.436V206.062ZM207.93 206.062H209.186V204.807H207.93V206.062ZM207.93 206.906V208.161H209.186V206.906H207.93ZM204.439 206.906V205.65H203.183V206.906H204.439ZM204.439 209.154H203.183V210.411L204.439 210.41L204.439 209.154ZM208.486 209.152H207.23V210.031H208.486H209.742V209.152H208.486ZM208.486 210.031V208.775H203.457V210.031V211.287H208.486V210.031ZM203.457 210.031H204.713V203.041H203.457H202.202V210.031H203.457ZM203.457 203.041V204.296H208.348V203.041V201.785H203.457V203.041ZM208.348 203.041H207.092V203.92H208.348H209.603V203.041H208.348ZM208.348 203.92V202.664H204.436V203.92V205.176H208.348V203.92ZM204.436 203.92H203.181V206.062H204.436H205.692V203.92H204.436ZM204.436 206.062V207.318H207.93V206.062V204.807H204.436V206.062ZM207.93 206.062H206.674V206.906H207.93H209.186V206.062H207.93ZM207.93 206.906V205.65H204.439V206.906V208.161H207.93V206.906ZM204.439 206.906H203.183V209.154H204.439H205.694V206.906H204.439ZM204.439 209.154L204.439 210.41L208.487 210.408L208.486 209.152L208.486 207.896L204.438 207.898L204.439 209.154Z" fill="black" mask="url(#path-16-inside-4_3_29)"/>
<mask id="path-18-inside-5_3_29" fill="white">
<path d="M216.975 208.275H213.307L212.538 210.031H211.526L214.668 203.041H215.647L218.79 210.031H217.741L216.975 208.275ZM216.66 207.501L215.158 204.059L213.656 207.501H216.66Z"/>
</mask>
<path d="M216.975 208.275H213.307L212.538 210.031H211.526L214.668 203.041H215.647L218.79 210.031H217.741L216.975 208.275ZM216.66 207.501L215.158 204.059L213.656 207.501H216.66Z" fill="black"/>
<path d="M216.975 208.275L218.126 207.772L217.797 207.019H216.975V208.275ZM213.307 208.275V207.019H212.486L212.157 207.771L213.307 208.275ZM212.538 210.031V211.287H213.359L213.689 210.535L212.538 210.031ZM211.526 210.031L210.38 209.516L209.584 211.287H211.526V210.031ZM214.668 203.041V201.785H213.856L213.523 202.526L214.668 203.041ZM215.647 203.041L216.793 202.526L216.46 201.785H215.647V203.041ZM218.79 210.031V211.287H220.731L219.935 209.516L218.79 210.031ZM217.741 210.031L216.59 210.533L216.919 211.287H217.741V210.031ZM216.66 207.501V208.757H218.578L217.811 206.999L216.66 207.501ZM215.158 204.059L216.309 203.557L215.158 200.919L214.007 203.557L215.158 204.059ZM213.656 207.501L212.505 206.999L211.738 208.757H213.656V207.501ZM216.975 208.275V207.019H213.307V208.275V209.531H216.975V208.275ZM213.307 208.275L212.157 207.771L211.388 209.527L212.538 210.031L213.689 210.535L214.458 208.779L213.307 208.275ZM212.538 210.031V208.775H211.526V210.031V211.287H212.538V210.031ZM211.526 210.031L212.671 210.546L215.814 203.556L214.668 203.041L213.523 202.526L210.38 209.516L211.526 210.031ZM214.668 203.041V204.296H215.647V203.041V201.785H214.668V203.041ZM215.647 203.041L214.502 203.556L217.644 210.546L218.79 210.031L219.935 209.516L216.793 202.526L215.647 203.041ZM218.79 210.031V208.775H217.741V210.031V211.287H218.79V210.031ZM217.741 210.031L218.892 209.529L218.126 207.772L216.975 208.275L215.824 208.777L216.59 210.533L217.741 210.031ZM216.66 207.501L217.811 206.999L216.309 203.557L215.158 204.059L214.007 204.561L215.509 208.004L216.66 207.501ZM215.158 204.059L214.007 203.557L212.505 206.999L213.656 207.501L214.807 208.004L216.309 204.561L215.158 204.059ZM213.656 207.501V208.757H216.66V207.501V206.246H213.656V207.501Z" fill="black" mask="url(#path-18-inside-5_3_29)"/>
<mask id="path-20-inside-6_3_29" fill="white">
<path d="M226.95 210.031L225.448 207.888C225.256 207.915 225.108 207.924 224.994 207.924H223.282V210.033H222.305V203.043H224.994C225.901 203.043 226.61 203.272 227.124 203.711C227.631 204.133 227.893 204.72 227.893 205.467C227.893 206.029 227.761 206.503 227.508 206.872C227.256 207.241 226.88 207.522 226.391 207.679L228.031 210.033L226.95 210.031ZM224.958 207.045C225.586 207.045 226.058 206.921 226.391 206.658C226.74 206.377 226.914 205.982 226.914 205.464C226.914 204.972 226.74 204.603 226.391 204.34C226.06 204.059 225.589 203.92 224.958 203.92H223.282V207.047L224.958 207.045Z"/>
</mask>
<path d="M226.95 210.031L225.448 207.888C225.256 207.915 225.108 207.924 224.994 207.924H223.282V210.033H222.305V203.043H224.994C225.901 203.043 226.61 203.272 227.124 203.711C227.631 204.133 227.893 204.72 227.893 205.467C227.893 206.029 227.761 206.503 227.508 206.872C227.256 207.241 226.88 207.522 226.391 207.679L228.031 210.033L226.95 210.031ZM224.958 207.045C225.586 207.045 226.058 206.921 226.391 206.658C226.74 206.377 226.914 205.982 226.914 205.464C226.914 204.972 226.74 204.603 226.391 204.34C226.06 204.059 225.589 203.92 224.958 203.92H223.282V207.047L224.958 207.045Z" fill="black"/>
<path d="M226.95 210.031L225.921 210.752L226.295 211.285L226.947 211.287L226.95 210.031ZM225.448 207.888L226.476 207.167L226.035 206.538L225.273 206.645L225.448 207.888ZM223.282 207.924V206.668H222.026V207.924H223.282ZM223.282 210.033V211.289H224.538V210.033H223.282ZM222.305 210.033H221.049V211.289H222.305V210.033ZM222.305 203.043V201.787H221.049V203.043H222.305ZM227.124 203.711L226.309 204.666L226.315 204.671L226.32 204.675L227.124 203.711ZM226.391 207.679L226.006 206.484L224.389 207.003L225.361 208.397L226.391 207.679ZM228.031 210.033L228.029 211.289L230.441 211.294L229.062 209.315L228.031 210.033ZM224.958 207.045L224.958 205.789L224.957 205.789L224.958 207.045ZM226.391 206.658L227.169 207.644L227.179 207.636L226.391 206.658ZM226.391 204.34L225.578 205.297L225.605 205.321L225.635 205.343L226.391 204.34ZM223.282 203.92V202.664H222.026V203.92H223.282ZM223.282 207.047H222.026V208.305L223.284 208.303L223.282 207.047ZM226.95 210.031L227.978 209.31L226.476 207.167L225.448 207.888L224.419 208.609L225.921 210.752L226.95 210.031ZM225.448 207.888L225.273 206.645C225.13 206.665 225.042 206.668 224.994 206.668V207.924V209.18C225.174 209.18 225.381 209.166 225.622 209.132L225.448 207.888ZM224.994 207.924V206.668H223.282V207.924V209.18H224.994V207.924ZM223.282 207.924H222.026V210.033H223.282H224.538V207.924H223.282ZM223.282 210.033V208.777H222.305V210.033V211.289H223.282V210.033ZM222.305 210.033H223.561V203.043H222.305H221.049V210.033H222.305ZM222.305 203.043V204.299H224.994V203.043V201.787H222.305V203.043ZM224.994 203.043V204.299C225.692 204.299 226.082 204.472 226.309 204.666L227.124 203.711L227.939 202.755C227.138 202.072 226.111 201.787 224.994 201.787V203.043ZM227.124 203.711L226.32 204.675C226.508 204.832 226.637 205.048 226.637 205.467H227.893H229.149C229.149 204.392 228.755 203.434 227.928 202.746L227.124 203.711ZM227.893 205.467H226.637C226.637 205.835 226.552 206.047 226.472 206.162L227.508 206.872L228.545 207.582C228.97 206.96 229.149 206.223 229.149 205.467H227.893ZM227.508 206.872L226.472 206.162C226.388 206.286 226.249 206.405 226.006 206.484L226.391 207.679L226.775 208.875C227.511 208.638 228.124 208.196 228.545 207.582L227.508 206.872ZM226.391 207.679L225.361 208.397L227.001 210.751L228.031 210.033L229.062 209.315L227.421 206.961L226.391 207.679ZM228.031 210.033L228.034 208.777L226.952 208.775L226.95 210.031L226.947 211.287L228.029 211.289L228.031 210.033ZM224.958 207.045V208.301C225.727 208.301 226.525 208.153 227.169 207.644L226.391 206.658L225.612 205.673C225.591 205.69 225.445 205.789 224.958 205.789V207.045ZM226.391 206.658L227.179 207.636C227.869 207.08 228.17 206.298 228.17 205.464H226.914H225.658C225.658 205.582 225.639 205.633 225.633 205.645C225.63 205.652 225.628 205.656 225.626 205.659C225.623 205.662 225.617 205.669 225.603 205.681L226.391 206.658ZM226.914 205.464H228.17C228.17 204.626 227.847 203.866 227.147 203.338L226.391 204.34L225.635 205.343C225.649 205.353 225.652 205.359 225.651 205.357C225.649 205.354 225.647 205.351 225.645 205.348C225.641 205.339 225.658 205.367 225.658 205.464H226.914ZM226.391 204.34L227.204 203.383C226.564 202.84 225.758 202.664 224.958 202.664V203.92V205.176C225.419 205.176 225.556 205.279 225.578 205.297L226.391 204.34ZM224.958 203.92V202.664H223.282V203.92V205.176H224.958V203.92ZM223.282 203.92H222.026V207.047H223.282H224.538V203.92H223.282ZM223.282 207.047L223.284 208.303L224.96 208.301L224.958 207.045L224.957 205.789L223.28 205.791L223.282 207.047Z" fill="black" mask="url(#path-20-inside-6_3_29)"/>
<mask id="path-22-inside-7_3_29" fill="white">
<path d="M235.094 210.101C234.397 210.101 233.767 209.952 233.208 209.644C232.659 209.352 232.201 208.915 231.88 208.381C231.574 207.845 231.426 207.238 231.426 206.555C231.416 205.917 231.573 205.287 231.88 204.729C232.194 204.18 232.653 203.73 233.208 203.43C233.789 203.122 234.437 202.965 235.094 202.973C235.626 202.973 236.116 203.07 236.56 203.254C237.008 203.435 237.413 203.71 237.747 204.061L237.083 204.693C236.837 204.419 236.535 204.202 236.197 204.056C235.86 203.911 235.495 203.84 235.128 203.85C234.64 203.846 234.159 203.967 233.731 204.201C233.317 204.427 232.978 204.769 232.754 205.186C232.517 205.602 232.396 206.075 232.405 206.555C232.401 207.034 232.521 207.506 232.754 207.924C232.982 208.329 233.313 208.644 233.733 208.873C234.153 209.102 234.616 209.224 235.13 209.224C235.496 209.229 235.86 209.157 236.197 209.011C236.534 208.866 236.836 208.651 237.086 208.381L237.749 209.012C237.418 209.366 237.012 209.642 236.563 209.82C236.118 210.013 235.628 210.101 235.096 210.101H235.094ZM247.601 203.041V210.031H246.589V206.903H242.608V210.031H241.632V203.041H242.61V206.062H246.591V203.041H247.601ZM259.979 203.041C260.886 203.041 261.595 203.27 262.109 203.708C262.616 204.131 262.878 204.718 262.878 205.464C262.878 206.238 262.616 206.852 262.109 207.292C261.595 207.715 260.886 207.924 259.979 207.924H258.267V210.033H257.29V203.043L259.979 203.041ZM259.943 207.045C260.571 207.045 261.043 206.921 261.376 206.658C261.724 206.377 261.899 205.982 261.899 205.464C261.899 204.972 261.724 204.603 261.376 204.34C261.045 204.059 260.573 203.92 259.943 203.92H258.267V207.047L259.943 207.045Z"/>
</mask>
<path d="M235.094 210.101C234.397 210.101 233.767 209.952 233.208 209.644C232.659 209.352 232.201 208.915 231.88 208.381C231.574 207.845 231.426 207.238 231.426 206.555C231.416 205.917 231.573 205.287 231.88 204.729C232.194 204.18 232.653 203.73 233.208 203.43C233.789 203.122 234.437 202.965 235.094 202.973C235.626 202.973 236.116 203.07 236.56 203.254C237.008 203.435 237.413 203.71 237.747 204.061L237.083 204.693C236.837 204.419 236.535 204.202 236.197 204.056C235.86 203.911 235.495 203.84 235.128 203.85C234.64 203.846 234.159 203.967 233.731 204.201C233.317 204.427 232.978 204.769 232.754 205.186C232.517 205.602 232.396 206.075 232.405 206.555C232.401 207.034 232.521 207.506 232.754 207.924C232.982 208.329 233.313 208.644 233.733 208.873C234.153 209.102 234.616 209.224 235.13 209.224C235.496 209.229 235.86 209.157 236.197 209.011C236.534 208.866 236.836 208.651 237.086 208.381L237.749 209.012C237.418 209.366 237.012 209.642 236.563 209.82C236.118 210.013 235.628 210.101 235.096 210.101H235.094ZM247.601 203.041V210.031H246.589V206.903H242.608V210.031H241.632V203.041H242.61V206.062H246.591V203.041H247.601ZM259.979 203.041C260.886 203.041 261.595 203.27 262.109 203.708C262.616 204.131 262.878 204.718 262.878 205.464C262.878 206.238 262.616 206.852 262.109 207.292C261.595 207.715 260.886 207.924 259.979 207.924H258.267V210.033H257.29V203.043L259.979 203.041ZM259.943 207.045C260.571 207.045 261.043 206.921 261.376 206.658C261.724 206.377 261.899 205.982 261.899 205.464C261.899 204.972 261.724 204.603 261.376 204.34C261.045 204.059 260.573 203.92 259.943 203.92H258.267V207.047L259.943 207.045Z" fill="black"/>
<path d="M233.208 209.644L233.814 208.544L233.806 208.54L233.798 208.536L233.208 209.644ZM231.88 208.381L230.79 209.004L230.796 209.015L230.803 209.026L231.88 208.381ZM231.426 206.555H232.682V206.545L232.682 206.535L231.426 206.555ZM231.88 204.729L230.789 204.107L230.785 204.115L230.78 204.123L231.88 204.729ZM233.208 203.43L232.621 202.319L232.61 202.325L233.208 203.43ZM235.094 202.973L235.079 204.229L235.087 204.229H235.094L235.094 202.973ZM236.56 203.254L236.079 204.414L236.09 204.418L236.56 203.254ZM237.747 204.061L238.613 204.971L239.523 204.105L238.657 203.195L237.747 204.061ZM237.083 204.693L236.149 205.533L237.013 206.494L237.949 205.603L237.083 204.693ZM235.128 203.85L235.118 205.106L235.139 205.106L235.16 205.105L235.128 203.85ZM233.731 204.201L233.129 203.098L233.127 203.099L233.731 204.201ZM232.754 205.186L233.845 205.807L233.853 205.794L233.86 205.781L232.754 205.186ZM232.405 206.555L233.661 206.567L233.661 206.549L233.661 206.531L232.405 206.555ZM232.754 207.924L231.657 208.536L231.66 208.541L232.754 207.924ZM235.13 209.224L235.148 207.968L235.139 207.968H235.13V209.224ZM237.086 208.381L237.951 207.471L237.026 206.59L236.161 207.53L237.086 208.381ZM237.749 209.012L238.665 209.872L239.518 208.962L238.615 208.103L237.749 209.012ZM236.563 209.82L236.1 208.652L236.081 208.66L236.062 208.668L236.563 209.82ZM247.601 203.041H248.857V201.785H247.601V203.041ZM247.601 210.031V211.287H248.857V210.031H247.601ZM246.589 210.031H245.333V211.287H246.589V210.031ZM246.589 206.903H247.845V205.648H246.589V206.903ZM242.608 206.903V205.648H241.352V206.903H242.608ZM242.608 210.031V211.287H243.864V210.031H242.608ZM241.632 210.031H240.376V211.287H241.632V210.031ZM241.632 203.041V201.785H240.376V203.041H241.632ZM242.61 203.041H243.866V201.785H242.61V203.041ZM242.61 206.062H241.355V207.318H242.61V206.062ZM246.591 206.062V207.318H247.847V206.062H246.591ZM246.591 203.041V201.785H245.335V203.041H246.591ZM259.979 203.041L259.979 201.785L259.978 201.785L259.979 203.041ZM262.109 203.708L261.294 204.664L261.299 204.669L261.305 204.673L262.109 203.708ZM262.109 207.292L262.906 208.262L262.92 208.252L262.932 208.24L262.109 207.292ZM258.267 207.924V206.668H257.011V207.924H258.267ZM258.267 210.033V211.289H259.523V210.033H258.267ZM257.29 210.033H256.034V211.289H257.29V210.033ZM257.29 203.043L257.289 201.787L256.034 201.788V203.043H257.29ZM259.943 207.045L259.943 205.789L259.941 205.789L259.943 207.045ZM261.376 206.658L262.154 207.644L262.164 207.636L261.376 206.658ZM261.376 204.34L260.563 205.297L260.59 205.321L260.619 205.343L261.376 204.34ZM258.267 203.92V202.664H257.011V203.92H258.267ZM258.267 207.047H257.011V208.305L258.268 208.303L258.267 207.047ZM235.094 210.101V208.845C234.58 208.845 234.164 208.737 233.814 208.544L233.208 209.644L232.601 210.744C233.369 211.167 234.213 211.357 235.094 211.357V210.101ZM233.208 209.644L233.798 208.536C233.452 208.351 233.161 208.075 232.957 207.735L231.88 208.381L230.803 209.026C231.24 209.756 231.867 210.353 232.617 210.752L233.208 209.644ZM231.88 208.381L232.97 207.757C232.787 207.437 232.682 207.051 232.682 206.555H231.426H230.171C230.171 207.426 230.361 208.254 230.79 209.004L231.88 208.381ZM231.426 206.555L232.682 206.535C232.675 206.115 232.778 205.701 232.98 205.335L231.88 204.729L230.78 204.123C230.367 204.873 230.157 205.719 230.171 206.575L231.426 206.555ZM231.88 204.729L232.971 205.351C233.169 205.005 233.458 204.722 233.806 204.534L233.208 203.43L232.61 202.325C231.849 202.737 231.218 203.355 230.789 204.107L231.88 204.729ZM233.208 203.43L233.795 204.54C234.191 204.33 234.632 204.224 235.079 204.229L235.094 202.973L235.109 201.717C234.242 201.707 233.387 201.914 232.621 202.319L233.208 203.43ZM235.094 202.973L235.094 204.229C235.471 204.229 235.796 204.297 236.079 204.414L236.56 203.254L237.041 202.094C236.435 201.843 235.781 201.717 235.094 201.717L235.094 202.973ZM236.56 203.254L236.09 204.418C236.372 204.532 236.627 204.706 236.838 204.927L237.747 204.061L238.657 203.195C238.199 202.715 237.645 202.338 237.031 202.09L236.56 203.254ZM237.747 204.061L236.881 203.152L236.217 203.783L237.083 204.693L237.949 205.603L238.613 204.971L237.747 204.061ZM237.083 204.693L238.017 203.854C237.65 203.445 237.199 203.121 236.694 202.903L236.197 204.056L235.7 205.21C235.871 205.283 236.024 205.393 236.149 205.533L237.083 204.693ZM236.197 204.056L236.694 202.903C236.19 202.686 235.644 202.58 235.095 202.595L235.128 203.85L235.16 205.105C235.345 205.101 235.529 205.136 235.7 205.21L236.197 204.056ZM235.128 203.85L235.137 202.594C234.436 202.589 233.745 202.762 233.129 203.098L233.731 204.201L234.332 205.303C234.574 205.171 234.844 205.104 235.118 205.106L235.128 203.85ZM233.731 204.201L233.127 203.099C232.5 203.443 231.987 203.961 231.648 204.59L232.754 205.186L233.86 205.781C233.969 205.578 234.134 205.412 234.334 205.302L233.731 204.201ZM232.754 205.186L231.663 204.564C231.314 205.177 231.137 205.873 231.15 206.578L232.405 206.555L233.661 206.531C233.656 206.277 233.72 206.027 233.845 205.807L232.754 205.186ZM232.405 206.555L231.15 206.543C231.143 207.24 231.318 207.927 231.657 208.536L232.754 207.924L233.851 207.312C233.724 207.085 233.659 206.828 233.661 206.567L232.405 206.555ZM232.754 207.924L231.66 208.541C232.013 209.167 232.522 209.643 233.131 209.975L233.733 208.873L234.335 207.771C234.103 207.644 233.951 207.491 233.848 207.308L232.754 207.924ZM233.733 208.873L233.131 209.975C233.738 210.306 234.408 210.48 235.13 210.48V209.224V207.968C234.824 207.968 234.569 207.898 234.335 207.771L233.733 208.873ZM235.13 209.224L235.112 210.479C235.656 210.487 236.195 210.38 236.694 210.165L236.197 209.011L235.7 207.858C235.525 207.933 235.337 207.971 235.148 207.968L235.13 209.224ZM236.197 209.011L236.694 210.165C237.193 209.949 237.641 209.631 238.01 209.231L237.086 208.381L236.161 207.53C236.032 207.671 235.874 207.783 235.7 207.858L236.197 209.011ZM237.086 208.381L236.22 209.29L236.883 209.922L237.749 209.012L238.615 208.103L237.951 207.471L237.086 208.381ZM237.749 209.012L236.833 208.153C236.628 208.372 236.378 208.542 236.1 208.652L236.563 209.82L237.025 210.987C237.647 210.741 238.207 210.36 238.665 209.872L237.749 209.012ZM236.563 209.82L236.062 208.668C235.803 208.78 235.489 208.845 235.096 208.845V210.101V211.357C235.767 211.357 236.432 211.246 237.063 210.971L236.563 209.82ZM235.096 210.101V208.845H235.094V210.101V211.357H235.096V210.101ZM247.601 203.041H246.345V210.031H247.601H248.857V203.041H247.601ZM247.601 210.031V208.775H246.589V210.031V211.287H247.601V210.031ZM246.589 210.031H247.845V206.903H246.589H245.333V210.031H246.589ZM246.589 206.903V205.648H242.608V206.903V208.159H246.589V206.903ZM242.608 206.903H241.352V210.031H242.608H243.864V206.903H242.608ZM242.608 210.031V208.775H241.632V210.031V211.287H242.608V210.031ZM241.632 210.031H242.887V203.041H241.632H240.376V210.031H241.632ZM241.632 203.041V204.296H242.61V203.041V201.785H241.632V203.041ZM242.61 203.041H241.355V206.062H242.61H243.866V203.041H242.61ZM242.61 206.062V207.318H246.591V206.062V204.807H242.61V206.062ZM246.591 206.062H247.847V203.041H246.591H245.335V206.062H246.591ZM246.591 203.041V204.296H247.601V203.041V201.785H246.591V203.041ZM259.979 203.041V204.296C260.677 204.296 261.067 204.47 261.294 204.664L262.109 203.708L262.924 202.753C262.123 202.07 261.096 201.785 259.979 201.785V203.041ZM262.109 203.708L261.305 204.673C261.493 204.83 261.622 205.046 261.622 205.464H262.878H264.133C264.133 204.39 263.739 203.432 262.913 202.743L262.109 203.708ZM262.878 205.464H261.622C261.622 205.928 261.48 206.175 261.285 206.344L262.109 207.292L262.932 208.24C263.753 207.528 264.133 206.547 264.133 205.464H262.878ZM262.109 207.292L261.311 206.322C261.093 206.502 260.703 206.668 259.979 206.668V207.924V209.18C261.07 209.18 262.097 208.928 262.906 208.262L262.109 207.292ZM259.979 207.924V206.668H258.267V207.924V209.18H259.979V207.924ZM258.267 207.924H257.011V210.033H258.267H259.523V207.924H258.267ZM258.267 210.033V208.777H257.29V210.033V211.289H258.267V210.033ZM257.29 210.033H258.546V203.043H257.29H256.034V210.033H257.29ZM257.29 203.043L257.291 204.299L259.98 204.296L259.979 203.041L259.978 201.785L257.289 201.787L257.29 203.043ZM259.943 207.045V208.301C260.712 208.301 261.509 208.153 262.154 207.644L261.376 206.658L260.597 205.673C260.576 205.69 260.43 205.789 259.943 205.789V207.045ZM261.376 206.658L262.164 207.636C262.854 207.08 263.155 206.298 263.155 205.464H261.899H260.643C260.643 205.582 260.623 205.633 260.618 205.645C260.615 205.652 260.612 205.656 260.61 205.659C260.608 205.662 260.602 205.669 260.588 205.681L261.376 206.658ZM261.899 205.464H263.155C263.155 204.626 262.832 203.866 262.132 203.338L261.376 204.34L260.619 205.343C260.634 205.353 260.637 205.359 260.636 205.357C260.634 205.354 260.631 205.351 260.63 205.348C260.626 205.339 260.643 205.367 260.643 205.464H261.899ZM261.376 204.34L262.189 203.383C261.549 202.84 260.743 202.664 259.943 202.664V203.92V205.176C260.404 205.176 260.541 205.279 260.563 205.297L261.376 204.34ZM259.943 203.92V202.664H258.267V203.92V205.176H259.943V203.92ZM258.267 203.92H257.011V207.047H258.267H259.523V203.92H258.267ZM258.267 207.047L258.268 208.303L259.945 208.301L259.943 207.045L259.941 205.789L258.265 205.791L258.267 207.047Z" fill="black" mask="url(#path-22-inside-7_3_29)"/>
<mask id="path-24-inside-8_3_29" fill="white">
<path d="M271.567 210.031L270.065 207.888C269.873 207.915 269.726 207.924 269.612 207.924H267.9V210.033H266.923V203.043H269.612C270.519 203.043 271.228 203.272 271.742 203.711C272.249 204.133 272.511 204.72 272.511 205.467C272.511 206.029 272.379 206.503 272.126 206.872C271.874 207.241 271.498 207.522 271.009 207.679L272.649 210.033L271.567 210.031ZM269.576 207.045C270.204 207.045 270.676 206.921 271.009 206.658C271.357 206.377 271.532 205.982 271.532 205.464C271.532 204.972 271.357 204.603 271.009 204.34C270.678 204.059 270.206 203.92 269.576 203.92H267.9V207.047L269.576 207.045Z"/>
</mask>
<path d="M271.567 210.031L270.065 207.888C269.873 207.915 269.726 207.924 269.612 207.924H267.9V210.033H266.923V203.043H269.612C270.519 203.043 271.228 203.272 271.742 203.711C272.249 204.133 272.511 204.72 272.511 205.467C272.511 206.029 272.379 206.503 272.126 206.872C271.874 207.241 271.498 207.522 271.009 207.679L272.649 210.033L271.567 210.031ZM269.576 207.045C270.204 207.045 270.676 206.921 271.009 206.658C271.357 206.377 271.532 205.982 271.532 205.464C271.532 204.972 271.357 204.603 271.009 204.34C270.678 204.059 270.206 203.92 269.576 203.92H267.9V207.047L269.576 207.045Z" fill="black"/>
<path d="M271.567 210.031L270.539 210.752L270.913 211.285L271.565 211.287L271.567 210.031ZM270.065 207.888L271.094 207.167L270.652 206.538L269.891 206.645L270.065 207.888ZM267.9 207.924V206.668H266.644V207.924H267.9ZM267.9 210.033V211.289H269.156V210.033H267.9ZM266.923 210.033H265.667V211.289H266.923V210.033ZM266.923 203.043V201.787H265.667V203.043H266.923ZM271.742 203.711L270.927 204.666L270.932 204.671L270.938 204.675L271.742 203.711ZM271.009 207.679L270.624 206.484L269.007 207.003L269.978 208.397L271.009 207.679ZM272.649 210.033L272.647 211.289L275.058 211.294L273.679 209.315L272.649 210.033ZM269.576 207.045L269.576 205.789L269.574 205.789L269.576 207.045ZM271.009 206.658L271.787 207.644L271.797 207.636L271.009 206.658ZM271.009 204.34L270.195 205.297L270.223 205.321L270.252 205.343L271.009 204.34ZM267.9 203.92V202.664H266.644V203.92H267.9ZM267.9 207.047H266.644V208.305L267.901 208.303L267.9 207.047ZM271.567 210.031L272.596 209.31L271.094 207.167L270.065 207.888L269.037 208.609L270.539 210.752L271.567 210.031ZM270.065 207.888L269.891 206.645C269.748 206.665 269.659 206.668 269.612 206.668V207.924V209.18C269.792 209.18 269.998 209.166 270.24 209.132L270.065 207.888ZM269.612 207.924V206.668H267.9V207.924V209.18H269.612V207.924ZM267.9 207.924H266.644V210.033H267.9H269.156V207.924H267.9ZM267.9 210.033V208.777H266.923V210.033V211.289H267.9V210.033ZM266.923 210.033H268.179V203.043H266.923H265.667V210.033H266.923ZM266.923 203.043V204.299H269.612V203.043V201.787H266.923V203.043ZM269.612 203.043V204.299C270.31 204.299 270.7 204.472 270.927 204.666L271.742 203.711L272.557 202.755C271.756 202.072 270.729 201.787 269.612 201.787V203.043ZM271.742 203.711L270.938 204.675C271.126 204.832 271.255 205.048 271.255 205.467H272.511H273.766C273.766 204.392 273.372 203.434 272.546 202.746L271.742 203.711ZM272.511 205.467H271.255C271.255 205.835 271.169 206.047 271.09 206.162L272.126 206.872L273.162 207.582C273.588 206.96 273.766 206.223 273.766 205.467H272.511ZM272.126 206.872L271.09 206.162C271.005 206.286 270.867 206.405 270.624 206.484L271.009 207.679L271.393 208.875C272.129 208.638 272.742 208.196 273.162 207.582L272.126 206.872ZM271.009 207.679L269.978 208.397L271.619 210.751L272.649 210.033L273.679 209.315L272.039 206.961L271.009 207.679ZM272.649 210.033L272.652 208.777L271.57 208.775L271.567 210.031L271.565 211.287L272.647 211.289L272.649 210.033ZM269.576 207.045V208.301C270.345 208.301 271.142 208.153 271.787 207.644L271.009 206.658L270.23 205.673C270.209 205.69 270.063 205.789 269.576 205.789V207.045ZM271.009 206.658L271.797 207.636C272.487 207.08 272.787 206.298 272.787 205.464H271.532H270.276C270.276 205.582 270.256 205.633 270.251 205.645C270.248 205.652 270.245 205.656 270.243 205.659C270.241 205.662 270.235 205.669 270.22 205.681L271.009 206.658ZM271.532 205.464H272.787C272.787 204.626 272.465 203.866 271.765 203.338L271.009 204.34L270.252 205.343C270.266 205.353 270.27 205.359 270.269 205.357C270.267 205.354 270.264 205.351 270.263 205.348C270.259 205.339 270.276 205.367 270.276 205.464H271.532ZM271.009 204.34L271.822 203.383C271.182 202.84 270.376 202.664 269.576 202.664V203.92V205.176C270.037 205.176 270.174 205.279 270.195 205.297L271.009 204.34ZM269.576 203.92V202.664H267.9V203.92V205.176H269.576V203.92ZM267.9 203.92H266.644V207.047H267.9H269.156V203.92H267.9ZM267.9 207.047L267.901 208.303L269.578 208.301L269.576 207.045L269.574 205.789L267.898 205.791L267.9 207.047Z" fill="black" mask="url(#path-24-inside-8_3_29)"/>
<mask id="path-26-inside-9_3_29" fill="white">
<path d="M279.748 210.101C279.023 210.101 278.386 209.952 277.828 209.644C277.279 209.352 276.82 208.915 276.5 208.381C276.196 207.821 276.04 207.192 276.046 206.555C276.036 205.917 276.192 205.287 276.5 204.729C276.813 204.18 277.273 203.73 277.828 203.43C278.386 203.131 279.023 202.973 279.748 202.973C280.393 202.969 281.028 203.125 281.598 203.43C282.175 203.738 282.62 204.167 282.926 204.729C283.253 205.281 283.423 205.914 283.415 206.557C283.415 207.234 283.25 207.848 282.926 208.385C282.618 208.931 282.156 209.371 281.598 209.651C281.03 209.959 280.393 210.116 279.748 210.107V210.101ZM279.748 209.222C280.214 209.228 280.672 209.107 281.075 208.871C281.483 208.652 281.822 208.324 282.054 207.922C282.306 207.51 282.439 207.036 282.439 206.553C282.444 206.069 282.31 205.593 282.054 205.183C281.827 204.77 281.488 204.43 281.077 204.201C280.673 203.968 280.215 203.847 279.75 203.85C279.262 203.846 278.782 203.967 278.353 204.201C277.94 204.427 277.6 204.769 277.376 205.186C277.139 205.602 277.019 206.075 277.028 206.555C277.023 207.034 277.143 207.506 277.376 207.924C277.604 208.329 277.935 208.644 278.355 208.873C278.775 209.102 279.238 209.224 279.752 209.224L279.748 209.222ZM292.228 206.483H293.171V209.224C292.805 209.516 292.392 209.742 291.949 209.892C291.496 210.034 291.025 210.105 290.552 210.103C289.827 210.103 289.191 209.955 288.632 209.646C288.083 209.354 287.625 208.917 287.304 208.383C286.998 207.848 286.85 207.241 286.85 206.557C286.84 205.919 286.997 205.289 287.304 204.731C287.618 204.182 288.077 203.732 288.632 203.432C289.226 203.127 289.885 202.97 290.552 202.975C291.11 202.975 291.609 203.072 292.054 203.256C292.502 203.438 292.906 203.713 293.24 204.064L292.612 204.662C292.344 204.4 292.027 204.193 291.68 204.055C291.332 203.916 290.961 203.848 290.587 203.855C290.073 203.855 289.593 203.978 289.155 204.205C288.741 204.432 288.402 204.774 288.178 205.19C287.941 205.606 287.82 206.08 287.829 206.559C287.825 207.039 287.945 207.511 288.178 207.929C288.406 208.333 288.737 208.648 289.157 208.878C289.598 209.114 290.09 209.234 290.59 209.228C291.169 209.243 291.74 209.084 292.23 208.772L292.228 206.483Z"/>
</mask>
<path d="M279.748 210.101C279.023 210.101 278.386 209.952 277.828 209.644C277.279 209.352 276.82 208.915 276.5 208.381C276.196 207.821 276.04 207.192 276.046 206.555C276.036 205.917 276.192 205.287 276.5 204.729C276.813 204.18 277.273 203.73 277.828 203.43C278.386 203.131 279.023 202.973 279.748 202.973C280.393 202.969 281.028 203.125 281.598 203.43C282.175 203.738 282.62 204.167 282.926 204.729C283.253 205.281 283.423 205.914 283.415 206.557C283.415 207.234 283.25 207.848 282.926 208.385C282.618 208.931 282.156 209.371 281.598 209.651C281.03 209.959 280.393 210.116 279.748 210.107V210.101ZM279.748 209.222C280.214 209.228 280.672 209.107 281.075 208.871C281.483 208.652 281.822 208.324 282.054 207.922C282.306 207.51 282.439 207.036 282.439 206.553C282.444 206.069 282.31 205.593 282.054 205.183C281.827 204.77 281.488 204.43 281.077 204.201C280.673 203.968 280.215 203.847 279.75 203.85C279.262 203.846 278.782 203.967 278.353 204.201C277.94 204.427 277.6 204.769 277.376 205.186C277.139 205.602 277.019 206.075 277.028 206.555C277.023 207.034 277.143 207.506 277.376 207.924C277.604 208.329 277.935 208.644 278.355 208.873C278.775 209.102 279.238 209.224 279.752 209.224L279.748 209.222ZM292.228 206.483H293.171V209.224C292.805 209.516 292.392 209.742 291.949 209.892C291.496 210.034 291.025 210.105 290.552 210.103C289.827 210.103 289.191 209.955 288.632 209.646C288.083 209.354 287.625 208.917 287.304 208.383C286.998 207.848 286.85 207.241 286.85 206.557C286.84 205.919 286.997 205.289 287.304 204.731C287.618 204.182 288.077 203.732 288.632 203.432C289.226 203.127 289.885 202.97 290.552 202.975C291.11 202.975 291.609 203.072 292.054 203.256C292.502 203.438 292.906 203.713 293.24 204.064L292.612 204.662C292.344 204.4 292.027 204.193 291.68 204.055C291.332 203.916 290.961 203.848 290.587 203.855C290.073 203.855 289.593 203.978 289.155 204.205C288.741 204.432 288.402 204.774 288.178 205.19C287.941 205.606 287.82 206.08 287.829 206.559C287.825 207.039 287.945 207.511 288.178 207.929C288.406 208.333 288.737 208.648 289.157 208.878C289.598 209.114 290.09 209.234 290.59 209.228C291.169 209.243 291.74 209.084 292.23 208.772L292.228 206.483Z" fill="black"/>
<path d="M279.748 210.101H281.003V208.845H279.748V210.101ZM277.828 209.644L278.434 208.544L278.426 208.54L278.418 208.536L277.828 209.644ZM276.5 208.381L275.396 208.98L275.409 209.003L275.423 209.026L276.5 208.381ZM276.046 206.555L277.302 206.567L277.302 206.551L277.302 206.535L276.046 206.555ZM276.5 204.729L275.409 204.107L275.405 204.115L275.4 204.123L276.5 204.729ZM277.828 203.43L277.235 202.322L277.23 202.325L277.828 203.43ZM279.748 202.973L279.748 204.229L279.756 204.229L279.748 202.973ZM281.598 203.43L282.19 202.322L282.19 202.322L281.598 203.43ZM282.926 204.729L281.823 205.33L281.834 205.35L281.846 205.37L282.926 204.729ZM283.415 206.557L282.159 206.542L282.159 206.55V206.557L283.415 206.557ZM282.926 208.385L281.85 207.737L281.841 207.752L281.832 207.769L282.926 208.385ZM281.598 209.651L281.036 208.528L281.018 208.537L281 208.547L281.598 209.651ZM279.748 210.107H278.492V211.347L279.731 211.363L279.748 210.107ZM279.748 209.222L279.765 207.966L279.183 210.343L279.748 209.222ZM281.075 208.871L280.482 207.764L280.461 207.775L280.441 207.787L281.075 208.871ZM282.054 207.922L280.983 207.267L280.975 207.28L280.967 207.294L282.054 207.922ZM282.439 206.553L281.183 206.539L281.183 206.546L281.183 206.554L282.439 206.553ZM282.054 205.183L280.954 205.789L280.971 205.82L280.989 205.849L282.054 205.183ZM281.077 204.201L280.45 205.289L280.458 205.293L280.466 205.298L281.077 204.201ZM279.75 203.85L279.74 205.106L279.749 205.106L279.758 205.106L279.75 203.85ZM278.353 204.201L277.751 203.098L277.749 203.099L278.353 204.201ZM277.376 205.186L278.467 205.807L278.475 205.794L278.482 205.781L277.376 205.186ZM277.028 206.555L278.283 206.567L278.284 206.549L278.283 206.531L277.028 206.555ZM277.376 207.924L276.279 208.536L276.282 208.541L277.376 207.924ZM279.752 209.224V210.48L280.316 208.102L279.752 209.224ZM292.228 206.483V205.227H290.971L290.972 206.484L292.228 206.483ZM293.171 206.483H294.427V205.227H293.171V206.483ZM293.171 209.224L293.955 210.205L294.427 209.828V209.224H293.171ZM291.949 209.892L292.325 211.09L292.337 211.086L292.35 211.081L291.949 209.892ZM290.552 210.103L290.557 208.847H290.552V210.103ZM288.632 209.646L289.238 208.547L289.23 208.542L289.222 208.538L288.632 209.646ZM287.304 208.383L286.214 209.007L286.22 209.018L286.227 209.028L287.304 208.383ZM286.85 206.557H288.106V206.547L288.106 206.537L286.85 206.557ZM287.304 204.731L286.213 204.109L286.209 204.117L286.204 204.125L287.304 204.731ZM288.632 203.432L288.058 202.314L288.046 202.321L288.034 202.327L288.632 203.432ZM290.552 202.975L290.542 204.231H290.552V202.975ZM292.054 203.256L291.573 204.417L291.583 204.421L292.054 203.256ZM293.24 204.064L294.106 204.973L295.016 204.107L294.15 203.198L293.24 204.064ZM292.612 204.662L291.734 205.56L292.601 206.407L293.478 205.571L292.612 204.662ZM290.587 203.855V205.11H290.598L290.608 205.11L290.587 203.855ZM289.155 204.205L288.577 203.09L288.564 203.097L288.551 203.104L289.155 204.205ZM288.178 205.19L289.269 205.812L289.277 205.799L289.284 205.786L288.178 205.19ZM287.829 206.559L289.085 206.572L289.085 206.554L289.085 206.536L287.829 206.559ZM288.178 207.929L287.081 208.54L287.084 208.545L288.178 207.929ZM289.157 208.878L288.555 209.98L288.564 209.984L289.157 208.878ZM290.59 209.228L290.621 207.973L290.598 207.972L290.575 207.972L290.59 209.228ZM292.23 208.772L292.905 209.831L293.487 209.46L293.486 208.771L292.23 208.772ZM279.748 210.101V208.845C279.2 208.845 278.778 208.734 278.434 208.544L277.828 209.644L277.221 210.744C277.994 211.17 278.847 211.357 279.748 211.357V210.101ZM277.828 209.644L278.418 208.536C278.072 208.351 277.781 208.075 277.577 207.735L276.5 208.381L275.423 209.026C275.86 209.756 276.487 210.353 277.237 210.752L277.828 209.644ZM276.5 208.381L277.604 207.781C277.402 207.41 277.298 206.992 277.302 206.567L276.046 206.555L274.791 206.543C274.782 207.393 274.991 208.232 275.396 208.98L276.5 208.381ZM276.046 206.555L277.302 206.535C277.295 206.115 277.398 205.701 277.6 205.335L276.5 204.729L275.4 204.123C274.987 204.873 274.777 205.719 274.791 206.575L276.046 206.555ZM276.5 204.729L277.591 205.351C277.789 205.005 278.078 204.722 278.426 204.534L277.828 203.43L277.23 202.325C276.469 202.737 275.838 203.355 275.409 204.107L276.5 204.729ZM277.828 203.43L278.42 204.537C278.782 204.343 279.212 204.229 279.748 204.229V202.973V201.717C278.834 201.717 277.991 201.918 277.235 202.322L277.828 203.43ZM279.748 202.973L279.756 204.229C280.192 204.226 280.621 204.332 281.007 204.537L281.598 203.43L282.19 202.322C281.436 201.919 280.593 201.711 279.739 201.717L279.748 202.973ZM281.598 203.43L281.006 204.537C281.38 204.737 281.641 204.996 281.823 205.33L282.926 204.729L284.029 204.128C283.598 203.339 282.97 202.738 282.19 202.322L281.598 203.43ZM282.926 204.729L281.846 205.37C282.056 205.724 282.164 206.129 282.159 206.542L283.415 206.557L284.671 206.572C284.681 205.699 284.451 204.839 284.006 204.088L282.926 204.729ZM283.415 206.557L282.159 206.557C282.159 207.022 282.048 207.409 281.85 207.737L282.926 208.385L284.001 209.034C284.452 208.287 284.671 207.446 284.671 206.557L283.415 206.557ZM282.926 208.385L281.832 207.769C281.647 208.097 281.369 208.361 281.036 208.528L281.598 209.651L282.161 210.774C282.943 210.382 283.59 209.764 284.02 209.001L282.926 208.385ZM281.598 209.651L281 208.547C280.62 208.753 280.195 208.857 279.764 208.852L279.748 210.107L279.731 211.363C280.591 211.374 281.44 211.165 282.196 210.755L281.598 209.651ZM279.748 210.107H281.003V210.101H279.748H278.492V210.107H279.748ZM279.748 209.222L279.731 210.477C280.426 210.487 281.11 210.306 281.71 209.954L281.075 208.871L280.441 207.787C280.235 207.907 280.001 207.969 279.765 207.966L279.748 209.222ZM281.075 208.871L281.668 209.978C282.283 209.649 282.793 209.154 283.142 208.55L282.054 207.922L280.967 207.294C280.851 207.494 280.683 207.656 280.482 207.764L281.075 208.871ZM282.054 207.922L283.125 208.577C283.498 207.967 283.695 207.266 283.694 206.551L282.439 206.553L281.183 206.554C281.183 206.806 281.113 207.053 280.983 207.267L282.054 207.922ZM282.439 206.553L283.694 206.567C283.702 205.843 283.503 205.131 283.119 204.517L282.054 205.183L280.989 205.849C281.118 206.055 281.185 206.294 281.183 206.539L282.439 206.553ZM282.054 205.183L283.154 204.578C282.813 203.959 282.306 203.448 281.689 203.104L281.077 204.201L280.466 205.298C280.67 205.412 280.84 205.582 280.954 205.789L282.054 205.183ZM281.077 204.201L281.704 203.113C281.108 202.769 280.43 202.59 279.742 202.594L279.75 203.85L279.758 205.106C280 205.104 280.239 205.167 280.45 205.289L281.077 204.201ZM279.75 203.85L279.76 202.594C279.058 202.589 278.367 202.762 277.751 203.098L278.353 204.201L278.954 205.303C279.196 205.171 279.466 205.104 279.74 205.106L279.75 203.85ZM278.353 204.201L277.749 203.099C277.123 203.443 276.609 203.961 276.271 204.59L277.376 205.186L278.482 205.781C278.591 205.578 278.757 205.412 278.956 205.302L278.353 204.201ZM277.376 205.186L276.285 204.564C275.936 205.177 275.759 205.873 275.772 206.578L277.028 206.555L278.283 206.531C278.278 206.277 278.342 206.027 278.467 205.807L277.376 205.186ZM277.028 206.555L275.772 206.543C275.765 207.24 275.94 207.927 276.279 208.536L277.376 207.924L278.473 207.312C278.346 207.085 278.281 206.828 278.283 206.567L277.028 206.555ZM277.376 207.924L276.282 208.541C276.635 209.167 277.144 209.643 277.753 209.975L278.355 208.873L278.957 207.771C278.726 207.644 278.574 207.491 278.47 207.308L277.376 207.924ZM278.355 208.873L277.753 209.975C278.36 210.306 279.03 210.48 279.752 210.48V209.224V207.968C279.446 207.968 279.191 207.898 278.957 207.771L278.355 208.873ZM279.752 209.224L280.316 208.102L280.312 208.1L279.748 209.222L279.183 210.343L279.188 210.346L279.752 209.224ZM292.228 206.483V207.739H293.171V206.483V205.227H292.228V206.483ZM293.171 206.483H291.915V209.224H293.171H294.427V206.483H293.171ZM293.171 209.224L292.387 208.243C292.135 208.444 291.851 208.599 291.547 208.702L291.949 209.892L292.35 211.081C292.932 210.885 293.475 210.588 293.955 210.205L293.171 209.224ZM291.949 209.892L291.572 208.693C291.243 208.797 290.901 208.848 290.557 208.847L290.552 210.103L290.547 211.359C291.15 211.361 291.749 211.27 292.325 211.09L291.949 209.892ZM290.552 210.103V208.847C290.004 208.847 289.583 208.737 289.238 208.547L288.632 209.646L288.025 210.746C288.798 211.172 289.651 211.359 290.552 211.359V210.103ZM288.632 209.646L289.222 208.538C288.876 208.354 288.585 208.077 288.381 207.737L287.304 208.383L286.227 209.028C286.664 209.758 287.291 210.355 288.041 210.755L288.632 209.646ZM287.304 208.383L288.394 207.759C288.211 207.44 288.106 207.053 288.106 206.557H286.85H285.595C285.595 207.428 285.785 208.256 286.214 209.007L287.304 208.383ZM286.85 206.557L288.106 206.537C288.099 206.117 288.202 205.704 288.404 205.338L287.304 204.731L286.204 204.125C285.791 204.875 285.581 205.721 285.595 206.577L286.85 206.557ZM287.304 204.731L288.395 205.354C288.593 205.007 288.882 204.724 289.23 204.536L288.632 203.432L288.034 202.327C287.273 202.74 286.642 203.357 286.213 204.109L287.304 204.731ZM288.632 203.432L289.205 204.549C289.619 204.337 290.078 204.228 290.542 204.231L290.552 202.975L290.561 201.72C289.691 201.713 288.833 201.917 288.058 202.314L288.632 203.432ZM290.552 202.975V204.231C290.963 204.231 291.295 204.302 291.573 204.417L292.054 203.256L292.534 202.096C291.922 201.842 291.258 201.72 290.552 201.72V202.975ZM292.054 203.256L291.583 204.421C291.865 204.535 292.12 204.708 292.331 204.93L293.24 204.064L294.15 203.198C293.693 202.717 293.139 202.34 292.524 202.092L292.054 203.256ZM293.24 204.064L292.374 203.154L291.746 203.752L292.612 204.662L293.478 205.571L294.106 204.973L293.24 204.064ZM292.612 204.662L293.49 203.764C293.104 203.386 292.647 203.088 292.145 202.888L291.68 204.055L291.215 205.222C291.408 205.299 291.585 205.413 291.734 205.56L292.612 204.662ZM291.68 204.055L292.145 202.888C291.643 202.688 291.107 202.59 290.567 202.599L290.587 203.855L290.608 205.11C290.816 205.107 291.022 205.145 291.215 205.222L291.68 204.055ZM290.587 203.855V202.599C289.865 202.599 289.187 202.774 288.577 203.09L289.155 204.205L289.733 205.32C289.998 205.183 290.281 205.11 290.587 205.11V203.855ZM289.155 204.205L288.551 203.104C287.924 203.447 287.411 203.965 287.072 204.595L288.178 205.19L289.284 205.786C289.393 205.582 289.558 205.416 289.758 205.307L289.155 204.205ZM288.178 205.19L287.087 204.568C286.738 205.181 286.561 205.878 286.574 206.583L287.829 206.559L289.085 206.536C289.08 206.282 289.144 206.031 289.269 205.812L288.178 205.19ZM287.829 206.559L286.574 206.547C286.567 207.244 286.742 207.932 287.081 208.54L288.178 207.929L289.275 207.317C289.148 207.09 289.083 206.833 289.085 206.572L287.829 206.559ZM288.178 207.929L287.084 208.545C287.437 209.171 287.946 209.647 288.555 209.98L289.157 208.878L289.759 207.775C289.527 207.649 289.375 207.495 289.272 207.312L288.178 207.929ZM289.157 208.878L288.564 209.984C289.191 210.321 289.893 210.493 290.605 210.484L290.59 209.228L290.575 207.972C290.288 207.976 290.004 207.907 289.75 207.771L289.157 208.878ZM290.59 209.228L290.558 210.484C291.388 210.505 292.205 210.277 292.905 209.831L292.23 208.772L291.555 207.713C291.276 207.891 290.951 207.981 290.621 207.973L290.59 209.228ZM292.23 208.772L293.486 208.771L293.484 206.482L292.228 206.483L290.972 206.484L290.974 208.773L292.23 208.772Z" fill="black" mask="url(#path-26-inside-9_3_29)"/>
<mask id="path-28-inside-10_3_29" fill="white">
<path d="M302.183 210.031L300.681 207.888C300.488 207.915 300.341 207.924 300.227 207.924H298.515V210.033H297.538V203.043H300.227C301.134 203.043 301.843 203.272 302.357 203.711C302.864 204.133 303.126 204.72 303.126 205.467C303.126 206.029 302.994 206.503 302.741 206.872C302.489 207.241 302.113 207.522 301.624 207.679L303.264 210.033L302.183 210.031ZM300.191 207.045C300.819 207.045 301.291 206.921 301.624 206.658C301.973 206.377 302.147 205.982 302.147 205.464C302.147 204.972 301.973 204.603 301.624 204.34C301.293 204.059 300.822 203.92 300.191 203.92H298.515V207.047L300.191 207.045Z"/>
</mask>
<path d="M302.183 210.031L300.681 207.888C300.488 207.915 300.341 207.924 300.227 207.924H298.515V210.033H297.538V203.043H300.227C301.134 203.043 301.843 203.272 302.357 203.711C302.864 204.133 303.126 204.72 303.126 205.467C303.126 206.029 302.994 206.503 302.741 206.872C302.489 207.241 302.113 207.522 301.624 207.679L303.264 210.033L302.183 210.031ZM300.191 207.045C300.819 207.045 301.291 206.921 301.624 206.658C301.973 206.377 302.147 205.982 302.147 205.464C302.147 204.972 301.973 204.603 301.624 204.34C301.293 204.059 300.822 203.92 300.191 203.92H298.515V207.047L300.191 207.045Z" fill="black"/>
<path d="M302.183 210.031L301.154 210.752L301.528 211.285L302.18 211.287L302.183 210.031ZM300.681 207.888L301.709 207.167L301.268 206.538L300.506 206.645L300.681 207.888ZM298.515 207.924V206.668H297.259V207.924H298.515ZM298.515 210.033V211.289H299.771V210.033H298.515ZM297.538 210.033H296.282V211.289H297.538V210.033ZM297.538 203.043V201.787H296.282V203.043H297.538ZM302.357 203.711L301.542 204.666L301.548 204.671L301.553 204.675L302.357 203.711ZM301.624 207.679L301.239 206.484L299.622 207.003L300.594 208.397L301.624 207.679ZM303.264 210.033L303.262 211.289L305.674 211.294L304.295 209.315L303.264 210.033ZM300.191 207.045L300.191 205.789L300.19 205.789L300.191 207.045ZM301.624 206.658L302.402 207.644L302.412 207.636L301.624 206.658ZM301.624 204.34L300.811 205.297L300.838 205.321L300.867 205.343L301.624 204.34ZM298.515 203.92V202.664H297.259V203.92H298.515ZM298.515 207.047H297.259V208.305L298.517 208.303L298.515 207.047ZM302.183 210.031L303.211 209.31L301.709 207.167L300.681 207.888L299.652 208.609L301.154 210.752L302.183 210.031ZM300.681 207.888L300.506 206.645C300.363 206.665 300.275 206.668 300.227 206.668V207.924V209.18C300.407 209.18 300.614 209.166 300.855 209.132L300.681 207.888ZM300.227 207.924V206.668H298.515V207.924V209.18H300.227V207.924ZM298.515 207.924H297.259V210.033H298.515H299.771V207.924H298.515ZM298.515 210.033V208.777H297.538V210.033V211.289H298.515V210.033ZM297.538 210.033H298.794V203.043H297.538H296.282V210.033H297.538ZM297.538 203.043V204.299H300.227V203.043V201.787H297.538V203.043ZM300.227 203.043V204.299C300.925 204.299 301.315 204.472 301.542 204.666L302.357 203.711L303.172 202.755C302.371 202.072 301.344 201.787 300.227 201.787V203.043ZM302.357 203.711L301.553 204.675C301.741 204.832 301.87 205.048 301.87 205.467H303.126H304.382C304.382 204.392 303.987 203.434 303.161 202.746L302.357 203.711ZM303.126 205.467H301.87C301.87 205.835 301.784 206.047 301.705 206.162L302.741 206.872L303.778 207.582C304.203 206.96 304.382 206.223 304.382 205.467H303.126ZM302.741 206.872L301.705 206.162C301.621 206.286 301.482 206.405 301.239 206.484L301.624 207.679L302.008 208.875C302.744 208.638 303.357 208.196 303.778 207.582L302.741 206.872ZM301.624 207.679L300.594 208.397L302.234 210.751L303.264 210.033L304.295 209.315L302.654 206.961L301.624 207.679ZM303.264 210.033L303.267 208.777L302.185 208.775L302.183 210.031L302.18 211.287L303.262 211.289L303.264 210.033ZM300.191 207.045V208.301C300.96 208.301 301.757 208.153 302.402 207.644L301.624 206.658L300.845 205.673C300.824 205.69 300.678 205.789 300.191 205.789V207.045ZM301.624 206.658L302.412 207.636C303.102 207.08 303.403 206.298 303.403 205.464H302.147H300.891C300.891 205.582 300.872 205.633 300.866 205.645C300.863 205.652 300.861 205.656 300.859 205.659C300.856 205.662 300.85 205.669 300.836 205.681L301.624 206.658ZM302.147 205.464H303.403C303.403 204.626 303.08 203.866 302.38 203.338L301.624 204.34L300.867 205.343C300.882 205.353 300.885 205.359 300.884 205.357C300.882 205.354 300.88 205.351 300.878 205.348C300.874 205.339 300.891 205.367 300.891 205.464H302.147ZM301.624 204.34L302.437 203.383C301.797 202.84 300.991 202.664 300.191 202.664V203.92V205.176C300.652 205.176 300.789 205.279 300.811 205.297L301.624 204.34ZM300.191 203.92V202.664H298.515V203.92V205.176H300.191V203.92ZM298.515 203.92H297.259V207.047H298.515H299.771V203.92H298.515ZM298.515 207.047L298.517 208.303L300.193 208.301L300.191 207.045L300.19 205.789L298.513 205.791L298.515 207.047Z" fill="black" mask="url(#path-28-inside-10_3_29)"/>
<mask id="path-30-inside-11_3_29" fill="white">
<path d="M311.621 208.275H307.953L307.185 210.031H306.172L309.315 203.041H310.294L313.436 210.031H312.388L311.621 208.275ZM311.306 207.501L309.804 204.059L308.302 207.501H311.306Z"/>
</mask>
<path d="M311.621 208.275H307.953L307.185 210.031H306.172L309.315 203.041H310.294L313.436 210.031H312.388L311.621 208.275ZM311.306 207.501L309.804 204.059L308.302 207.501H311.306Z" fill="black"/>
<path d="M311.621 208.275L312.772 207.772L312.443 207.019H311.621V208.275ZM307.953 208.275V207.019H307.132L306.803 207.771L307.953 208.275ZM307.185 210.031V211.287H308.006L308.335 210.535L307.185 210.031ZM306.172 210.031L305.027 209.516L304.231 211.287H306.172V210.031ZM309.315 203.041V201.785H308.502L308.169 202.526L309.315 203.041ZM310.294 203.041L311.439 202.526L311.106 201.785H310.294V203.041ZM313.436 210.031V211.287H315.377L314.581 209.516L313.436 210.031ZM312.388 210.031L311.237 210.533L311.566 211.287H312.388V210.031ZM311.306 207.501V208.757H313.224L312.457 206.999L311.306 207.501ZM309.804 204.059L310.955 203.557L309.804 200.919L308.653 203.557L309.804 204.059ZM308.302 207.501L307.151 206.999L306.384 208.757H308.302V207.501ZM311.621 208.275V207.019H307.953V208.275V209.531H311.621V208.275ZM307.953 208.275L306.803 207.771L306.034 209.527L307.185 210.031L308.335 210.535L309.104 208.779L307.953 208.275ZM307.185 210.031V208.775H306.172V210.031V211.287H307.185V210.031ZM306.172 210.031L307.318 210.546L310.46 203.556L309.315 203.041L308.169 202.526L305.027 209.516L306.172 210.031ZM309.315 203.041V204.296H310.294V203.041V201.785H309.315V203.041ZM310.294 203.041L309.148 203.556L312.291 210.546L313.436 210.031L314.581 209.516L311.439 202.526L310.294 203.041ZM313.436 210.031V208.775H312.388V210.031V211.287H313.436V210.031ZM312.388 210.031L313.539 209.529L312.772 207.772L311.621 208.275L310.47 208.777L311.237 210.533L312.388 210.031ZM311.306 207.501L312.457 206.999L310.955 203.557L309.804 204.059L308.653 204.561L310.155 208.004L311.306 207.501ZM309.804 204.059L308.653 203.557L307.151 206.999L308.302 207.501L309.453 208.004L310.955 204.561L309.804 204.059ZM308.302 207.501V208.757H311.306V207.501V206.246H308.302V207.501Z" fill="black" mask="url(#path-30-inside-11_3_29)"/>
<mask id="path-32-inside-12_3_29" fill="white">
<path d="M323.377 210.031V204.936L320.863 209.188H320.409L317.895 204.972V210.031H316.952V203.041H317.754L320.653 207.96L323.516 203.043H324.318V210.033L323.377 210.031Z"/>
</mask>
<path d="M323.377 210.031V204.936L320.863 209.188H320.409L317.895 204.972V210.031H316.952V203.041H317.754L320.653 207.96L323.516 203.043H324.318V210.033L323.377 210.031Z" fill="black"/>
<path d="M323.377 210.031H322.121V211.284L323.374 211.287L323.377 210.031ZM323.377 204.936H324.633V200.345L322.296 204.297L323.377 204.936ZM320.863 209.188V210.444H321.579L321.944 209.827L320.863 209.188ZM320.409 209.188L319.331 209.831L319.696 210.444H320.409V209.188ZM317.895 204.972L318.973 204.329L316.639 200.415V204.972H317.895ZM317.895 210.031V211.287H319.151V210.031H317.895ZM316.952 210.031H315.696V211.287H316.952V210.031ZM316.952 203.041V201.785H315.696V203.041H316.952ZM317.754 203.041L318.836 202.403L318.472 201.785H317.754V203.041ZM320.653 207.96L319.571 208.598L320.659 210.445L321.738 208.592L320.653 207.96ZM323.516 203.043V201.787H322.794L322.431 202.411L323.516 203.043ZM324.318 203.043H325.574V201.787H324.318V203.043ZM324.318 210.033L324.315 211.289L325.574 211.292V210.033H324.318ZM323.377 210.031H324.633V204.936H323.377H322.121V210.031H323.377ZM323.377 204.936L322.296 204.297L319.782 208.549L320.863 209.188L321.944 209.827L324.458 205.575L323.377 204.936ZM320.863 209.188V207.932H320.409V209.188V210.444H320.863V209.188ZM320.409 209.188L321.488 208.545L318.973 204.329L317.895 204.972L316.816 205.615L319.331 209.831L320.409 209.188ZM317.895 204.972H316.639V210.031H317.895H319.151V204.972H317.895ZM317.895 210.031V208.775H316.952V210.031V211.287H317.895V210.031ZM316.952 210.031H318.207V203.041H316.952H315.696V210.031H316.952ZM316.952 203.041V204.296H317.754V203.041V201.785H316.952V203.041ZM317.754 203.041L316.672 203.678L319.571 208.598L320.653 207.96L321.735 207.323L318.836 202.403L317.754 203.041ZM320.653 207.96L321.738 208.592L324.601 203.675L323.516 203.043L322.431 202.411L319.568 207.328L320.653 207.96ZM323.516 203.043V204.299H324.318V203.043V201.787H323.516V203.043ZM324.318 203.043H323.062V210.033H324.318H325.574V203.043H324.318ZM324.318 210.033L324.321 208.777L323.38 208.775L323.377 210.031L323.374 211.287L324.315 211.289L324.318 210.033Z" fill="black" mask="url(#path-32-inside-12_3_29)"/>
</svg>
