<svg width="221" height="221" viewBox="0 0 221 221" fill="none" xmlns="http://www.w3.org/2000/svg">
<circle cx="110.5" cy="110.5" r="110.5" fill="black"/>
<g clip-path="url(#clip0_0_1)">
<path d="M6.2261 125.171H97.3758H6.2261Z" fill="white"/>
<path d="M6.2261 125.171H97.3758" stroke="white" stroke-width="5.2884"/>
<path d="M15.5325 113.509C13.8633 113.509 12.2412 113.299 10.6695 112.891C9.09771 112.464 7.82143 111.915 6.83908 111.235L8.75506 106.912C9.66983 107.524 10.7323 108.018 11.9473 108.396C13.1185 108.751 14.3345 108.934 15.5577 108.94C17.7801 108.94 18.8977 108.383 18.8977 107.26C18.8977 106.667 18.5786 106.236 17.9404 105.951C17.3023 105.655 16.276 105.352 14.8708 105.037C13.3305 104.71 12.0338 104.357 10.9901 103.975C9.95903 103.579 9.06156 102.961 8.3134 102.121C7.57624 101.269 7.20845 100.12 7.20845 98.687C7.20845 97.4205 7.54009 96.2836 8.21595 95.278C8.90438 94.2581 9.92288 93.4501 11.2856 92.8571C12.6609 92.2642 14.3364 91.9685 16.32 91.9685C17.6764 91.9685 19.0092 92.1298 20.3232 92.4381C21.6309 92.7354 22.7846 93.1797 23.7858 93.7727L21.9925 98.121C20.0278 97.0521 18.1243 96.5145 16.2948 96.5145C15.1286 96.5145 14.2814 96.6868 13.7407 97.0331C13.2126 97.3794 12.9548 97.8363 12.9548 98.3913C12.9548 98.9353 13.2613 99.348 13.8884 99.6263C14.5266 99.9109 15.5404 100.194 16.9345 100.491C18.5063 100.825 19.8077 101.184 20.8388 101.579C21.8699 101.962 22.761 102.567 23.5155 103.407C24.2699 104.247 24.6456 105.383 24.6456 106.816C24.6547 108.024 24.2947 109.206 23.6145 110.201C22.9277 111.209 21.895 112.017 20.5197 112.622C19.1444 113.215 17.4799 113.512 15.5341 113.512L15.5325 113.509Z" fill="#DB0C0C"/>
<path d="M34.2475 97.0046H27.9353V92.3607H46.3784V97.0062H40.0913V113.09H34.2459L34.2475 97.0046Z" fill="#DB0C0C"/>
<path d="M67.6412 108.568V113.089H51.1141V92.3607H67.2734V96.9066H56.8841V100.39H66.0207V104.764H56.8841V108.568H67.6412ZM92.0287 113.089L91.98 102.12L86.6753 111.039H84.096L78.8164 102.417V113.09H73.4379V92.3607H78.227L85.4713 104.319L92.5191 92.3622H97.3318L97.3806 113.09L92.0287 113.089Z" fill="#DB0C0C"/>
<path d="M109.077 92.9886V103.676C109.077 105.397 109.412 106.803 110.187 107.788C110.985 108.803 112.165 109.27 113.609 109.27C115.046 109.27 116.22 108.802 117.013 107.787C117.784 106.802 118.118 105.396 118.118 103.676V92.9886H122.608V103.85C122.608 106.628 121.889 108.734 120.522 110.248L120.241 110.543L120.239 110.545C118.719 112.059 116.555 112.862 113.669 112.881H113.56C110.798 112.881 108.686 112.174 107.154 110.822L106.855 110.542C105.319 109.013 104.512 106.815 104.512 103.848V92.9886H109.077ZM134.927 92.9886V109.073H144.751V112.462H130.363V92.9886H134.927ZM162.18 92.9886L170.74 112.46H166.084L164.622 108.826L164.464 108.433H154.896L154.738 108.826L153.276 112.46H148.718L157.254 92.9886H162.18ZM159.085 97.886L156.457 104.508L156.115 105.368L157.04 105.367L162.32 105.366L163.248 105.366L162.902 104.505L160.251 97.8841L159.666 96.4221L159.085 97.886Z" fill="white" stroke="white" stroke-width="1.25585"/>
<path d="M191.788 92.9886V96.3782H185.501V112.462H180.911L180.913 97.0042V96.3763H174.601V92.9886H191.788Z" fill="white" stroke="white" stroke-width="1.25585"/>
<path d="M212.681 92.9886V96.2786H202.293V101.018H211.43V104.136H202.295V109.196H213.05V112.46H197.778V92.9886H212.681Z" fill="white" stroke="white" stroke-width="1.25585"/>
<mask id="path-10-inside-1_0_1" fill="white">
<path d="M107.264 127.909L106.208 126.402C106.072 126.421 105.969 126.428 105.889 126.428H104.685V127.911H103.998V122.995H105.889C106.527 122.995 107.025 123.156 107.386 123.464C107.743 123.762 107.927 124.174 107.927 124.699C107.927 125.095 107.834 125.428 107.657 125.688C107.479 125.947 107.215 126.145 106.871 126.255L108.025 127.911L107.264 127.909ZM105.863 125.809C106.305 125.809 106.637 125.722 106.871 125.537C107.116 125.34 107.239 125.061 107.239 124.698C107.239 124.351 107.116 124.092 106.871 123.907C106.638 123.709 106.307 123.611 105.863 123.611H104.685V125.811L105.863 125.809Z"/>
</mask>
<path d="M107.264 127.909L106.208 126.402C106.072 126.421 105.969 126.428 105.889 126.428H104.685V127.911H103.998V122.995H105.889C106.527 122.995 107.025 123.156 107.386 123.464C107.743 123.762 107.927 124.174 107.927 124.699C107.927 125.095 107.834 125.428 107.657 125.688C107.479 125.947 107.215 126.145 106.871 126.255L108.025 127.911L107.264 127.909ZM105.863 125.809C106.305 125.809 106.637 125.722 106.871 125.537C107.116 125.34 107.239 125.061 107.239 124.698C107.239 124.351 107.116 124.092 106.871 123.907C106.638 123.709 106.307 123.611 105.863 123.611H104.685V125.811L105.863 125.809Z" fill="white"/>
<path d="M107.264 127.909L106.235 128.63L106.609 129.164L107.261 129.165L107.264 127.909ZM106.208 126.402L107.236 125.681L106.795 125.052L106.033 125.159L106.208 126.402ZM104.685 126.428V125.172H103.429V126.428H104.685ZM104.685 127.911V129.167H105.94V127.911H104.685ZM103.998 127.911H102.742V129.167H103.998V127.911ZM103.998 122.995V121.739H102.742V122.995H103.998ZM107.386 123.464L106.571 124.42L106.577 124.425L106.583 124.429L107.386 123.464ZM106.871 126.255L106.486 125.06L104.869 125.58L105.841 126.973L106.871 126.255ZM108.025 127.911L108.022 129.167L110.434 129.172L109.055 127.193L108.025 127.911ZM105.863 125.809V124.553L105.862 124.553L105.863 125.809ZM106.871 125.537L107.649 126.523L107.659 126.515L106.871 125.537ZM106.871 123.907L106.058 124.864L106.085 124.888L106.114 124.91L106.871 123.907ZM104.685 123.611V122.356H103.429V123.611H104.685ZM104.685 125.811H103.429V127.068L104.686 127.067L104.685 125.811ZM107.264 127.909L108.292 127.188L107.236 125.681L106.208 126.402L105.179 127.123L106.235 128.63L107.264 127.909ZM106.208 126.402L106.033 125.159C105.947 125.171 105.902 125.172 105.889 125.172V126.428V127.683C106.035 127.683 106.198 127.672 106.382 127.646L106.208 126.402ZM105.889 126.428V125.172H104.685V126.428V127.683H105.889V126.428ZM104.685 126.428H103.429V127.911H104.685H105.94V126.428H104.685ZM104.685 127.911V126.655H103.998V127.911V129.167H104.685V127.911ZM103.998 127.911H105.254V122.995H103.998H102.742V127.911H103.998ZM103.998 122.995V124.251H105.889V122.995V121.739H103.998V122.995ZM105.889 122.995V124.251C106.317 124.251 106.497 124.356 106.571 124.42L107.386 123.464L108.201 122.509C107.553 121.956 106.736 121.739 105.889 121.739V122.995ZM107.386 123.464L106.583 124.429C106.62 124.461 106.671 124.502 106.671 124.699H107.927H109.183C109.183 123.847 108.866 123.063 108.19 122.5L107.386 123.464ZM107.927 124.699H106.671C106.671 124.901 106.625 124.972 106.621 124.978L107.657 125.688L108.693 126.397C109.044 125.885 109.183 125.289 109.183 124.699H107.927ZM107.657 125.688L106.621 124.978C106.613 124.989 106.603 125.001 106.587 125.012C106.57 125.024 106.539 125.043 106.486 125.06L106.871 126.255L107.255 127.451C107.846 127.261 108.347 126.902 108.693 126.397L107.657 125.688ZM106.871 126.255L105.841 126.973L106.994 128.629L108.025 127.911L109.055 127.193L107.901 125.537L106.871 126.255ZM108.025 127.911L108.027 126.655L107.266 126.653L107.264 127.909L107.261 129.165L108.022 129.167L108.025 127.911ZM105.863 125.809V127.065C106.446 127.065 107.103 126.954 107.649 126.523L106.871 125.537L106.092 124.552C106.13 124.522 106.15 124.522 106.12 124.53C106.085 124.539 106.006 124.553 105.863 124.553V125.809ZM106.871 125.537L107.659 126.515C108.246 126.042 108.495 125.378 108.495 124.698H107.239H105.983C105.983 124.738 105.976 124.722 105.997 124.675C106.007 124.653 106.02 124.629 106.038 124.607C106.055 124.584 106.071 124.569 106.083 124.56L106.871 125.537ZM107.239 124.698H108.495C108.495 124.006 108.224 123.355 107.627 122.905L106.871 123.907L106.114 124.91C106.086 124.888 106.041 124.842 106.009 124.773C105.979 124.71 105.983 124.674 105.983 124.698H107.239ZM106.871 123.907L107.684 122.95C107.143 122.49 106.476 122.356 105.863 122.356V123.611V124.867C105.996 124.867 106.066 124.882 106.092 124.89C106.113 124.896 106.092 124.893 106.058 124.864L106.871 123.907ZM105.863 123.611V122.356H104.685V123.611V124.867H105.863V123.611ZM104.685 123.611H103.429V125.811H104.685H105.94V123.611H104.685ZM104.685 125.811L104.686 127.067L105.865 127.065L105.863 125.809L105.862 124.553L104.683 124.555L104.685 125.811Z" fill="white" mask="url(#path-10-inside-1_0_1)"/>
<mask id="path-12-inside-2_0_1" fill="white">
<path d="M114.343 127.291V127.909H110.807V122.993H114.246V123.611H111.495V125.118H113.952V125.711H111.497V127.292L114.343 127.291Z"/>
</mask>
<path d="M114.343 127.291V127.909H110.807V122.993H114.246V123.611H111.495V125.118H113.952V125.711H111.497V127.292L114.343 127.291Z" fill="white"/>
<path d="M114.343 127.291H115.599V126.034L114.342 126.035L114.343 127.291ZM114.343 127.909V129.165H115.599V127.909H114.343ZM110.807 127.909H109.551V129.165H110.807V127.909ZM110.807 122.993V121.737H109.551V122.993H110.807ZM114.246 122.993H115.501V121.737H114.246V122.993ZM114.246 123.611V124.867H115.501V123.611H114.246ZM111.495 123.611V122.356H110.239V123.611H111.495ZM111.495 125.118H110.239V126.374H111.495V125.118ZM113.952 125.118H115.208V123.862H113.952V125.118ZM113.952 125.711V126.967H115.208V125.711H113.952ZM111.497 125.711V124.455H110.241V125.711H111.497ZM111.497 127.292H110.241V128.549L111.497 128.548L111.497 127.292ZM114.343 127.291H113.087V127.909H114.343H115.599V127.291H114.343ZM114.343 127.909V126.653H110.807V127.909V129.165H114.343V127.909ZM110.807 127.909H112.062V122.993H110.807H109.551V127.909H110.807ZM110.807 122.993V124.249H114.246V122.993V121.737H110.807V122.993ZM114.246 122.993H112.99V123.611H114.246H115.501V122.993H114.246ZM114.246 123.611V122.356H111.495V123.611V124.867H114.246V123.611ZM111.495 123.611H110.239V125.118H111.495H112.751V123.611H111.495ZM111.495 125.118V126.374H113.952V125.118V123.862H111.495V125.118ZM113.952 125.118H112.696V125.711H113.952H115.208V125.118H113.952ZM113.952 125.711V124.455H111.497V125.711V126.967H113.952V125.711ZM111.497 125.711H110.241V127.292H111.497H112.752V125.711H111.497ZM111.497 127.292L111.497 128.548L114.344 128.547L114.343 127.291L114.342 126.035L111.496 126.037L111.497 127.292Z" fill="white" mask="url(#path-12-inside-2_0_1)"/>
<mask id="path-14-inside-3_0_1" fill="white">
<path d="M118.642 127.958C118.261 127.958 117.905 127.903 117.562 127.786C117.23 127.675 116.973 127.527 116.776 127.342L117.021 126.798C117.218 126.964 117.45 127.106 117.733 127.218C118.026 127.317 118.333 127.367 118.642 127.367C119.035 127.367 119.33 127.305 119.527 127.169C119.736 127.021 119.846 126.836 119.846 126.602C119.846 126.44 119.784 126.306 119.674 126.206C119.577 126.096 119.442 126.009 119.282 125.96L118.595 125.762C118.233 125.681 117.938 125.601 117.711 125.515C117.479 125.417 117.282 125.281 117.122 125.095C116.962 124.908 116.877 124.668 116.877 124.353C116.877 124.094 116.938 123.853 117.073 123.637C117.221 123.426 117.43 123.26 117.711 123.143C117.988 123.014 118.337 122.946 118.768 122.946C119.044 122.946 119.321 122.988 119.602 123.069C119.879 123.137 120.118 123.241 120.314 123.39L120.093 123.934C119.896 123.804 119.674 123.705 119.429 123.638C119.197 123.577 118.975 123.54 118.766 123.54C118.354 123.54 118.054 123.615 117.858 123.763C117.661 123.912 117.564 124.103 117.564 124.331C117.561 124.409 117.575 124.487 117.604 124.56C117.634 124.632 117.678 124.698 117.735 124.751C117.858 124.859 118 124.943 118.153 124.998L118.816 125.171C119.19 125.257 119.486 125.343 119.701 125.442C119.929 125.529 120.126 125.659 120.291 125.838C120.456 126.016 120.536 126.269 120.536 126.579C120.536 126.828 120.458 127.07 120.314 127.272C120.179 127.489 119.97 127.661 119.676 127.791C119.393 127.908 119.05 127.963 118.645 127.963L118.642 127.958Z"/>
</mask>
<path d="M118.642 127.958C118.261 127.958 117.905 127.903 117.562 127.786C117.23 127.675 116.973 127.527 116.776 127.342L117.021 126.798C117.218 126.964 117.45 127.106 117.733 127.218C118.026 127.317 118.333 127.367 118.642 127.367C119.035 127.367 119.33 127.305 119.527 127.169C119.736 127.021 119.846 126.836 119.846 126.602C119.846 126.44 119.784 126.306 119.674 126.206C119.577 126.096 119.442 126.009 119.282 125.96L118.595 125.762C118.233 125.681 117.938 125.601 117.711 125.515C117.479 125.417 117.282 125.281 117.122 125.095C116.962 124.908 116.877 124.668 116.877 124.353C116.877 124.094 116.938 123.853 117.073 123.637C117.221 123.426 117.43 123.26 117.711 123.143C117.988 123.014 118.337 122.946 118.768 122.946C119.044 122.946 119.321 122.988 119.602 123.069C119.879 123.137 120.118 123.241 120.314 123.39L120.093 123.934C119.896 123.804 119.674 123.705 119.429 123.638C119.197 123.577 118.975 123.54 118.766 123.54C118.354 123.54 118.054 123.615 117.858 123.763C117.661 123.912 117.564 124.103 117.564 124.331C117.561 124.409 117.575 124.487 117.604 124.56C117.634 124.632 117.678 124.698 117.735 124.751C117.858 124.859 118 124.943 118.153 124.998L118.816 125.171C119.19 125.257 119.486 125.343 119.701 125.442C119.929 125.529 120.126 125.659 120.291 125.838C120.456 126.016 120.536 126.269 120.536 126.579C120.536 126.828 120.458 127.07 120.314 127.272C120.179 127.489 119.97 127.661 119.676 127.791C119.393 127.908 119.05 127.963 118.645 127.963L118.642 127.958Z" fill="white"/>
<path d="M118.642 127.958L119.689 127.264L119.316 126.702H118.642V127.958ZM117.562 127.786L117.968 126.597L117.96 126.595L117.562 127.786ZM116.776 127.342L115.631 126.825L115.263 127.642L115.915 128.256L116.776 127.342ZM117.021 126.798L117.832 125.838L116.56 124.764L115.876 126.281L117.021 126.798ZM117.733 127.218L117.27 128.385L117.301 128.398L117.332 128.408L117.733 127.218ZM118.642 127.367V126.111L118.64 126.111L118.642 127.367ZM119.527 127.169L120.241 128.202L120.248 128.197L120.254 128.193L119.527 127.169ZM119.674 126.206L118.732 127.036L118.779 127.089L118.832 127.137L119.674 126.206ZM119.282 125.96L119.649 124.759L119.639 124.756L119.629 124.753L119.282 125.96ZM118.595 125.762L118.942 124.555L118.905 124.544L118.868 124.536L118.595 125.762ZM117.711 125.515L117.224 126.672L117.246 126.682L117.268 126.69L117.711 125.515ZM117.073 123.637L116.046 122.915L116.026 122.943L116.008 122.972L117.073 123.637ZM117.711 123.143L118.194 124.303L118.219 124.292L118.244 124.281L117.711 123.143ZM119.602 123.069L119.256 124.276L119.279 124.283L119.302 124.289L119.602 123.069ZM120.314 123.39L121.477 123.864L121.841 122.971L121.072 122.389L120.314 123.39ZM120.093 123.934L119.401 124.982L120.678 125.825L121.256 124.408L120.093 123.934ZM119.429 123.638L119.758 122.426L119.751 122.424L119.429 123.638ZM117.564 124.331L118.819 124.374L118.819 124.352V124.331H117.564ZM117.735 124.751L116.868 125.66L116.888 125.679L116.909 125.697L117.735 124.751ZM118.153 124.998L117.725 126.179L117.78 126.199L117.837 126.214L118.153 124.998ZM118.816 125.171L118.5 126.386L118.516 126.39L118.532 126.394L118.816 125.171ZM119.701 125.442L119.174 126.582L119.213 126.6L119.253 126.616L119.701 125.442ZM120.536 126.579H119.28L119.28 126.58L120.536 126.579ZM120.314 127.272L119.292 126.542L119.27 126.574L119.249 126.607L120.314 127.272ZM119.676 127.791L120.156 128.951L120.17 128.945L120.183 128.94L119.676 127.791ZM118.645 127.963L117.598 128.657L117.971 129.219H118.645V127.963ZM118.642 127.958V126.702C118.387 126.702 118.168 126.666 117.968 126.597L117.562 127.786L117.156 128.974C117.641 129.14 118.136 129.214 118.642 129.214V127.958ZM117.562 127.786L117.96 126.595C117.763 126.529 117.675 126.463 117.637 126.427L116.776 127.342L115.915 128.256C116.27 128.59 116.698 128.821 117.164 128.977L117.562 127.786ZM116.776 127.342L117.921 127.858L118.166 127.314L117.021 126.798L115.876 126.281L115.631 126.825L116.776 127.342ZM117.021 126.798L116.211 127.757C116.514 128.013 116.865 128.225 117.27 128.385L117.733 127.218L118.197 126.051C118.036 125.987 117.922 125.914 117.832 125.838L117.021 126.798ZM117.733 127.218L117.332 128.408C117.754 128.551 118.197 128.623 118.643 128.623L118.642 127.367L118.64 126.111C118.469 126.111 118.298 126.083 118.135 126.028L117.733 127.218ZM118.642 127.367V128.623C119.118 128.623 119.728 128.557 120.241 128.202L119.527 127.169L118.812 126.137C118.882 126.088 118.922 126.085 118.888 126.092C118.854 126.1 118.778 126.111 118.642 126.111V127.367ZM119.527 127.169L120.254 128.193C120.728 127.856 121.102 127.318 121.102 126.602H119.846H118.59C118.59 126.511 118.614 126.4 118.674 126.295C118.729 126.198 118.789 126.153 118.799 126.146L119.527 127.169ZM119.846 126.602H121.102C121.102 126.092 120.895 125.617 120.517 125.275L119.674 126.206L118.832 127.137C118.762 127.074 118.697 126.99 118.652 126.886C118.606 126.782 118.59 126.683 118.59 126.602H119.846ZM119.674 126.206L120.617 125.376C120.355 125.079 120.016 124.871 119.649 124.759L119.282 125.96L118.914 127.161C118.868 127.146 118.799 127.112 118.732 127.036L119.674 126.206ZM119.282 125.96L119.629 124.753L118.942 124.555L118.595 125.762L118.247 126.969L118.934 127.166L119.282 125.96ZM118.595 125.762L118.868 124.536C118.528 124.46 118.299 124.395 118.155 124.34L117.711 125.515L117.268 126.69C117.576 126.806 117.938 126.902 118.321 126.988L118.595 125.762ZM117.711 125.515L118.199 124.358C118.123 124.326 118.093 124.298 118.074 124.276L117.122 125.095L116.169 125.913C116.471 126.264 116.834 126.508 117.224 126.672L117.711 125.515ZM117.122 125.095L118.074 124.276C118.086 124.29 118.098 124.306 118.108 124.324C118.118 124.342 118.125 124.359 118.13 124.372C118.139 124.398 118.133 124.398 118.133 124.353H116.877H115.621C115.621 124.911 115.779 125.459 116.169 125.913L117.122 125.095ZM116.877 124.353H118.133C118.133 124.323 118.136 124.309 118.137 124.306C118.137 124.305 118.137 124.304 118.137 124.304C118.137 124.304 118.137 124.304 118.137 124.304C118.138 124.304 118.138 124.304 118.138 124.304C118.138 124.304 118.138 124.304 118.138 124.303C118.138 124.303 118.138 124.303 118.138 124.303C118.138 124.303 118.138 124.302 118.139 124.302L117.073 123.637L116.008 122.972C115.734 123.411 115.621 123.887 115.621 124.353H116.877ZM117.073 123.637L118.101 124.359C118.103 124.356 118.105 124.353 118.114 124.346C118.123 124.339 118.146 124.323 118.194 124.303L117.711 123.143L117.229 121.984C116.753 122.182 116.345 122.489 116.046 122.915L117.073 123.637ZM117.711 123.143L118.244 124.281C118.308 124.251 118.462 124.202 118.768 124.202V122.946V121.69C118.212 121.69 117.668 121.777 117.178 122.006L117.711 123.143ZM118.768 122.946V124.202C118.913 124.202 119.073 124.224 119.256 124.276L119.602 123.069L119.948 121.862C119.569 121.753 119.176 121.69 118.768 121.69V122.946ZM119.602 123.069L119.302 124.289C119.455 124.326 119.527 124.369 119.556 124.392L120.314 123.39L121.072 122.389C120.709 122.114 120.303 121.948 119.902 121.85L119.602 123.069ZM120.314 123.39L119.151 122.916L118.93 123.46L120.093 123.934L121.256 124.408L121.477 123.864L120.314 123.39ZM120.093 123.934L120.784 122.886C120.471 122.679 120.126 122.526 119.758 122.426L119.429 123.638L119.101 124.851C119.223 124.884 119.321 124.93 119.401 124.982L120.093 123.934ZM119.429 123.638L119.751 122.424C119.451 122.345 119.116 122.284 118.766 122.284V123.54V124.796C118.834 124.796 118.942 124.809 119.107 124.852L119.429 123.638ZM118.766 123.54V122.284C118.244 122.284 117.616 122.371 117.1 122.762L117.858 123.763L118.615 124.765C118.547 124.816 118.505 124.822 118.531 124.816C118.558 124.809 118.631 124.796 118.766 124.796V123.54ZM117.858 123.763L117.1 122.762C116.612 123.131 116.308 123.683 116.308 124.331H117.564H118.819C118.819 124.402 118.803 124.497 118.753 124.593C118.705 124.687 118.646 124.742 118.615 124.765L117.858 123.763ZM117.564 124.331L116.308 124.288C116.3 124.543 116.345 124.797 116.441 125.033L117.604 124.56L118.767 124.086C118.805 124.177 118.822 124.275 118.819 124.374L117.564 124.331ZM117.604 124.56L116.441 125.033C116.538 125.27 116.683 125.484 116.868 125.66L117.735 124.751L118.602 123.843C118.674 123.912 118.73 123.995 118.767 124.086L117.604 124.56ZM117.735 124.751L116.909 125.697C117.149 125.907 117.425 126.07 117.725 126.179L118.153 124.998L118.581 123.817C118.574 123.815 118.567 123.811 118.561 123.806L117.735 124.751ZM118.153 124.998L117.837 126.214L118.5 126.386L118.816 125.171L119.132 123.955L118.469 123.783L118.153 124.998ZM118.816 125.171L118.532 126.394C118.894 126.478 119.083 126.54 119.174 126.582L119.701 125.442L120.228 124.303C119.889 124.146 119.487 124.037 119.101 123.947L118.816 125.171ZM119.701 125.442L119.253 126.616C119.31 126.637 119.341 126.661 119.368 126.69L120.291 125.838L121.213 124.986C120.91 124.657 120.548 124.422 120.149 124.269L119.701 125.442ZM120.291 125.838L119.368 126.69C119.315 126.633 119.291 126.578 119.281 126.55C119.273 126.525 119.28 126.53 119.28 126.579H120.536H121.792C121.792 126.063 121.657 125.466 121.213 124.986L120.291 125.838ZM120.536 126.579L119.28 126.58C119.28 126.567 119.284 126.554 119.292 126.542L120.314 127.272L121.336 128.002C121.633 127.587 121.792 127.089 121.792 126.579L120.536 126.579ZM120.314 127.272L119.249 126.607C119.258 126.593 119.265 126.587 119.261 126.591C119.255 126.596 119.229 126.615 119.169 126.642L119.676 127.791L120.183 128.94C120.657 128.73 121.085 128.41 121.38 127.937L120.314 127.272ZM119.676 127.791L119.196 126.63C119.112 126.665 118.944 126.707 118.645 126.707V127.963V129.219C119.156 129.219 119.675 129.15 120.156 128.951L119.676 127.791ZM118.645 127.963L119.692 127.269L119.689 127.264L118.642 127.958L117.595 128.652L117.598 128.657L118.645 127.963Z" fill="white" mask="url(#path-14-inside-3_0_1)"/>
<mask id="path-16-inside-4_0_1" fill="white">
<path d="M126.823 127.291V127.909H123.286V122.993H126.725V123.611H123.975V125.118H126.431V125.711H123.976V127.292L126.823 127.291Z"/>
</mask>
<path d="M126.823 127.291V127.909H123.286V122.993H126.725V123.611H123.975V125.118H126.431V125.711H123.976V127.292L126.823 127.291Z" fill="white"/>
<path d="M126.823 127.291H128.079V126.034L126.822 126.035L126.823 127.291ZM126.823 127.909V129.165H128.079V127.909H126.823ZM123.286 127.909H122.031V129.165H123.286V127.909ZM123.286 122.993V121.737H122.031V122.993H123.286ZM126.725 122.993H127.981V121.737H126.725V122.993ZM126.725 123.611V124.867H127.981V123.611H126.725ZM123.975 123.611V122.356H122.719V123.611H123.975ZM123.975 125.118H122.719V126.374H123.975V125.118ZM126.431 125.118H127.687V123.862H126.431V125.118ZM126.431 125.711V126.967H127.687V125.711H126.431ZM123.976 125.711V124.455H122.721V125.711H123.976ZM123.976 127.292H122.721V128.549L123.977 128.548L123.976 127.292ZM126.823 127.291H125.567V127.909H126.823H128.079V127.291H126.823ZM126.823 127.909V126.653H123.286V127.909V129.165H126.823V127.909ZM123.286 127.909H124.542V122.993H123.286H122.031V127.909H123.286ZM123.286 122.993V124.249H126.725V122.993V121.737H123.286V122.993ZM126.725 122.993H125.47V123.611H126.725H127.981V122.993H126.725ZM126.725 123.611V122.356H123.975V123.611V124.867H126.725V123.611ZM123.975 123.611H122.719V125.118H123.975H125.231V123.611H123.975ZM123.975 125.118V126.374H126.431V125.118V123.862H123.975V125.118ZM126.431 125.118H125.176V125.711H126.431H127.687V125.118H126.431ZM126.431 125.711V124.455H123.976V125.711V126.967H126.431V125.711ZM123.976 125.711H122.721V127.292H123.976H125.232V125.711H123.976ZM123.976 127.292L123.977 128.548L126.824 128.547L126.823 127.291L126.822 126.035L123.976 126.037L123.976 127.292Z" fill="white" mask="url(#path-16-inside-4_0_1)"/>
<mask id="path-18-inside-5_0_1" fill="white">
<path d="M132.792 126.674H130.213L129.672 127.909H128.96L131.17 122.993H131.859L134.069 127.909H133.331L132.792 126.674ZM132.571 126.13L131.515 123.709L130.458 126.13H132.571Z"/>
</mask>
<path d="M132.792 126.674H130.213L129.672 127.909H128.96L131.17 122.993H131.859L134.069 127.909H133.331L132.792 126.674ZM132.571 126.13L131.515 123.709L130.458 126.13H132.571Z" fill="white"/>
<path d="M132.792 126.674L133.943 126.172L133.614 125.418H132.792V126.674ZM130.213 126.674V125.418H129.392L129.063 126.171L130.213 126.674ZM129.672 127.909V129.165H130.494L130.823 128.413L129.672 127.909ZM128.96 127.909L127.815 127.394L127.019 129.165H128.96V127.909ZM131.17 122.993V121.737H130.358L130.025 122.478L131.17 122.993ZM131.859 122.993L133.004 122.478L132.671 121.737H131.859V122.993ZM134.069 127.909V129.165H136.01L135.214 127.394L134.069 127.909ZM133.331 127.909L132.181 128.412L132.509 129.165H133.331V127.909ZM132.571 126.13V127.386H134.489L133.722 125.628L132.571 126.13ZM131.515 123.709L132.666 123.207L131.515 120.569L130.363 123.207L131.515 123.709ZM130.458 126.13L129.307 125.628L128.54 127.386H130.458V126.13ZM132.792 126.674V125.418H130.213V126.674V127.93H132.792V126.674ZM130.213 126.674L129.063 126.171L128.522 127.405L129.672 127.909L130.823 128.413L131.364 127.178L130.213 126.674ZM129.672 127.909V126.653H128.96V127.909V129.165H129.672V127.909ZM128.96 127.909L130.106 128.424L132.316 123.508L131.17 122.993L130.025 122.478L127.815 127.394L128.96 127.909ZM131.17 122.993V124.249H131.859V122.993V121.737H131.17V122.993ZM131.859 122.993L130.713 123.508L132.923 128.424L134.069 127.909L135.214 127.394L133.004 122.478L131.859 122.993ZM134.069 127.909V126.653H133.331V127.909V129.165H134.069V127.909ZM133.331 127.909L134.482 127.407L133.943 126.172L132.792 126.674L131.641 127.177L132.181 128.412L133.331 127.909ZM132.571 126.13L133.722 125.628L132.666 123.207L131.515 123.709L130.363 124.212L131.42 126.633L132.571 126.13ZM131.515 123.709L130.363 123.207L129.307 125.628L130.458 126.13L131.609 126.633L132.666 124.212L131.515 123.709ZM130.458 126.13V127.386H132.571V126.13V124.874H130.458V126.13Z" fill="white" mask="url(#path-18-inside-5_0_1)"/>
<mask id="path-20-inside-6_0_1" fill="white">
<path d="M139.807 127.909L138.751 126.402C138.616 126.421 138.512 126.428 138.432 126.428H137.228V127.911H136.541V122.995H138.432C139.07 122.995 139.568 123.156 139.93 123.464C140.287 123.762 140.47 124.174 140.47 124.699C140.47 125.095 140.378 125.428 140.2 125.688C140.022 125.947 139.758 126.145 139.414 126.255L140.568 127.911L139.807 127.909ZM138.407 125.809C138.848 125.809 139.18 125.722 139.414 125.537C139.659 125.34 139.782 125.061 139.782 124.698C139.782 124.351 139.659 124.092 139.414 123.907C139.182 123.709 138.85 123.611 138.407 123.611H137.228V125.811L138.407 125.809Z"/>
</mask>
<path d="M139.807 127.909L138.751 126.402C138.616 126.421 138.512 126.428 138.432 126.428H137.228V127.911H136.541V122.995H138.432C139.07 122.995 139.568 123.156 139.93 123.464C140.287 123.762 140.47 124.174 140.47 124.699C140.47 125.095 140.378 125.428 140.2 125.688C140.022 125.947 139.758 126.145 139.414 126.255L140.568 127.911L139.807 127.909ZM138.407 125.809C138.848 125.809 139.18 125.722 139.414 125.537C139.659 125.34 139.782 125.061 139.782 124.698C139.782 124.351 139.659 124.092 139.414 123.907C139.182 123.709 138.85 123.611 138.407 123.611H137.228V125.811L138.407 125.809Z" fill="white"/>
<path d="M139.807 127.909L138.779 128.63L139.153 129.164L139.805 129.165L139.807 127.909ZM138.751 126.402L139.779 125.681L139.338 125.052L138.576 125.159L138.751 126.402ZM137.228 126.428V125.172H135.972V126.428H137.228ZM137.228 127.911V129.167H138.484V127.911H137.228ZM136.541 127.911H135.285V129.167H136.541V127.911ZM136.541 122.995V121.739H135.285V122.995H136.541ZM139.93 123.464L139.115 124.42L139.12 124.425L139.126 124.429L139.93 123.464ZM139.414 126.255L139.03 125.06L137.413 125.58L138.384 126.973L139.414 126.255ZM140.568 127.911L140.565 129.167L142.977 129.172L141.598 127.193L140.568 127.911ZM138.407 125.809V124.553L138.405 124.553L138.407 125.809ZM139.414 125.537L140.193 126.523L140.202 126.515L139.414 125.537ZM139.414 123.907L138.601 124.864L138.629 124.888L138.658 124.91L139.414 123.907ZM137.228 123.611V122.356H135.972V123.611H137.228ZM137.228 125.811H135.972V127.068L137.23 127.067L137.228 125.811ZM139.807 127.909L140.836 127.188L139.779 125.681L138.751 126.402L137.723 127.123L138.779 128.63L139.807 127.909ZM138.751 126.402L138.576 125.159C138.491 125.171 138.446 125.172 138.432 125.172V126.428V127.683C138.578 127.683 138.741 127.672 138.926 127.646L138.751 126.402ZM138.432 126.428V125.172H137.228V126.428V127.683H138.432V126.428ZM137.228 126.428H135.972V127.911H137.228H138.484V126.428H137.228ZM137.228 127.911V126.655H136.541V127.911V129.167H137.228V127.911ZM136.541 127.911H137.797V122.995H136.541H135.285V127.911H136.541ZM136.541 122.995V124.251H138.432V122.995V121.739H136.541V122.995ZM138.432 122.995V124.251C138.86 124.251 139.04 124.356 139.115 124.42L139.93 123.464L140.745 122.509C140.096 121.956 139.28 121.739 138.432 121.739V122.995ZM139.93 123.464L139.126 124.429C139.163 124.461 139.215 124.502 139.215 124.699H140.47H141.726C141.726 123.847 141.41 123.063 140.734 122.5L139.93 123.464ZM140.47 124.699H139.215C139.215 124.901 139.168 124.972 139.164 124.978L140.2 125.688L141.236 126.397C141.587 125.885 141.726 125.289 141.726 124.699H140.47ZM140.2 125.688L139.164 124.978C139.156 124.989 139.146 125.001 139.13 125.012C139.113 125.024 139.083 125.043 139.03 125.06L139.414 126.255L139.799 127.451C140.389 127.261 140.891 126.902 141.236 126.397L140.2 125.688ZM139.414 126.255L138.384 126.973L139.538 128.629L140.568 127.911L141.598 127.193L140.445 125.537L139.414 126.255ZM140.568 127.911L140.571 126.655L139.81 126.653L139.807 127.909L139.805 129.165L140.565 129.167L140.568 127.911ZM138.407 125.809V127.065C138.989 127.065 139.647 126.954 140.193 126.523L139.414 125.537L138.636 124.552C138.674 124.522 138.693 124.522 138.663 124.53C138.628 124.539 138.549 124.553 138.407 124.553V125.809ZM139.414 125.537L140.202 126.515C140.789 126.042 141.038 125.378 141.038 124.698H139.782H138.526C138.526 124.738 138.52 124.722 138.54 124.675C138.55 124.653 138.564 124.629 138.581 124.607C138.598 124.584 138.614 124.569 138.626 124.56L139.414 125.537ZM139.782 124.698H141.038C141.038 124.006 140.767 123.355 140.171 122.905L139.414 123.907L138.658 124.91C138.629 124.888 138.584 124.842 138.552 124.773C138.522 124.71 138.526 124.674 138.526 124.698H139.782ZM139.414 123.907L140.227 122.95C139.686 122.49 139.019 122.356 138.407 122.356V123.611V124.867C138.539 124.867 138.609 124.882 138.635 124.89C138.657 124.896 138.636 124.893 138.601 124.864L139.414 123.907ZM138.407 123.611V122.356H137.228V123.611V124.867H138.407V123.611ZM137.228 123.611H135.972V125.811H137.228H138.484V123.611H137.228ZM137.228 125.811L137.23 127.067L138.408 127.065L138.407 125.809L138.405 124.553L137.226 124.555L137.228 125.811Z" fill="white" mask="url(#path-20-inside-6_0_1)"/>
<mask id="path-22-inside-7_0_1" fill="white">
<path d="M145.535 127.958C145.044 127.958 144.601 127.854 144.208 127.637C143.823 127.432 143.5 127.124 143.274 126.749C143.059 126.372 142.955 125.945 142.955 125.465C142.948 125.016 143.058 124.573 143.274 124.181C143.495 123.794 143.818 123.478 144.208 123.267C144.617 123.051 145.073 122.94 145.535 122.946C145.909 122.946 146.253 123.014 146.566 123.143C146.881 123.271 147.165 123.464 147.4 123.711L146.934 124.155C146.76 123.963 146.548 123.81 146.31 123.708C146.073 123.605 145.816 123.556 145.558 123.562C145.215 123.56 144.877 123.645 144.576 123.809C144.285 123.968 144.047 124.209 143.889 124.502C143.722 124.794 143.638 125.127 143.644 125.465C143.641 125.802 143.725 126.134 143.889 126.428C144.049 126.712 144.282 126.934 144.577 127.095C144.873 127.256 145.198 127.341 145.56 127.341C145.818 127.345 146.073 127.294 146.31 127.192C146.547 127.09 146.76 126.939 146.935 126.749L147.402 127.193C147.169 127.442 146.884 127.635 146.567 127.76C146.255 127.896 145.91 127.958 145.536 127.958H145.535ZM154.33 122.993V127.909H153.618V125.71H150.819V127.909H150.132V122.993H150.821V125.118H153.62V122.993H154.33ZM163.035 122.993C163.673 122.993 164.171 123.154 164.533 123.463C164.889 123.76 165.073 124.173 165.073 124.698C165.073 125.242 164.889 125.673 164.533 125.983C164.171 126.28 163.673 126.428 163.035 126.428H161.831V127.911H161.144V122.995L163.035 122.993ZM163.01 125.809C163.451 125.809 163.783 125.722 164.017 125.537C164.262 125.34 164.385 125.061 164.385 124.698C164.385 124.351 164.262 124.092 164.017 123.907C163.784 123.709 163.453 123.611 163.01 123.611H161.831V125.811L163.01 125.809Z"/>
</mask>
<path d="M145.535 127.958C145.044 127.958 144.601 127.854 144.208 127.637C143.823 127.432 143.5 127.124 143.274 126.749C143.059 126.372 142.955 125.945 142.955 125.465C142.948 125.016 143.058 124.573 143.274 124.181C143.495 123.794 143.818 123.478 144.208 123.267C144.617 123.051 145.073 122.94 145.535 122.946C145.909 122.946 146.253 123.014 146.566 123.143C146.881 123.271 147.165 123.464 147.4 123.711L146.934 124.155C146.76 123.963 146.548 123.81 146.31 123.708C146.073 123.605 145.816 123.556 145.558 123.562C145.215 123.56 144.877 123.645 144.576 123.809C144.285 123.968 144.047 124.209 143.889 124.502C143.722 124.794 143.638 125.127 143.644 125.465C143.641 125.802 143.725 126.134 143.889 126.428C144.049 126.712 144.282 126.934 144.577 127.095C144.873 127.256 145.198 127.341 145.56 127.341C145.818 127.345 146.073 127.294 146.31 127.192C146.547 127.09 146.76 126.939 146.935 126.749L147.402 127.193C147.169 127.442 146.884 127.635 146.567 127.76C146.255 127.896 145.91 127.958 145.536 127.958H145.535ZM154.33 122.993V127.909H153.618V125.71H150.819V127.909H150.132V122.993H150.821V125.118H153.62V122.993H154.33ZM163.035 122.993C163.673 122.993 164.171 123.154 164.533 123.463C164.889 123.76 165.073 124.173 165.073 124.698C165.073 125.242 164.889 125.673 164.533 125.983C164.171 126.28 163.673 126.428 163.035 126.428H161.831V127.911H161.144V122.995L163.035 122.993ZM163.01 125.809C163.451 125.809 163.783 125.722 164.017 125.537C164.262 125.34 164.385 125.061 164.385 124.698C164.385 124.351 164.262 124.092 164.017 123.907C163.784 123.709 163.453 123.611 163.01 123.611H161.831V125.811L163.01 125.809Z" fill="white"/>
<path d="M144.208 127.637L144.814 126.537L144.807 126.533L144.799 126.529L144.208 127.637ZM143.274 126.749L142.184 127.372L142.191 127.383L142.197 127.394L143.274 126.749ZM142.955 125.465H144.211V125.454L144.211 125.444L142.955 125.465ZM143.274 124.181L142.184 123.558L142.179 123.566L142.175 123.574L143.274 124.181ZM144.208 123.267L143.621 122.156L143.61 122.162L144.208 123.267ZM145.535 122.946L145.52 124.202L145.527 124.202H145.535V122.946ZM146.566 123.143L146.085 124.304L146.095 124.308L146.566 123.143ZM147.4 123.711L148.266 124.621L149.176 123.755L148.31 122.845L147.4 123.711ZM146.934 124.155L146 124.995L146.863 125.956L147.799 125.065L146.934 124.155ZM145.558 123.562L145.548 124.818L145.57 124.818L145.591 124.818L145.558 123.562ZM144.576 123.809L143.974 122.707L143.972 122.708L144.576 123.809ZM143.889 124.502L144.98 125.123L144.988 125.11L144.995 125.097L143.889 124.502ZM143.644 125.465L144.9 125.477L144.9 125.459L144.899 125.441L143.644 125.465ZM143.889 126.428L142.792 127.039L142.795 127.044L143.889 126.428ZM145.56 127.341L145.578 126.086L145.569 126.086H145.56V127.341ZM146.935 126.749L147.801 125.839L146.876 124.958L146.011 125.898L146.935 126.749ZM147.402 127.193L148.318 128.052L149.171 127.143L148.268 126.283L147.402 127.193ZM146.567 127.76L146.105 126.593L146.086 126.6L146.067 126.609L146.567 127.76ZM154.33 122.993H155.586V121.737H154.33V122.993ZM154.33 127.909V129.165H155.586V127.909H154.33ZM153.618 127.909H152.362V129.165H153.618V127.909ZM153.618 125.71H154.874V124.454H153.618V125.71ZM150.819 125.71V124.454H149.563V125.71H150.819ZM150.819 127.909V129.165H152.075V127.909H150.819ZM150.132 127.909H148.876V129.165H150.132V127.909ZM150.132 122.993V121.737H148.876V122.993H150.132ZM150.821 122.993H152.076V121.737H150.821V122.993ZM150.821 125.118H149.565V126.374H150.821V125.118ZM153.62 125.118V126.374H154.876V125.118H153.62ZM153.62 122.993V121.737H152.364V122.993H153.62ZM163.035 122.993V121.737L163.034 121.737L163.035 122.993ZM164.533 123.463L163.718 124.418L163.723 124.423L163.729 124.428L164.533 123.463ZM164.533 125.983L165.33 126.953L165.343 126.942L165.356 126.931L164.533 125.983ZM161.831 126.428V125.172H160.575V126.428H161.831ZM161.831 127.911V129.167H163.087V127.911H161.831ZM161.144 127.911H159.888V129.167H161.144V127.911ZM161.144 122.995L161.143 121.739L159.888 121.74V122.995H161.144ZM163.01 125.809V124.553L163.008 124.553L163.01 125.809ZM164.017 125.537L164.796 126.523L164.805 126.515L164.017 125.537ZM164.017 123.907L163.204 124.864L163.232 124.888L163.261 124.91L164.017 123.907ZM161.831 123.611V122.356H160.575V123.611H161.831ZM161.831 125.811H160.575V127.068L161.832 127.067L161.831 125.811ZM145.535 127.958V126.702C145.228 126.702 144.998 126.639 144.814 126.537L144.208 127.637L143.602 128.737C144.204 129.069 144.861 129.214 145.535 129.214V127.958ZM144.208 127.637L144.799 126.529C144.615 126.431 144.46 126.284 144.352 126.103L143.274 126.749L142.197 127.394C142.539 127.965 143.03 128.432 143.617 128.745L144.208 127.637ZM143.274 126.749L144.365 126.125C144.272 125.964 144.211 125.758 144.211 125.465H142.955H141.7C141.7 126.133 141.846 126.78 142.184 127.372L143.274 126.749ZM142.955 125.465L144.211 125.444C144.207 125.214 144.264 124.987 144.374 124.787L143.274 124.181L142.175 123.574C141.853 124.159 141.689 124.818 141.7 125.485L142.955 125.465ZM143.274 124.181L144.365 124.803C144.47 124.62 144.623 124.47 144.806 124.371L144.208 123.267L143.61 122.162C143.014 122.485 142.52 122.969 142.184 123.558L143.274 124.181ZM144.208 123.267L144.795 124.377C145.019 124.259 145.268 124.199 145.52 124.202L145.535 122.946L145.549 121.69C144.878 121.682 144.215 121.843 143.621 122.156L144.208 123.267ZM145.535 122.946V124.202C145.754 124.202 145.933 124.241 146.085 124.304L146.566 123.143L147.047 121.983C146.573 121.787 146.064 121.69 145.535 121.69V122.946ZM146.566 123.143L146.095 124.308C146.244 124.368 146.379 124.46 146.491 124.577L147.4 123.711L148.31 122.845C147.952 122.469 147.518 122.174 147.036 121.979L146.566 123.143ZM147.4 123.711L146.535 122.801L146.068 123.246L146.934 124.155L147.799 125.065L148.266 124.621L147.4 123.711ZM146.934 124.155L147.868 123.316C147.573 122.989 147.212 122.729 146.808 122.554L146.31 123.708L145.813 124.861C145.884 124.891 145.947 124.937 146 124.995L146.934 124.155ZM146.31 123.708L146.808 122.554C146.403 122.38 145.966 122.296 145.526 122.307L145.558 123.562L145.591 124.818C145.667 124.816 145.743 124.83 145.813 124.861L146.31 123.708ZM145.558 123.562L145.568 122.307C145.011 122.302 144.463 122.44 143.974 122.707L144.576 123.809L145.177 124.912C145.292 124.849 145.419 124.817 145.548 124.818L145.558 123.562ZM144.576 123.809L143.972 122.708C143.468 122.984 143.056 123.401 142.783 123.906L143.889 124.502L144.995 125.097C145.038 125.017 145.102 124.953 145.179 124.91L144.576 123.809ZM143.889 124.502L142.798 123.88C142.519 124.369 142.378 124.925 142.388 125.488L143.644 125.465L144.899 125.441C144.897 125.329 144.926 125.219 144.98 125.123L143.889 124.502ZM143.644 125.465L142.388 125.452C142.383 126.007 142.522 126.554 142.792 127.039L143.889 126.428L144.986 125.816C144.928 125.713 144.898 125.596 144.9 125.477L143.644 125.465ZM143.889 126.428L142.795 127.044C143.08 127.55 143.491 127.933 143.976 128.197L144.577 127.095L145.179 125.992C145.073 125.934 145.019 125.874 144.983 125.811L143.889 126.428ZM144.577 127.095L143.976 128.197C144.458 128.46 144.99 128.597 145.56 128.597V127.341V126.086C145.407 126.086 145.288 126.052 145.179 125.992L144.577 127.095ZM145.56 127.341L145.542 128.597C145.977 128.603 146.408 128.517 146.807 128.345L146.31 127.192L145.813 126.039C145.738 126.071 145.658 126.087 145.578 126.086L145.56 127.341ZM146.31 127.192L146.807 128.345C147.207 128.173 147.565 127.919 147.859 127.599L146.935 126.749L146.011 125.898C145.955 125.959 145.888 126.007 145.813 126.039L146.31 127.192ZM146.935 126.749L146.069 127.658L146.536 128.103L147.402 127.193L148.268 126.283L147.801 125.839L146.935 126.749ZM147.402 127.193L146.486 126.334C146.379 126.448 146.249 126.536 146.105 126.593L146.567 127.76L147.029 128.928C147.518 128.735 147.958 128.435 148.318 128.052L147.402 127.193ZM146.567 127.76L146.067 126.609C145.94 126.664 145.771 126.702 145.536 126.702V127.958V129.214C146.049 129.214 146.569 129.129 147.068 128.912L146.567 127.76ZM145.536 127.958V126.702H145.535V127.958V129.214H145.536V127.958ZM154.33 122.993H153.074V127.909H154.33H155.586V122.993H154.33ZM154.33 127.909V126.653H153.618V127.909V129.165H154.33V127.909ZM153.618 127.909H154.874V125.71H153.618H152.362V127.909H153.618ZM153.618 125.71V124.454H150.819V125.71V126.966H153.618V125.71ZM150.819 125.71H149.563V127.909H150.819H152.075V125.71H150.819ZM150.819 127.909V126.653H150.132V127.909V129.165H150.819V127.909ZM150.132 127.909H151.388V122.993H150.132H148.876V127.909H150.132ZM150.132 122.993V124.249H150.821V122.993V121.737H150.132V122.993ZM150.821 122.993H149.565V125.118H150.821H152.076V122.993H150.821ZM150.821 125.118V126.374H153.62V125.118V123.862H150.821V125.118ZM153.62 125.118H154.876V122.993H153.62H152.364V125.118H153.62ZM153.62 122.993V124.249H154.33V122.993V121.737H153.62V122.993ZM163.035 122.993V124.249C163.463 124.249 163.643 124.355 163.718 124.418L164.533 123.463L165.348 122.507C164.699 121.954 163.882 121.737 163.035 121.737V122.993ZM164.533 123.463L163.729 124.428C163.766 124.459 163.817 124.5 163.817 124.698H165.073H166.329C166.329 123.845 166.013 123.061 165.336 122.498L164.533 123.463ZM165.073 124.698H163.817C163.817 124.932 163.753 124.997 163.709 125.035L164.533 125.983L165.356 126.931C166.026 126.35 166.329 125.551 166.329 124.698H165.073ZM164.533 125.983L163.735 125.013C163.669 125.067 163.489 125.172 163.035 125.172V126.428V127.683C163.856 127.683 164.673 127.494 165.33 126.953L164.533 125.983ZM163.035 126.428V125.172H161.831V126.428V127.683H163.035V126.428ZM161.831 126.428H160.575V127.911H161.831H163.087V126.428H161.831ZM161.831 127.911V126.655H161.144V127.911V129.167H161.831V127.911ZM161.144 127.911H162.4V122.995H161.144H159.888V127.911H161.144ZM161.144 122.995L161.145 124.251L163.036 124.249L163.035 122.993L163.034 121.737L161.143 121.739L161.144 122.995ZM163.01 125.809V127.065C163.592 127.065 164.25 126.954 164.796 126.523L164.017 125.537L163.239 124.552C163.277 124.522 163.296 124.522 163.266 124.53C163.231 124.539 163.152 124.553 163.01 124.553V125.809ZM164.017 125.537L164.805 126.515C165.392 126.042 165.641 125.378 165.641 124.698H164.385H163.129C163.129 124.738 163.122 124.722 163.143 124.675C163.153 124.653 163.167 124.629 163.184 124.607C163.201 124.584 163.217 124.569 163.229 124.56L164.017 125.537ZM164.385 124.698H165.641C165.641 124.006 165.37 123.355 164.773 122.905L164.017 123.907L163.261 124.91C163.232 124.888 163.187 124.842 163.155 124.773C163.125 124.71 163.129 124.674 163.129 124.698H164.385ZM164.017 123.907L164.83 122.95C164.289 122.49 163.622 122.356 163.01 122.356V123.611V124.867C163.142 124.867 163.212 124.882 163.238 124.89C163.259 124.896 163.238 124.893 163.204 124.864L164.017 123.907ZM163.01 123.611V122.356H161.831V123.611V124.867H163.01V123.611ZM161.831 123.611H160.575V125.811H161.831H163.087V123.611H161.831ZM161.831 125.811L161.832 127.067L163.011 127.065L163.01 125.809L163.008 124.553L161.829 124.555L161.831 125.811Z" fill="white" mask="url(#path-22-inside-7_0_1)"/>
<mask id="path-24-inside-8_0_1" fill="white">
<path d="M171.184 127.909L170.128 126.402C169.993 126.421 169.889 126.428 169.809 126.428H168.605V127.911H167.918V122.995H169.809C170.447 122.995 170.945 123.156 171.307 123.464C171.664 123.762 171.848 124.174 171.848 124.699C171.848 125.095 171.755 125.428 171.577 125.688C171.4 125.947 171.136 126.145 170.791 126.255L171.945 127.911L171.184 127.909ZM169.784 125.809C170.226 125.809 170.557 125.722 170.791 125.537C171.037 125.34 171.159 125.061 171.159 124.698C171.159 124.351 171.037 124.092 170.791 123.907C170.559 123.709 170.227 123.611 169.784 123.611H168.605V125.811L169.784 125.809Z"/>
</mask>
<path d="M171.184 127.909L170.128 126.402C169.993 126.421 169.889 126.428 169.809 126.428H168.605V127.911H167.918V122.995H169.809C170.447 122.995 170.945 123.156 171.307 123.464C171.664 123.762 171.848 124.174 171.848 124.699C171.848 125.095 171.755 125.428 171.577 125.688C171.4 125.947 171.136 126.145 170.791 126.255L171.945 127.911L171.184 127.909ZM169.784 125.809C170.226 125.809 170.557 125.722 170.791 125.537C171.037 125.34 171.159 125.061 171.159 124.698C171.159 124.351 171.037 124.092 170.791 123.907C170.559 123.709 170.227 123.611 169.784 123.611H168.605V125.811L169.784 125.809Z" fill="white"/>
<path d="M171.184 127.909L170.156 128.63L170.53 129.164L171.182 129.165L171.184 127.909ZM170.128 126.402L171.156 125.681L170.715 125.052L169.954 125.159L170.128 126.402ZM168.605 126.428V125.172H167.349V126.428H168.605ZM168.605 127.911V129.167H169.861V127.911H168.605ZM167.918 127.911H166.662V129.167H167.918V127.911ZM167.918 122.995V121.739H166.662V122.995H167.918ZM171.307 123.464L170.492 124.42L170.497 124.425L170.503 124.429L171.307 123.464ZM170.791 126.255L170.407 125.06L168.79 125.58L169.761 126.973L170.791 126.255ZM171.945 127.911L171.942 129.167L174.354 129.172L172.975 127.193L171.945 127.911ZM169.784 125.809V124.553L169.782 124.553L169.784 125.809ZM170.791 125.537L171.57 126.523L171.58 126.515L170.791 125.537ZM170.791 123.907L169.978 124.864L170.006 124.888L170.035 124.91L170.791 123.907ZM168.605 123.611V122.356H167.349V123.611H168.605ZM168.605 125.811H167.349V127.068L168.607 127.067L168.605 125.811ZM171.184 127.909L172.213 127.188L171.156 125.681L170.128 126.402L169.1 127.123L170.156 128.63L171.184 127.909ZM170.128 126.402L169.954 125.159C169.868 125.171 169.823 125.172 169.809 125.172V126.428V127.683C169.956 127.683 170.118 127.672 170.303 127.646L170.128 126.402ZM169.809 126.428V125.172H168.605V126.428V127.683H169.809V126.428ZM168.605 126.428H167.349V127.911H168.605H169.861V126.428H168.605ZM168.605 127.911V126.655H167.918V127.911V129.167H168.605V127.911ZM167.918 127.911H169.174V122.995H167.918H166.662V127.911H167.918ZM167.918 122.995V124.251H169.809V122.995V121.739H167.918V122.995ZM169.809 122.995V124.251C170.238 124.251 170.417 124.356 170.492 124.42L171.307 123.464L172.122 122.509C171.473 121.956 170.657 121.739 169.809 121.739V122.995ZM171.307 123.464L170.503 124.429C170.541 124.461 170.592 124.502 170.592 124.699H171.848H173.103C173.103 123.847 172.787 123.063 172.111 122.5L171.307 123.464ZM171.848 124.699H170.592C170.592 124.901 170.545 124.972 170.541 124.978L171.577 125.688L172.613 126.397C172.964 125.885 173.103 125.289 173.103 124.699H171.848ZM171.577 125.688L170.541 124.978C170.533 124.989 170.523 125.001 170.507 125.012C170.491 125.024 170.46 125.043 170.407 125.06L170.791 126.255L171.176 127.451C171.767 127.261 172.268 126.902 172.613 126.397L171.577 125.688ZM170.791 126.255L169.761 126.973L170.915 128.629L171.945 127.911L172.975 127.193L171.822 125.537L170.791 126.255ZM171.945 127.911L171.948 126.655L171.187 126.653L171.184 127.909L171.182 129.165L171.942 129.167L171.945 127.911ZM169.784 125.809V127.065C170.366 127.065 171.024 126.954 171.57 126.523L170.791 125.537L170.013 124.552C170.051 124.522 170.071 124.522 170.04 124.53C170.005 124.539 169.926 124.553 169.784 124.553V125.809ZM170.791 125.537L171.58 126.515C172.166 126.042 172.415 125.378 172.415 124.698H171.159H169.903C169.903 124.738 169.897 124.722 169.917 124.675C169.927 124.653 169.941 124.629 169.958 124.607C169.975 124.584 169.992 124.569 170.003 124.56L170.791 125.537ZM171.159 124.698H172.415C172.415 124.006 172.144 123.355 171.548 122.905L170.791 123.907L170.035 124.91C170.006 124.888 169.961 124.842 169.929 124.773C169.9 124.71 169.903 124.674 169.903 124.698H171.159ZM170.791 123.907L171.605 122.95C171.063 122.49 170.396 122.356 169.784 122.356V123.611V124.867C169.916 124.867 169.986 124.882 170.012 124.89C170.034 124.896 170.013 124.893 169.978 124.864L170.791 123.907ZM169.784 123.611V122.356H168.605V123.611V124.867H169.784V123.611ZM168.605 123.611H167.349V125.811H168.605H169.861V123.611H168.605ZM168.605 125.811L168.607 127.067L169.786 127.065L169.784 125.809L169.782 124.553L168.603 124.555L168.605 125.811Z" fill="white" mask="url(#path-24-inside-8_0_1)"/>
<mask id="path-26-inside-9_0_1" fill="white">
<path d="M176.937 127.958C176.428 127.958 175.98 127.854 175.587 127.637C175.201 127.432 174.879 127.124 174.653 126.749C174.44 126.355 174.33 125.913 174.334 125.465C174.327 125.016 174.437 124.573 174.653 124.181C174.874 123.794 175.197 123.478 175.587 123.267C175.98 123.056 176.428 122.946 176.937 122.946C177.391 122.943 177.838 123.053 178.238 123.267C178.644 123.483 178.957 123.785 179.172 124.181C179.402 124.569 179.522 125.014 179.516 125.466C179.516 125.942 179.4 126.374 179.172 126.752C178.956 127.135 178.631 127.445 178.238 127.642C177.839 127.858 177.391 127.969 176.937 127.963V127.958ZM176.937 127.34C177.265 127.344 177.587 127.259 177.871 127.093C178.157 126.94 178.396 126.709 178.559 126.426C178.736 126.136 178.83 125.803 178.829 125.463C178.833 125.123 178.739 124.788 178.559 124.5C178.399 124.209 178.161 123.97 177.872 123.809C177.588 123.645 177.266 123.56 176.939 123.562C176.596 123.56 176.258 123.645 175.956 123.809C175.666 123.968 175.427 124.209 175.269 124.502C175.103 124.794 175.018 125.127 175.024 125.465C175.021 125.802 175.105 126.134 175.269 126.428C175.43 126.712 175.662 126.934 175.958 127.095C176.253 127.256 176.579 127.341 176.94 127.341L176.937 127.34ZM185.714 125.414H186.377V127.341C186.12 127.547 185.829 127.706 185.517 127.811C185.199 127.911 184.868 127.961 184.535 127.96C184.026 127.96 183.578 127.855 183.185 127.639C182.799 127.433 182.476 127.126 182.251 126.75C182.036 126.374 181.932 125.947 181.932 125.466C181.925 125.017 182.035 124.575 182.251 124.182C182.471 123.796 182.795 123.479 183.185 123.268C183.603 123.054 184.066 122.944 184.535 122.947C184.928 122.947 185.278 123.015 185.591 123.145C185.906 123.272 186.191 123.466 186.426 123.713L185.984 124.133C185.796 123.949 185.573 123.804 185.328 123.707C185.084 123.609 184.823 123.561 184.56 123.566C184.199 123.566 183.861 123.653 183.553 123.812C183.262 123.972 183.023 124.212 182.866 124.505C182.699 124.798 182.614 125.13 182.62 125.468C182.617 125.805 182.702 126.137 182.866 126.431C183.026 126.715 183.259 126.937 183.554 127.098C183.864 127.264 184.211 127.349 184.562 127.345C184.969 127.355 185.371 127.243 185.715 127.024L185.714 125.414Z"/>
</mask>
<path d="M176.937 127.958C176.428 127.958 175.98 127.854 175.587 127.637C175.201 127.432 174.879 127.124 174.653 126.749C174.44 126.355 174.33 125.913 174.334 125.465C174.327 125.016 174.437 124.573 174.653 124.181C174.874 123.794 175.197 123.478 175.587 123.267C175.98 123.056 176.428 122.946 176.937 122.946C177.391 122.943 177.838 123.053 178.238 123.267C178.644 123.483 178.957 123.785 179.172 124.181C179.402 124.569 179.522 125.014 179.516 125.466C179.516 125.942 179.4 126.374 179.172 126.752C178.956 127.135 178.631 127.445 178.238 127.642C177.839 127.858 177.391 127.969 176.937 127.963V127.958ZM176.937 127.34C177.265 127.344 177.587 127.259 177.871 127.093C178.157 126.94 178.396 126.709 178.559 126.426C178.736 126.136 178.83 125.803 178.829 125.463C178.833 125.123 178.739 124.788 178.559 124.5C178.399 124.209 178.161 123.97 177.872 123.809C177.588 123.645 177.266 123.56 176.939 123.562C176.596 123.56 176.258 123.645 175.956 123.809C175.666 123.968 175.427 124.209 175.269 124.502C175.103 124.794 175.018 125.127 175.024 125.465C175.021 125.802 175.105 126.134 175.269 126.428C175.43 126.712 175.662 126.934 175.958 127.095C176.253 127.256 176.579 127.341 176.94 127.341L176.937 127.34ZM185.714 125.414H186.377V127.341C186.12 127.547 185.829 127.706 185.517 127.811C185.199 127.911 184.868 127.961 184.535 127.96C184.026 127.96 183.578 127.855 183.185 127.639C182.799 127.433 182.476 127.126 182.251 126.75C182.036 126.374 181.932 125.947 181.932 125.466C181.925 125.017 182.035 124.575 182.251 124.182C182.471 123.796 182.795 123.479 183.185 123.268C183.603 123.054 184.066 122.944 184.535 122.947C184.928 122.947 185.278 123.015 185.591 123.145C185.906 123.272 186.191 123.466 186.426 123.713L185.984 124.133C185.796 123.949 185.573 123.804 185.328 123.707C185.084 123.609 184.823 123.561 184.56 123.566C184.199 123.566 183.861 123.653 183.553 123.812C183.262 123.972 183.023 124.212 182.866 124.505C182.699 124.798 182.614 125.13 182.62 125.468C182.617 125.805 182.702 126.137 182.866 126.431C183.026 126.715 183.259 126.937 183.554 127.098C183.864 127.264 184.211 127.349 184.562 127.345C184.969 127.355 185.371 127.243 185.715 127.024L185.714 125.414Z" fill="white"/>
<path d="M176.937 127.958H178.193V126.702H176.937V127.958ZM175.587 127.637L176.193 126.537L176.185 126.533L176.178 126.529L175.587 127.637ZM174.653 126.749L173.549 127.348L173.562 127.371L173.576 127.394L174.653 126.749ZM174.334 125.465L175.59 125.477L175.59 125.461L175.59 125.444L174.334 125.465ZM174.653 124.181L173.562 123.558L173.558 123.566L173.553 123.574L174.653 124.181ZM175.587 123.267L174.994 122.159L174.989 122.162L175.587 123.267ZM176.937 122.946V124.202L176.946 124.202L176.937 122.946ZM178.238 123.267L178.83 122.159L178.83 122.159L178.238 123.267ZM179.172 124.181L178.069 124.781L178.08 124.802L178.092 124.822L179.172 124.181ZM179.516 125.466L178.26 125.451L178.26 125.459V125.466H179.516ZM179.172 126.752L178.097 126.103L178.087 126.119L178.078 126.135L179.172 126.752ZM178.238 127.642L177.676 126.519L177.658 126.528L177.64 126.538L178.238 127.642ZM176.937 127.963H175.681V129.202L176.921 129.219L176.937 127.963ZM176.937 127.34L176.954 126.084L176.373 128.462L176.937 127.34ZM177.871 127.093L177.278 125.986L177.257 125.997L177.236 126.01L177.871 127.093ZM178.559 126.426L177.488 125.771L177.479 125.784L177.472 125.798L178.559 126.426ZM178.829 125.463L177.574 125.449L177.574 125.457L177.574 125.464L178.829 125.463ZM178.559 124.5L177.459 125.106L177.476 125.136L177.494 125.166L178.559 124.5ZM177.872 123.809L177.245 124.897L177.253 124.902L177.261 124.906L177.872 123.809ZM176.939 123.562L176.929 124.818L176.938 124.818L176.947 124.818L176.939 123.562ZM175.956 123.809L175.355 122.707L175.353 122.708L175.956 123.809ZM175.269 124.502L176.361 125.123L176.368 125.11L176.375 125.097L175.269 124.502ZM175.024 125.465L176.28 125.477L176.28 125.459L176.28 125.441L175.024 125.465ZM175.269 126.428L174.173 127.039L174.175 127.044L175.269 126.428ZM176.94 127.341V128.597L177.504 126.22L176.94 127.341ZM185.714 125.414V124.158H184.457L184.458 125.415L185.714 125.414ZM186.377 125.414H187.633V124.158H186.377V125.414ZM186.377 127.341L187.161 128.323L187.633 127.946V127.341H186.377ZM185.517 127.811L185.893 129.009L185.906 129.005L185.919 129.001L185.517 127.811ZM184.535 127.96L184.54 126.704H184.535V127.96ZM183.185 127.639L183.791 126.539L183.783 126.535L183.775 126.53L183.185 127.639ZM182.251 126.75L181.161 127.374L181.167 127.385L181.174 127.396L182.251 126.75ZM181.932 125.466H183.188V125.456L183.188 125.446L181.932 125.466ZM182.251 124.182L181.16 123.56L181.156 123.568L181.151 123.576L182.251 124.182ZM183.185 123.268L182.611 122.151L182.599 122.157L182.587 122.164L183.185 123.268ZM184.535 122.947L184.525 124.203H184.535V122.947ZM185.591 123.145L185.11 124.305L185.12 124.309L185.591 123.145ZM186.426 123.713L187.292 124.622L188.201 123.756L187.335 122.847L186.426 123.713ZM185.984 124.133L185.106 125.031L185.973 125.878L186.85 125.043L185.984 124.133ZM184.56 123.566V124.821H184.57L184.581 124.821L184.56 123.566ZM183.553 123.812L182.975 122.697L182.962 122.704L182.949 122.711L183.553 123.812ZM182.866 124.505L183.957 125.126L183.964 125.113L183.971 125.1L182.866 124.505ZM182.62 125.468L183.876 125.48L183.876 125.462L183.876 125.444L182.62 125.468ZM182.866 126.431L181.769 127.042L181.771 127.047L182.866 126.431ZM183.554 127.098L182.952 128.2L182.961 128.205L183.554 127.098ZM184.562 127.345L184.593 126.089L184.57 126.089L184.547 126.089L184.562 127.345ZM185.715 127.024L186.39 128.083L186.972 127.712L186.971 127.022L185.715 127.024ZM176.937 127.958V126.702C176.605 126.702 176.372 126.636 176.193 126.537L175.587 127.637L174.981 128.737C175.588 129.072 176.251 129.214 176.937 129.214V127.958ZM175.587 127.637L176.178 126.529C175.994 126.431 175.839 126.284 175.73 126.103L174.653 126.749L173.576 127.394C173.918 127.965 174.409 128.432 174.996 128.745L175.587 127.637ZM174.653 126.749L175.757 126.149C175.645 125.944 175.588 125.712 175.59 125.477L174.334 125.465L173.078 125.452C173.072 126.114 173.234 126.766 173.549 127.348L174.653 126.749ZM174.334 125.465L175.59 125.444C175.586 125.214 175.643 124.987 175.753 124.787L174.653 124.181L173.553 123.574C173.231 124.159 173.068 124.818 173.078 125.485L174.334 125.465ZM174.653 124.181L175.744 124.803C175.849 124.62 176.002 124.47 176.185 124.371L175.587 123.267L174.989 122.162C174.392 122.485 173.898 122.969 173.562 123.558L174.653 124.181ZM175.587 123.267L176.179 124.374C176.375 124.269 176.617 124.202 176.937 124.202V122.946V121.69C176.239 121.69 175.585 121.844 174.994 122.159L175.587 123.267ZM176.937 122.946L176.946 124.202C177.19 124.2 177.431 124.259 177.647 124.375L178.238 123.267L178.83 122.159C178.245 121.847 177.591 121.685 176.928 121.69L176.937 122.946ZM178.238 123.267L177.647 124.374C177.849 124.482 177.978 124.614 178.069 124.781L179.172 124.181L180.275 123.58C179.935 122.957 179.439 122.484 178.83 122.159L178.238 123.267ZM179.172 124.181L178.092 124.822C178.205 125.011 178.263 125.229 178.26 125.451L179.516 125.466L180.772 125.481C180.78 124.799 180.6 124.127 180.252 123.54L179.172 124.181ZM179.516 125.466H178.26C178.26 125.73 178.198 125.935 178.097 126.103L179.172 126.752L180.247 127.4C180.602 126.813 180.772 126.154 180.772 125.466H179.516ZM179.172 126.752L178.078 126.135C177.984 126.302 177.844 126.435 177.676 126.519L178.238 127.642L178.801 128.765C179.418 128.456 179.928 127.969 180.266 127.368L179.172 126.752ZM178.238 127.642L177.64 126.538C177.429 126.652 177.193 126.71 176.953 126.707L176.937 127.963L176.921 129.219C177.589 129.227 178.249 129.065 178.836 128.746L178.238 127.642ZM176.937 127.963H178.193V127.958H176.937H175.681V127.963H176.937ZM176.937 127.34L176.92 128.596C177.477 128.603 178.025 128.458 178.505 128.177L177.871 127.093L177.236 126.01C177.15 126.06 177.052 126.085 176.954 126.084L176.937 127.34ZM177.871 127.093L178.464 128.2C178.957 127.936 179.367 127.539 179.646 127.054L178.559 126.426L177.472 125.798C177.425 125.878 177.357 125.943 177.278 125.986L177.871 127.093ZM178.559 126.426L179.63 127.081C179.929 126.594 180.086 126.033 180.085 125.462L178.829 125.463L177.574 125.464C177.574 125.573 177.544 125.679 177.488 125.771L178.559 126.426ZM178.829 125.463L180.085 125.477C180.092 124.897 179.932 124.326 179.624 123.834L178.559 124.5L177.494 125.166C177.547 125.25 177.575 125.348 177.574 125.449L178.829 125.463ZM178.559 124.5L179.659 123.894C179.386 123.398 178.979 122.988 178.484 122.712L177.872 123.809L177.261 124.906C177.343 124.952 177.412 125.021 177.459 125.106L178.559 124.5ZM177.872 123.809L178.499 122.721C178.022 122.446 177.481 122.303 176.93 122.307L176.939 123.562L176.947 124.818C177.051 124.818 177.154 124.845 177.245 124.897L177.872 123.809ZM176.939 123.562L176.948 122.307C176.392 122.302 175.843 122.44 175.355 122.707L175.956 123.809L176.558 124.912C176.672 124.849 176.8 124.817 176.929 124.818L176.939 123.562ZM175.956 123.809L175.353 122.708C174.849 122.984 174.436 123.401 174.164 123.906L175.269 124.502L176.375 125.097C176.418 125.017 176.483 124.953 176.56 124.91L175.956 123.809ZM175.269 124.502L174.178 123.88C173.899 124.369 173.758 124.925 173.769 125.488L175.024 125.465L176.28 125.441C176.278 125.329 176.306 125.219 176.361 125.123L175.269 124.502ZM175.024 125.465L173.768 125.452C173.763 126.007 173.902 126.554 174.173 127.039L175.269 126.428L176.366 125.816C176.309 125.713 176.279 125.596 176.28 125.477L175.024 125.465ZM175.269 126.428L174.175 127.044C174.46 127.55 174.872 127.933 175.356 128.197L175.958 127.095L176.559 125.992C176.453 125.934 176.399 125.874 176.364 125.811L175.269 126.428ZM175.958 127.095L175.356 128.197C175.838 128.46 176.37 128.597 176.94 128.597V127.341V126.086C176.787 126.086 176.669 126.052 176.559 125.992L175.958 127.095ZM176.94 127.341L177.504 126.22L177.501 126.218L176.937 127.34L176.373 128.462L176.376 128.463L176.94 127.341ZM185.714 125.414V126.67H186.377V125.414V124.158H185.714V125.414ZM186.377 125.414H185.121V127.341H186.377H187.633V125.414H186.377ZM186.377 127.341L185.593 126.36C185.45 126.475 185.288 126.563 185.116 126.621L185.517 127.811L185.919 129.001C186.369 128.849 186.789 128.619 187.161 128.323L186.377 127.341ZM185.517 127.811L185.141 126.613C184.946 126.674 184.744 126.705 184.54 126.704L184.535 127.96L184.53 129.216C184.992 129.217 185.452 129.148 185.893 129.009L185.517 127.811ZM184.535 127.96V126.704C184.202 126.704 183.97 126.637 183.791 126.539L183.185 127.639L182.578 128.739C183.186 129.073 183.849 129.216 184.535 129.216V127.96ZM183.185 127.639L183.775 126.53C183.592 126.433 183.437 126.286 183.328 126.105L182.251 126.75L181.174 127.396C181.516 127.967 182.007 128.434 182.594 128.747L183.185 127.639ZM182.251 126.75L183.341 126.126C183.249 125.966 183.188 125.76 183.188 125.466H181.932H180.676C180.676 126.134 180.822 126.782 181.161 127.374L182.251 126.75ZM181.932 125.466L183.188 125.446C183.184 125.216 183.24 124.989 183.351 124.788L182.251 124.182L181.151 123.576C180.829 124.161 180.666 124.819 180.676 125.487L181.932 125.466ZM182.251 124.182L183.342 124.805C183.447 124.621 183.6 124.472 183.783 124.373L183.185 123.268L182.587 122.164C181.99 122.487 181.496 122.971 181.16 123.56L182.251 124.182ZM183.185 123.268L183.758 124.386C183.996 124.264 184.259 124.201 184.525 124.203L184.535 122.947L184.544 121.692C183.872 121.686 183.209 121.844 182.611 122.151L183.185 123.268ZM184.535 122.947V124.203C184.78 124.203 184.965 124.245 185.11 124.305L185.591 123.145L186.072 121.985C185.592 121.786 185.076 121.691 184.535 121.691V122.947ZM185.591 123.145L185.12 124.309C185.269 124.369 185.404 124.461 185.516 124.579L186.426 123.713L187.335 122.847C186.977 122.471 186.543 122.175 186.062 121.981L185.591 123.145ZM186.426 123.713L185.56 122.803L185.118 123.224L185.984 124.133L186.85 125.043L187.292 124.622L186.426 123.713ZM185.984 124.133L186.862 123.235C186.555 122.935 186.192 122.699 185.793 122.54L185.328 123.707L184.863 124.873C184.953 124.909 185.036 124.963 185.106 125.031L185.984 124.133ZM185.328 123.707L185.793 122.54C185.395 122.381 184.968 122.303 184.539 122.31L184.56 123.566L184.581 124.821C184.677 124.82 184.773 124.837 184.863 124.873L185.328 123.707ZM184.56 123.566V122.31C183.991 122.31 183.455 122.448 182.975 122.697L183.553 123.812L184.131 124.927C184.266 124.857 184.406 124.821 184.56 124.821V123.566ZM183.553 123.812L182.949 122.711C182.445 122.987 182.032 123.404 181.76 123.909L182.866 124.505L183.971 125.1C184.014 125.02 184.079 124.956 184.156 124.914L183.553 123.812ZM182.866 124.505L181.774 123.883C181.496 124.373 181.354 124.928 181.365 125.491L182.62 125.468L183.876 125.444C183.874 125.332 183.902 125.223 183.957 125.126L182.866 124.505ZM182.62 125.468L181.365 125.455C181.359 126.011 181.498 126.558 181.769 127.042L182.866 126.431L183.962 125.819C183.905 125.716 183.875 125.599 183.876 125.48L182.62 125.468ZM182.866 126.431L181.771 127.047C182.057 127.553 182.468 127.936 182.952 128.2L183.554 127.098L184.156 125.996C184.049 125.937 183.995 125.877 183.96 125.814L182.866 126.431ZM183.554 127.098L182.961 128.205C183.458 128.471 184.013 128.607 184.577 128.6L184.562 127.345L184.547 126.089C184.408 126.091 184.27 126.057 184.147 125.991L183.554 127.098ZM184.562 127.345L184.53 128.6C185.188 128.617 185.835 128.436 186.39 128.083L185.715 127.024L185.04 125.965C184.906 126.05 184.751 126.093 184.593 126.089L184.562 127.345ZM185.715 127.024L186.971 127.022L186.97 125.413L185.714 125.414L184.458 125.415L184.459 127.025L185.715 127.024Z" fill="white" mask="url(#path-26-inside-9_0_1)"/>
<mask id="path-28-inside-10_0_1" fill="white">
<path d="M192.714 127.909L191.658 126.402C191.523 126.421 191.419 126.428 191.339 126.428H190.135V127.911H189.448V122.995H191.339C191.977 122.995 192.475 123.156 192.837 123.464C193.194 123.762 193.378 124.174 193.378 124.699C193.378 125.095 193.285 125.428 193.107 125.688C192.93 125.947 192.666 126.145 192.321 126.255L193.475 127.911L192.714 127.909ZM191.314 125.809C191.756 125.809 192.087 125.722 192.321 125.537C192.567 125.34 192.689 125.061 192.689 124.698C192.689 124.351 192.567 124.092 192.321 123.907C192.089 123.709 191.757 123.611 191.314 123.611H190.135V125.811L191.314 125.809Z"/>
</mask>
<path d="M192.714 127.909L191.658 126.402C191.523 126.421 191.419 126.428 191.339 126.428H190.135V127.911H189.448V122.995H191.339C191.977 122.995 192.475 123.156 192.837 123.464C193.194 123.762 193.378 124.174 193.378 124.699C193.378 125.095 193.285 125.428 193.107 125.688C192.93 125.947 192.666 126.145 192.321 126.255L193.475 127.911L192.714 127.909ZM191.314 125.809C191.756 125.809 192.087 125.722 192.321 125.537C192.567 125.34 192.689 125.061 192.689 124.698C192.689 124.351 192.567 124.092 192.321 123.907C192.089 123.709 191.757 123.611 191.314 123.611H190.135V125.811L191.314 125.809Z" fill="white"/>
<path d="M192.714 127.909L191.686 128.63L192.06 129.164L192.712 129.165L192.714 127.909ZM191.658 126.402L192.686 125.681L192.245 125.052L191.484 125.159L191.658 126.402ZM190.135 126.428V125.172H188.879V126.428H190.135ZM190.135 127.911V129.167H191.391V127.911H190.135ZM189.448 127.911H188.192V129.167H189.448V127.911ZM189.448 122.995V121.739H188.192V122.995H189.448ZM192.837 123.464L192.022 124.42L192.027 124.425L192.033 124.429L192.837 123.464ZM192.321 126.255L191.937 125.06L190.32 125.58L191.291 126.973L192.321 126.255ZM193.475 127.911L193.472 129.167L195.884 129.172L194.505 127.193L193.475 127.911ZM191.314 125.809V124.553L191.312 124.553L191.314 125.809ZM192.321 125.537L193.1 126.523L193.11 126.515L192.321 125.537ZM192.321 123.907L191.508 124.864L191.536 124.888L191.565 124.91L192.321 123.907ZM190.135 123.611V122.356H188.879V123.611H190.135ZM190.135 125.811H188.879V127.068L190.137 127.067L190.135 125.811ZM192.714 127.909L193.743 127.188L192.686 125.681L191.658 126.402L190.63 127.123L191.686 128.63L192.714 127.909ZM191.658 126.402L191.484 125.159C191.398 125.171 191.353 125.172 191.339 125.172V126.428V127.683C191.486 127.683 191.648 127.672 191.833 127.646L191.658 126.402ZM191.339 126.428V125.172H190.135V126.428V127.683H191.339V126.428ZM190.135 126.428H188.879V127.911H190.135H191.391V126.428H190.135ZM190.135 127.911V126.655H189.448V127.911V129.167H190.135V127.911ZM189.448 127.911H190.704V122.995H189.448H188.192V127.911H189.448ZM189.448 122.995V124.251H191.339V122.995V121.739H189.448V122.995ZM191.339 122.995V124.251C191.768 124.251 191.947 124.356 192.022 124.42L192.837 123.464L193.652 122.509C193.003 121.956 192.187 121.739 191.339 121.739V122.995ZM192.837 123.464L192.033 124.429C192.071 124.461 192.122 124.502 192.122 124.699H193.378H194.633C194.633 123.847 194.317 123.063 193.641 122.5L192.837 123.464ZM193.378 124.699H192.122C192.122 124.901 192.075 124.972 192.071 124.978L193.107 125.688L194.143 126.397C194.494 125.885 194.633 125.289 194.633 124.699H193.378ZM193.107 125.688L192.071 124.978C192.063 124.989 192.053 125.001 192.037 125.012C192.021 125.024 191.99 125.043 191.937 125.06L192.321 126.255L192.706 127.451C193.297 127.261 193.798 126.902 194.143 126.397L193.107 125.688ZM192.321 126.255L191.291 126.973L192.445 128.629L193.475 127.911L194.505 127.193L193.352 125.537L192.321 126.255ZM193.475 127.911L193.478 126.655L192.717 126.653L192.714 127.909L192.712 129.165L193.472 129.167L193.475 127.911ZM191.314 125.809V127.065C191.896 127.065 192.554 126.954 193.1 126.523L192.321 125.537L191.543 124.552C191.581 124.522 191.601 124.522 191.57 124.53C191.535 124.539 191.456 124.553 191.314 124.553V125.809ZM192.321 125.537L193.11 126.515C193.696 126.042 193.945 125.378 193.945 124.698H192.689H191.433C191.433 124.738 191.427 124.722 191.447 124.675C191.457 124.653 191.471 124.629 191.488 124.607C191.505 124.584 191.522 124.569 191.533 124.56L192.321 125.537ZM192.689 124.698H193.945C193.945 124.006 193.674 123.355 193.078 122.905L192.321 123.907L191.565 124.91C191.536 124.888 191.491 124.842 191.459 124.773C191.43 124.71 191.433 124.674 191.433 124.698H192.689ZM192.321 123.907L193.135 122.95C192.593 122.49 191.926 122.356 191.314 122.356V123.611V124.867C191.446 124.867 191.516 124.882 191.542 124.89C191.564 124.896 191.543 124.893 191.508 124.864L192.321 123.907ZM191.314 123.611V122.356H190.135V123.611V124.867H191.314V123.611ZM190.135 123.611H188.879V125.811H190.135H191.391V123.611H190.135ZM190.135 125.811L190.137 127.067L191.316 127.065L191.314 125.809L191.312 124.553L190.133 124.555L190.135 125.811Z" fill="white" mask="url(#path-28-inside-10_0_1)"/>
<mask id="path-30-inside-11_0_1" fill="white">
<path d="M199.352 126.674H196.773L196.232 127.909H195.52L197.73 122.993H198.418L200.628 127.909H199.891L199.352 126.674ZM199.13 126.13L198.074 123.709L197.018 126.13H199.13Z"/>
</mask>
<path d="M199.352 126.674H196.773L196.232 127.909H195.52L197.73 122.993H198.418L200.628 127.909H199.891L199.352 126.674ZM199.13 126.13L198.074 123.709L197.018 126.13H199.13Z" fill="white"/>
<path d="M199.352 126.674L200.503 126.172L200.174 125.418H199.352V126.674ZM196.773 126.674V125.418H195.952L195.622 126.171L196.773 126.674ZM196.232 127.909V129.165H197.053L197.382 128.413L196.232 127.909ZM195.52 127.909L194.374 127.394L193.578 129.165H195.52V127.909ZM197.73 122.993V121.737H196.917L196.584 122.478L197.73 122.993ZM198.418 122.993L199.564 122.478L199.231 121.737H198.418V122.993ZM200.628 127.909V129.165H202.57L201.774 127.394L200.628 127.909ZM199.891 127.909L198.74 128.412L199.069 129.165H199.891V127.909ZM199.13 126.13V127.386H201.048L200.281 125.628L199.13 126.13ZM198.074 123.709L199.225 123.207L198.074 120.569L196.923 123.207L198.074 123.709ZM197.018 126.13L195.867 125.628L195.1 127.386H197.018V126.13ZM199.352 126.674V125.418H196.773V126.674V127.93H199.352V126.674ZM196.773 126.674L195.622 126.171L195.082 127.405L196.232 127.909L197.382 128.413L197.923 127.178L196.773 126.674ZM196.232 127.909V126.653H195.52V127.909V129.165H196.232V127.909ZM195.52 127.909L196.665 128.424L198.875 123.508L197.73 122.993L196.584 122.478L194.374 127.394L195.52 127.909ZM197.73 122.993V124.249H198.418V122.993V121.737H197.73V122.993ZM198.418 122.993L197.273 123.508L199.483 128.424L200.628 127.909L201.774 127.394L199.564 122.478L198.418 122.993ZM200.628 127.909V126.653H199.891V127.909V129.165H200.628V127.909ZM199.891 127.909L201.042 127.407L200.503 126.172L199.352 126.674L198.201 127.177L198.74 128.412L199.891 127.909ZM199.13 126.13L200.281 125.628L199.225 123.207L198.074 123.709L196.923 124.212L197.979 126.633L199.13 126.13ZM198.074 123.709L196.923 123.207L195.867 125.628L197.018 126.13L198.169 126.633L199.225 124.212L198.074 123.709ZM197.018 126.13V127.386H199.13V126.13V124.874H197.018V126.13Z" fill="white" mask="url(#path-30-inside-11_0_1)"/>
<mask id="path-32-inside-12_0_1" fill="white">
<path d="M207.619 127.909V124.326L205.851 127.316H205.532L203.764 124.351V127.909H203.101V122.993H203.665L205.703 126.453L207.717 122.995H208.281V127.911L207.619 127.909Z"/>
</mask>
<path d="M207.619 127.909V124.326L205.851 127.316H205.532L203.764 124.351V127.909H203.101V122.993H203.665L205.703 126.453L207.717 122.995H208.281V127.911L207.619 127.909Z" fill="white"/>
<path d="M207.619 127.909H206.363V129.162L207.616 129.165L207.619 127.909ZM207.619 124.326H208.875V119.735L206.538 123.687L207.619 124.326ZM205.851 127.316V128.572H206.567L206.932 127.955L205.851 127.316ZM205.532 127.316L204.453 127.959L204.819 128.572H205.532V127.316ZM203.764 124.351L204.842 123.708L202.508 119.794V124.351H203.764ZM203.764 127.909V129.165H205.02V127.909H203.764ZM203.101 127.909H201.845V129.165H203.101V127.909ZM203.101 122.993V121.737H201.845V122.993H203.101ZM203.665 122.993L204.747 122.356L204.382 121.737H203.665V122.993ZM205.703 126.453L204.621 127.09L205.71 128.938L206.789 127.085L205.703 126.453ZM207.717 122.995V121.739H206.995L206.631 122.363L207.717 122.995ZM208.281 122.995H209.537V121.739H208.281V122.995ZM208.281 127.911L208.278 129.167L209.537 129.17V127.911H208.281ZM207.619 127.909H208.875V124.326H207.619H206.363V127.909H207.619ZM207.619 124.326L206.538 123.687L204.77 126.677L205.851 127.316L206.932 127.955L208.7 124.965L207.619 124.326ZM205.851 127.316V126.06H205.532V127.316V128.572H205.851V127.316ZM205.532 127.316L206.611 126.673L204.842 123.708L203.764 124.351L202.685 124.995L204.453 127.959L205.532 127.316ZM203.764 124.351H202.508V127.909H203.764H205.02V124.351H203.764ZM203.764 127.909V126.653H203.101V127.909V129.165H203.764V127.909ZM203.101 127.909H204.356V122.993H203.101H201.845V127.909H203.101ZM203.101 122.993V124.249H203.665V122.993V121.737H203.101V122.993ZM203.665 122.993L202.583 123.631L204.621 127.09L205.703 126.453L206.785 125.815L204.747 122.356L203.665 122.993ZM205.703 126.453L206.789 127.085L208.802 123.627L207.717 122.995L206.631 122.363L204.618 125.821L205.703 126.453ZM207.717 122.995V124.251H208.281V122.995V121.739H207.717V122.995ZM208.281 122.995H207.025V127.911H208.281H209.537V122.995H208.281ZM208.281 127.911L208.284 126.655L207.622 126.653L207.619 127.909L207.616 129.165L208.278 129.167L208.281 127.911Z" fill="white" mask="url(#path-32-inside-12_0_1)"/>
</g>
<defs>
<clipPath id="clip0_0_1">
<rect width="207.457" height="38.6784" fill="white" transform="translate(6.2261 90.6154)"/>
</clipPath>
</defs>
</svg>
