<svg xmlns="http://www.w3.org/2000/svg" xmlns:xlink="http://www.w3.org/1999/xlink" width="259" zoomAndPan="magnify" viewBox="0 0 194.25 36.000001" height="48" preserveAspectRatio="xMidYMid meet" version="1.0"><defs><g/></defs><path stroke-linecap="butt" transform="matrix(0.35094, 0, 0, 0.35094, 7.678636, 28.528294)" fill="none" stroke-linejoin="miter" d="M 0.0029968 5.996809 L 165.251233 5.996809 " stroke="#ede6e6" stroke-width="12" stroke-opacity="1" stroke-miterlimit="4"/><g fill="#db0c0c" fill-opacity="1"><g transform="translate(7.678636, 22.99193)"><g><path d="M 5.921875 0.265625 C 4.859375 0.265625 3.828125 0.132812 2.828125 -0.125 C 1.828125 -0.394531 1.015625 -0.742188 0.390625 -1.171875 L 1.609375 -3.90625 C 2.191406 -3.519531 2.867188 -3.207031 3.640625 -2.96875 C 4.421875 -2.738281 5.1875 -2.625 5.9375 -2.625 C 7.351562 -2.625 8.0625 -2.976562 8.0625 -3.6875 C 8.0625 -4.0625 7.859375 -4.335938 7.453125 -4.515625 C 7.046875 -4.703125 6.394531 -4.894531 5.5 -5.09375 C 4.519531 -5.300781 3.695312 -5.523438 3.03125 -5.765625 C 2.375 -6.015625 1.804688 -6.40625 1.328125 -6.9375 C 0.859375 -7.476562 0.625 -8.203125 0.625 -9.109375 C 0.625 -9.910156 0.835938 -10.628906 1.265625 -11.265625 C 1.703125 -11.910156 2.351562 -12.421875 3.21875 -12.796875 C 4.09375 -13.171875 5.160156 -13.359375 6.421875 -13.359375 C 7.285156 -13.359375 8.132812 -13.257812 8.96875 -13.0625 C 9.800781 -12.875 10.535156 -12.59375 11.171875 -12.21875 L 10.03125 -9.46875 C 8.78125 -10.144531 7.570312 -10.484375 6.40625 -10.484375 C 5.664062 -10.484375 5.125 -10.375 4.78125 -10.15625 C 4.445312 -9.9375 4.28125 -9.648438 4.28125 -9.296875 C 4.28125 -8.953125 4.476562 -8.691406 4.875 -8.515625 C 5.28125 -8.335938 5.925781 -8.15625 6.8125 -7.96875 C 7.8125 -7.757812 8.640625 -7.53125 9.296875 -7.28125 C 9.953125 -7.039062 10.519531 -6.65625 11 -6.125 C 11.476562 -5.59375 11.71875 -4.875 11.71875 -3.96875 C 11.71875 -3.1875 11.5 -2.472656 11.0625 -1.828125 C 10.625 -1.191406 9.96875 -0.679688 9.09375 -0.296875 C 8.21875 0.078125 7.160156 0.265625 5.921875 0.265625 Z M 5.921875 0.265625 "/></g></g></g><g fill="#db0c0c" fill-opacity="1"><g transform="translate(21.414409, 22.99193)"><g><path d="M 4.09375 -10.171875 L 0.078125 -10.171875 L 0.078125 -13.109375 L 11.8125 -13.109375 L 11.8125 -10.171875 L 7.8125 -10.171875 L 7.8125 0 L 4.09375 0 Z M 4.09375 -10.171875 "/></g></g></g><g fill="#db0c0c" fill-opacity="1"><g transform="translate(34.925623, 22.99193)"><g><path d="M 11.828125 -2.859375 L 11.828125 0 L 1.3125 0 L 1.3125 -13.109375 L 11.59375 -13.109375 L 11.59375 -10.234375 L 4.984375 -10.234375 L 4.984375 -8.03125 L 10.796875 -8.03125 L 10.796875 -5.265625 L 4.984375 -5.265625 L 4.984375 -2.859375 Z M 11.828125 -2.859375 "/></g></g></g><g fill="#db0c0c" fill-opacity="1"><g transform="translate(49.129224, 22.99193)"><g><path d="M 13.140625 0 L 13.109375 -6.9375 L 9.734375 -1.296875 L 8.09375 -1.296875 L 4.734375 -6.75 L 4.734375 0 L 1.3125 0 L 1.3125 -13.109375 L 4.359375 -13.109375 L 8.96875 -5.546875 L 13.453125 -13.109375 L 16.515625 -13.109375 L 16.546875 0 Z M 13.140625 0 "/></g></g></g><g fill="#ede6e6" fill-opacity="1"><g transform="translate(68.610304, 22.99193)"><g><path d="M 7.359375 0.265625 C 5.410156 0.265625 3.894531 -0.265625 2.8125 -1.328125 C 1.738281 -2.390625 1.203125 -3.894531 1.203125 -5.84375 L 1.203125 -13.109375 L 4.90625 -13.109375 L 4.90625 -5.953125 C 4.90625 -3.859375 5.734375 -2.8125 7.390625 -2.8125 C 9.035156 -2.8125 9.859375 -3.859375 9.859375 -5.953125 L 9.859375 -13.109375 L 13.515625 -13.109375 L 13.515625 -5.84375 C 13.515625 -3.894531 12.972656 -2.390625 11.890625 -1.328125 C 10.816406 -0.265625 9.304688 0.265625 7.359375 0.265625 Z M 7.359375 0.265625 "/></g></g></g><g fill="#ede6e6" fill-opacity="1"><g transform="translate(84.947205, 22.99193)"><g><path d="M 1.3125 -13.109375 L 5.015625 -13.109375 L 5.015625 -2.9375 L 11.265625 -2.9375 L 11.265625 0 L 1.3125 0 Z M 1.3125 -13.109375 "/></g></g></g><g fill="#ede6e6" fill-opacity="1"><g transform="translate(97.99059, 22.99193)"><g><path d="M 10.09375 -2.546875 L 4.546875 -2.546875 L 3.515625 0 L -0.265625 0 L 5.515625 -13.109375 L 9.171875 -13.109375 L 14.96875 0 L 11.125 0 Z M 9 -5.28125 L 7.3125 -9.46875 L 5.640625 -5.28125 Z M 9 -5.28125 "/></g></g></g><g fill="#ede6e6" fill-opacity="1"><g transform="translate(114.327491, 22.99193)"><g><path d="M 4.09375 -10.171875 L 0.078125 -10.171875 L 0.078125 -13.109375 L 11.8125 -13.109375 L 11.8125 -10.171875 L 7.8125 -10.171875 L 7.8125 0 L 4.09375 0 Z M 4.09375 -10.171875 "/></g></g></g><g fill="#ede6e6" fill-opacity="1"><g transform="translate(127.838706, 22.99193)"><g><path d="M 11.828125 -2.859375 L 11.828125 0 L 1.3125 0 L 1.3125 -13.109375 L 11.59375 -13.109375 L 11.59375 -10.234375 L 4.984375 -10.234375 L 4.984375 -8.03125 L 10.796875 -8.03125 L 10.796875 -5.265625 L 4.984375 -5.265625 L 4.984375 -2.859375 Z M 11.828125 -2.859375 "/></g></g></g><g fill="#ede6e6" fill-opacity="1"><g transform="translate(69.416211, 32.364911)"><g><path d="M 2.546875 0 L 1.875 -0.953125 C 1.789062 -0.941406 1.722656 -0.9375 1.671875 -0.9375 L 0.90625 -0.9375 L 0.90625 0 L 0.46875 0 L 0.46875 -3.109375 L 1.671875 -3.109375 C 2.078125 -3.109375 2.394531 -3.007812 2.625 -2.8125 C 2.851562 -2.625 2.96875 -2.363281 2.96875 -2.03125 C 2.96875 -1.78125 2.910156 -1.570312 2.796875 -1.40625 C 2.679688 -1.238281 2.515625 -1.117188 2.296875 -1.046875 L 3.03125 0 Z M 1.65625 -1.328125 C 1.9375 -1.328125 2.148438 -1.382812 2.296875 -1.5 C 2.453125 -1.625 2.53125 -1.800781 2.53125 -2.03125 C 2.53125 -2.25 2.453125 -2.414062 2.296875 -2.53125 C 2.148438 -2.65625 1.9375 -2.71875 1.65625 -2.71875 L 0.90625 -2.71875 L 0.90625 -1.328125 Z M 1.65625 -1.328125 "/></g></g></g><g fill="#ede6e6" fill-opacity="1"><g transform="translate(73.748207, 32.364911)"><g><path d="M 2.71875 -0.390625 L 2.71875 0 L 0.46875 0 L 0.46875 -3.109375 L 2.65625 -3.109375 L 2.65625 -2.71875 L 0.90625 -2.71875 L 0.90625 -1.765625 L 2.46875 -1.765625 L 2.46875 -1.390625 L 0.90625 -1.390625 L 0.90625 -0.390625 Z M 2.71875 -0.390625 "/></g></g></g><g fill="#ede6e6" fill-opacity="1"><g transform="translate(77.826989, 32.364911)"><g><path d="M 1.375 0.03125 C 1.132812 0.03125 0.90625 -0.00390625 0.6875 -0.078125 C 0.476562 -0.148438 0.3125 -0.242188 0.1875 -0.359375 L 0.34375 -0.703125 C 0.46875 -0.597656 0.617188 -0.507812 0.796875 -0.4375 C 0.984375 -0.375 1.175781 -0.34375 1.375 -0.34375 C 1.625 -0.34375 1.8125 -0.382812 1.9375 -0.46875 C 2.070312 -0.5625 2.140625 -0.679688 2.140625 -0.828125 C 2.140625 -0.929688 2.101562 -1.015625 2.03125 -1.078125 C 1.96875 -1.148438 1.882812 -1.203125 1.78125 -1.234375 C 1.675781 -1.265625 1.53125 -1.304688 1.34375 -1.359375 C 1.113281 -1.410156 0.925781 -1.460938 0.78125 -1.515625 C 0.632812 -1.578125 0.507812 -1.664062 0.40625 -1.78125 C 0.300781 -1.894531 0.25 -2.050781 0.25 -2.25 C 0.25 -2.414062 0.289062 -2.566406 0.375 -2.703125 C 0.46875 -2.835938 0.601562 -2.941406 0.78125 -3.015625 C 0.957031 -3.097656 1.179688 -3.140625 1.453125 -3.140625 C 1.628906 -3.140625 1.804688 -3.113281 1.984375 -3.0625 C 2.160156 -3.019531 2.3125 -2.953125 2.4375 -2.859375 L 2.296875 -2.515625 C 2.171875 -2.597656 2.03125 -2.660156 1.875 -2.703125 C 1.726562 -2.742188 1.585938 -2.765625 1.453125 -2.765625 C 1.191406 -2.765625 1 -2.71875 0.875 -2.625 C 0.75 -2.53125 0.6875 -2.410156 0.6875 -2.265625 C 0.6875 -2.160156 0.722656 -2.070312 0.796875 -2 C 0.867188 -1.9375 0.957031 -1.882812 1.0625 -1.84375 C 1.164062 -1.8125 1.304688 -1.773438 1.484375 -1.734375 C 1.722656 -1.679688 1.910156 -1.625 2.046875 -1.5625 C 2.191406 -1.507812 2.316406 -1.425781 2.421875 -1.3125 C 2.523438 -1.195312 2.578125 -1.039062 2.578125 -0.84375 C 2.578125 -0.6875 2.53125 -0.539062 2.4375 -0.40625 C 2.351562 -0.269531 2.21875 -0.160156 2.03125 -0.078125 C 1.851562 -0.00390625 1.632812 0.03125 1.375 0.03125 Z M 1.375 0.03125 "/></g></g></g><g fill="#ede6e6" fill-opacity="1"><g transform="translate(81.688095, 32.364911)"><g><path d="M 2.71875 -0.390625 L 2.71875 0 L 0.46875 0 L 0.46875 -3.109375 L 2.65625 -3.109375 L 2.65625 -2.71875 L 0.90625 -2.71875 L 0.90625 -1.765625 L 2.46875 -1.765625 L 2.46875 -1.390625 L 0.90625 -1.390625 L 0.90625 -0.390625 Z M 2.71875 -0.390625 "/></g></g></g><g fill="#ede6e6" fill-opacity="1"><g transform="translate(85.766877, 32.364911)"><g><path d="M 2.4375 -0.78125 L 0.796875 -0.78125 L 0.453125 0 L 0 0 L 1.40625 -3.109375 L 1.84375 -3.109375 L 3.25 0 L 2.78125 0 Z M 2.296875 -1.125 L 1.625 -2.65625 L 0.953125 -1.125 Z M 2.296875 -1.125 "/></g></g></g><g fill="#ede6e6" fill-opacity="1"><g transform="translate(90.121081, 32.364911)"><g><path d="M 2.546875 0 L 1.875 -0.953125 C 1.789062 -0.941406 1.722656 -0.9375 1.671875 -0.9375 L 0.90625 -0.9375 L 0.90625 0 L 0.46875 0 L 0.46875 -3.109375 L 1.671875 -3.109375 C 2.078125 -3.109375 2.394531 -3.007812 2.625 -2.8125 C 2.851562 -2.625 2.96875 -2.363281 2.96875 -2.03125 C 2.96875 -1.78125 2.910156 -1.570312 2.796875 -1.40625 C 2.679688 -1.238281 2.515625 -1.117188 2.296875 -1.046875 L 3.03125 0 Z M 1.65625 -1.328125 C 1.9375 -1.328125 2.148438 -1.382812 2.296875 -1.5 C 2.453125 -1.625 2.53125 -1.800781 2.53125 -2.03125 C 2.53125 -2.25 2.453125 -2.414062 2.296875 -2.53125 C 2.148438 -2.65625 1.9375 -2.71875 1.65625 -2.71875 L 0.90625 -2.71875 L 0.90625 -1.328125 Z M 1.65625 -1.328125 "/></g></g></g><g fill="#ede6e6" fill-opacity="1"><g transform="translate(94.453078, 32.364911)"><g><path d="M 1.859375 0.03125 C 1.546875 0.03125 1.265625 -0.0351562 1.015625 -0.171875 C 0.765625 -0.304688 0.566406 -0.492188 0.421875 -0.734375 C 0.285156 -0.972656 0.21875 -1.242188 0.21875 -1.546875 C 0.21875 -1.847656 0.285156 -2.117188 0.421875 -2.359375 C 0.566406 -2.609375 0.765625 -2.800781 1.015625 -2.9375 C 1.265625 -3.070312 1.546875 -3.140625 1.859375 -3.140625 C 2.097656 -3.140625 2.316406 -3.097656 2.515625 -3.015625 C 2.722656 -2.929688 2.898438 -2.8125 3.046875 -2.65625 L 2.75 -2.375 C 2.519531 -2.625 2.226562 -2.75 1.875 -2.75 C 1.644531 -2.75 1.4375 -2.695312 1.25 -2.59375 C 1.0625 -2.488281 0.914062 -2.34375 0.8125 -2.15625 C 0.707031 -1.976562 0.65625 -1.773438 0.65625 -1.546875 C 0.65625 -1.328125 0.707031 -1.125 0.8125 -0.9375 C 0.914062 -0.757812 1.0625 -0.617188 1.25 -0.515625 C 1.4375 -0.410156 1.644531 -0.359375 1.875 -0.359375 C 2.21875 -0.359375 2.507812 -0.484375 2.75 -0.734375 L 3.046875 -0.453125 C 2.898438 -0.296875 2.722656 -0.175781 2.515625 -0.09375 C 2.316406 -0.0078125 2.097656 0.03125 1.859375 0.03125 Z M 1.859375 0.03125 "/></g></g></g><g fill="#ede6e6" fill-opacity="1"><g transform="translate(98.767303, 32.364911)"><g><path d="M 3.140625 -3.109375 L 3.140625 0 L 2.6875 0 L 2.6875 -1.390625 L 0.90625 -1.390625 L 0.90625 0 L 0.46875 0 L 0.46875 -3.109375 L 0.90625 -3.109375 L 0.90625 -1.765625 L 2.6875 -1.765625 L 2.6875 -3.109375 Z M 3.140625 -3.109375 "/></g></g></g><g fill="#ede6e6" fill-opacity="1"><g transform="translate(103.476897, 32.364911)"><g/></g></g><g fill="#ede6e6" fill-opacity="1"><g transform="translate(105.774299, 32.364911)"><g><path d="M 1.671875 -3.109375 C 2.078125 -3.109375 2.394531 -3.007812 2.625 -2.8125 C 2.851562 -2.625 2.96875 -2.363281 2.96875 -2.03125 C 2.96875 -1.6875 2.851562 -1.414062 2.625 -1.21875 C 2.394531 -1.03125 2.078125 -0.9375 1.671875 -0.9375 L 0.90625 -0.9375 L 0.90625 0 L 0.46875 0 L 0.46875 -3.109375 Z M 1.65625 -1.328125 C 1.9375 -1.328125 2.148438 -1.382812 2.296875 -1.5 C 2.453125 -1.625 2.53125 -1.800781 2.53125 -2.03125 C 2.53125 -2.25 2.453125 -2.414062 2.296875 -2.53125 C 2.148438 -2.65625 1.9375 -2.71875 1.65625 -2.71875 L 0.90625 -2.71875 L 0.90625 -1.328125 Z M 1.65625 -1.328125 "/></g></g></g><g fill="#ede6e6" fill-opacity="1"><g transform="translate(110.084081, 32.364911)"><g><path d="M 2.546875 0 L 1.875 -0.953125 C 1.789062 -0.941406 1.722656 -0.9375 1.671875 -0.9375 L 0.90625 -0.9375 L 0.90625 0 L 0.46875 0 L 0.46875 -3.109375 L 1.671875 -3.109375 C 2.078125 -3.109375 2.394531 -3.007812 2.625 -2.8125 C 2.851562 -2.625 2.96875 -2.363281 2.96875 -2.03125 C 2.96875 -1.78125 2.910156 -1.570312 2.796875 -1.40625 C 2.679688 -1.238281 2.515625 -1.117188 2.296875 -1.046875 L 3.03125 0 Z M 1.65625 -1.328125 C 1.9375 -1.328125 2.148438 -1.382812 2.296875 -1.5 C 2.453125 -1.625 2.53125 -1.800781 2.53125 -2.03125 C 2.53125 -2.25 2.453125 -2.414062 2.296875 -2.53125 C 2.148438 -2.65625 1.9375 -2.71875 1.65625 -2.71875 L 0.90625 -2.71875 L 0.90625 -1.328125 Z M 1.65625 -1.328125 "/></g></g></g><g fill="#ede6e6" fill-opacity="1"><g transform="translate(114.416077, 32.364911)"><g><path d="M 1.875 0.03125 C 1.550781 0.03125 1.265625 -0.0351562 1.015625 -0.171875 C 0.765625 -0.304688 0.566406 -0.492188 0.421875 -0.734375 C 0.285156 -0.984375 0.21875 -1.253906 0.21875 -1.546875 C 0.21875 -1.847656 0.285156 -2.117188 0.421875 -2.359375 C 0.566406 -2.609375 0.765625 -2.800781 1.015625 -2.9375 C 1.265625 -3.070312 1.550781 -3.140625 1.875 -3.140625 C 2.175781 -3.140625 2.453125 -3.070312 2.703125 -2.9375 C 2.960938 -2.800781 3.160156 -2.609375 3.296875 -2.359375 C 3.441406 -2.117188 3.515625 -1.847656 3.515625 -1.546875 C 3.515625 -1.242188 3.441406 -0.972656 3.296875 -0.734375 C 3.160156 -0.492188 2.960938 -0.304688 2.703125 -0.171875 C 2.453125 -0.0351562 2.175781 0.03125 1.875 0.03125 Z M 1.875 -0.359375 C 2.09375 -0.359375 2.289062 -0.410156 2.46875 -0.515625 C 2.65625 -0.617188 2.800781 -0.757812 2.90625 -0.9375 C 3.019531 -1.125 3.078125 -1.328125 3.078125 -1.546875 C 3.078125 -1.773438 3.019531 -1.976562 2.90625 -2.15625 C 2.800781 -2.34375 2.65625 -2.488281 2.46875 -2.59375 C 2.289062 -2.695312 2.09375 -2.75 1.875 -2.75 C 1.644531 -2.75 1.4375 -2.695312 1.25 -2.59375 C 1.0625 -2.488281 0.914062 -2.34375 0.8125 -2.15625 C 0.707031 -1.976562 0.65625 -1.773438 0.65625 -1.546875 C 0.65625 -1.328125 0.707031 -1.125 0.8125 -0.9375 C 0.914062 -0.757812 1.0625 -0.617188 1.25 -0.515625 C 1.4375 -0.410156 1.644531 -0.359375 1.875 -0.359375 Z M 1.875 -0.359375 "/></g></g></g><g fill="#ede6e6" fill-opacity="1"><g transform="translate(119.250056, 32.364911)"><g><path d="M 2.625 -1.578125 L 3.046875 -1.578125 L 3.046875 -0.359375 C 2.890625 -0.234375 2.707031 -0.132812 2.5 -0.0625 C 2.300781 0 2.09375 0.03125 1.875 0.03125 C 1.550781 0.03125 1.265625 -0.0351562 1.015625 -0.171875 C 0.765625 -0.304688 0.566406 -0.492188 0.421875 -0.734375 C 0.285156 -0.972656 0.21875 -1.242188 0.21875 -1.546875 C 0.21875 -1.847656 0.285156 -2.117188 0.421875 -2.359375 C 0.566406 -2.609375 0.765625 -2.800781 1.015625 -2.9375 C 1.273438 -3.070312 1.5625 -3.140625 1.875 -3.140625 C 2.125 -3.140625 2.347656 -3.097656 2.546875 -3.015625 C 2.753906 -2.929688 2.929688 -2.8125 3.078125 -2.65625 L 2.796875 -2.390625 C 2.546875 -2.628906 2.242188 -2.75 1.890625 -2.75 C 1.660156 -2.75 1.445312 -2.695312 1.25 -2.59375 C 1.0625 -2.488281 0.914062 -2.34375 0.8125 -2.15625 C 0.707031 -1.976562 0.65625 -1.773438 0.65625 -1.546875 C 0.65625 -1.328125 0.707031 -1.125 0.8125 -0.9375 C 0.914062 -0.757812 1.0625 -0.617188 1.25 -0.515625 C 1.445312 -0.410156 1.660156 -0.359375 1.890625 -0.359375 C 2.171875 -0.359375 2.414062 -0.425781 2.625 -0.5625 Z M 2.625 -1.578125 "/></g></g></g><g fill="#ede6e6" fill-opacity="1"><g transform="translate(123.781957, 32.364911)"><g><path d="M 2.546875 0 L 1.875 -0.953125 C 1.789062 -0.941406 1.722656 -0.9375 1.671875 -0.9375 L 0.90625 -0.9375 L 0.90625 0 L 0.46875 0 L 0.46875 -3.109375 L 1.671875 -3.109375 C 2.078125 -3.109375 2.394531 -3.007812 2.625 -2.8125 C 2.851562 -2.625 2.96875 -2.363281 2.96875 -2.03125 C 2.96875 -1.78125 2.910156 -1.570312 2.796875 -1.40625 C 2.679688 -1.238281 2.515625 -1.117188 2.296875 -1.046875 L 3.03125 0 Z M 1.65625 -1.328125 C 1.9375 -1.328125 2.148438 -1.382812 2.296875 -1.5 C 2.453125 -1.625 2.53125 -1.800781 2.53125 -2.03125 C 2.53125 -2.25 2.453125 -2.414062 2.296875 -2.53125 C 2.148438 -2.65625 1.9375 -2.71875 1.65625 -2.71875 L 0.90625 -2.71875 L 0.90625 -1.328125 Z M 1.65625 -1.328125 "/></g></g></g><g fill="#ede6e6" fill-opacity="1"><g transform="translate(128.113954, 32.364911)"><g><path d="M 2.4375 -0.78125 L 0.796875 -0.78125 L 0.453125 0 L 0 0 L 1.40625 -3.109375 L 1.84375 -3.109375 L 3.25 0 L 2.78125 0 Z M 2.296875 -1.125 L 1.625 -2.65625 L 0.953125 -1.125 Z M 2.296875 -1.125 "/></g></g></g><g fill="#ede6e6" fill-opacity="1"><g transform="translate(132.468159, 32.364911)"><g><path d="M 3.34375 0 L 3.34375 -2.265625 L 2.21875 -0.375 L 2.015625 -0.375 L 0.890625 -2.25 L 0.890625 0 L 0.46875 0 L 0.46875 -3.109375 L 0.828125 -3.109375 L 2.125 -0.921875 L 3.40625 -3.109375 L 3.765625 -3.109375 L 3.765625 0 Z M 3.34375 0 "/></g></g></g><g fill="#ede6e6" fill-opacity="1"><g transform="translate(137.814724, 32.364911)"><g/></g></g></svg>