<svg xmlns="http://www.w3.org/2000/svg" width="165.76" zoomAndPan="magnify" viewBox="7.68 9.63 131.99 22.76" height="30.72" preserveAspectRatio="xMidYMid meet" xmlns:v="https://vecta.io/nano"><path fill="none" d="M7.68 30.633h57.992" stroke="black" stroke-width="4.211"/><g fill="#db0c0c"><path d="M13.601 23.258c-1.062 0-2.094-.133-3.094-.391-1-.27-1.812-.617-2.437-1.047l1.219-2.734c.582.387 1.258.699 2.031.938a8.09 8.09 0 0 0 2.297.344c1.414 0 2.125-.352 2.125-1.062 0-.375-.203-.648-.609-.828-.406-.187-1.059-.379-1.953-.578-.98-.207-1.805-.43-2.469-.672-.656-.25-1.227-.641-1.703-1.172-.469-.539-.703-1.266-.703-2.172 0-.801.211-1.52.641-2.156.438-.645 1.086-1.156 1.953-1.531.875-.375 1.941-.562 3.203-.562.863 0 1.711.102 2.547.297.832.188 1.566.469 2.203.844l-1.141 2.75c-1.25-.676-2.461-1.016-3.625-1.016-.742 0-1.281.109-1.625.328-.336.219-.5.508-.5.859 0 .344.195.605.594.781.406.18 1.051.359 1.938.547 1 .211 1.828.438 2.484.688.656.242 1.223.625 1.703 1.156s.719 1.25.719 2.156a3.73 3.73 0 0 1-.656 2.141c-.437.637-1.094 1.148-1.969 1.531-.875.375-1.934.563-3.172.563zm0 0"/><use href="#B"/><path d="M46.754 20.133v2.859H36.239V9.883H46.52v2.875h-6.61v2.203h5.813v2.766H39.91v2.406zm15.516 2.859l-.031-6.937-3.375 5.641h-1.641l-3.359-5.453v6.75h-3.422V9.883h3.047l4.609 7.563 4.484-7.562h3.062l.031 13.109zm0 0"/></g><g fill="black"><path d="M75.969 23.258c-1.949 0-3.465-.531-4.547-1.594-1.074-1.062-1.609-2.566-1.609-4.516V9.883h3.703v7.156c0 2.094.828 3.141 2.484 3.141 1.645 0 2.469-1.047 2.469-3.141V9.883h3.656v7.266c0 1.949-.543 3.453-1.625 4.516-1.074 1.063-2.586 1.594-4.531 1.594zM86.26 9.883h3.703v10.172h6.25v2.938H86.26zm21.825 10.562h-5.547l-1.031 2.547h-3.781l5.781-13.109h3.656l5.797 13.109h-3.844zm-1.094-2.734l-1.687-4.187-1.672 4.188zm0 0"/><use href="#B" x="92.913"/><path d="M139.667 20.133v2.859h-10.516V9.883h10.281v2.875h-6.609v2.203h5.813v2.766h-5.812v2.406zm0 0"/><use href="#C"/><use href="#D"/><path d="M79.202 32.396c-.242 0-.469-.035-.687-.109-.211-.07-.375-.164-.5-.281l.156-.344c.125.105.273.195.453.266a1.81 1.81 0 0 0 .578.094c.25 0 .438-.039.563-.125.133-.094.203-.211.203-.359 0-.102-.039-.187-.109-.25-.062-.07-.148-.125-.25-.156l-.437-.125c-.23-.051-.418-.102-.562-.156-.148-.062-.273-.148-.375-.266s-.156-.27-.156-.469c0-.164.039-.316.125-.453.094-.133.227-.238.406-.312.176-.082.398-.125.672-.125.176 0 .352.027.531.078.176.043.328.109.453.203l-.141.344c-.125-.082-.266-.145-.422-.187-.148-.039-.289-.062-.422-.062-.262 0-.453.047-.578.141s-.187.215-.187.359a.35.35 0 0 0 .109.266.84.84 0 0 0 .266.156l.422.109c.238.055.426.109.563.172.145.055.27.137.375.25s.156.273.156.469a.75.75 0 0 1-.141.438c-.086.137-.219.246-.406.328-.18.074-.398.109-.656.109zm0 0"/><use href="#D" x="7.94"/><use href="#E"/><use href="#C" x="20.705"/><path d="M96.312 32.396c-.312 0-.594-.066-.844-.203a1.53 1.53 0 0 1-.594-.562c-.137-.238-.203-.508-.203-.812a1.62 1.62 0 0 1 .203-.812 1.51 1.51 0 0 1 .594-.578 1.77 1.77 0 0 1 .844-.203c.238 0 .457.043.656.125a1.52 1.52 0 0 1 .531.359l-.297.281a1.14 1.14 0 0 0-.875-.375 1.29 1.29 0 0 0-.625.156 1.09 1.09 0 0 0-.437.438 1.18 1.18 0 0 0-.156.609 1.22 1.22 0 0 0 .156.609c.102.18.25.32.438.422s.395.156.625.156a1.17 1.17 0 0 0 .875-.375l.297.281a1.47 1.47 0 0 1-.531.359c-.199.086-.418.125-.656.125zm5.596-3.14v3.109h-.453v-1.391h-1.781v1.391h-.437v-3.109h.438V30.6h1.781v-1.344zm5.538 0c.406 0 .723.102.953.297.227.188.344.449.344.781 0 .344-.117.617-.344.813-.23.188-.547.281-.953.281h-.766v.938h-.437v-3.109zm-.016 1.781c.281 0 .492-.055.641-.172.156-.125.234-.301.234-.531 0-.219-.078-.383-.234-.5-.148-.125-.359-.187-.641-.187h-.75v1.391zm0 0"/><use href="#C" x="40.668"/><path d="M116.291 32.396c-.324 0-.609-.066-.859-.203a1.53 1.53 0 0 1-.594-.562 1.66 1.66 0 0 1-.203-.812 1.62 1.62 0 0 1 .203-.812 1.51 1.51 0 0 1 .594-.578c.25-.133.535-.203.859-.203a1.74 1.74 0 0 1 .828.203c.258.137.457.328.594.578a1.55 1.55 0 0 1 .219.813c0 .301-.074.574-.219.813a1.4 1.4 0 0 1-.594.563 1.7 1.7 0 0 1-.828.203zm0-.391a1.15 1.15 0 0 0 .594-.156 1.11 1.11 0 0 0 .438-.422 1.16 1.16 0 0 0 .172-.609 1.12 1.12 0 0 0-.172-.609 1.12 1.12 0 0 0-.437-.437 1.18 1.18 0 0 0-.594-.156 1.29 1.29 0 0 0-.625.156 1.09 1.09 0 0 0-.437.438 1.18 1.18 0 0 0-.156.609 1.22 1.22 0 0 0 .156.609c.102.18.25.32.438.422s.395.156.625.156zm5.584-1.218h.422v1.219a1.8 1.8 0 0 1-.547.297 2.07 2.07 0 0 1-.625.094c-.324 0-.609-.066-.859-.203a1.53 1.53 0 0 1-.594-.562c-.137-.238-.203-.508-.203-.812a1.62 1.62 0 0 1 .203-.812 1.51 1.51 0 0 1 .594-.578 1.86 1.86 0 0 1 .859-.203c.25 0 .473.043.672.125a1.52 1.52 0 0 1 .531.359l-.281.266a1.27 1.27 0 0 0-.906-.359c-.23 0-.445.055-.641.156a1.09 1.09 0 0 0-.437.438 1.18 1.18 0 0 0-.156.609 1.22 1.22 0 0 0 .156.609c.102.18.25.32.438.422a1.33 1.33 0 0 0 .641.156 1.31 1.31 0 0 0 .734-.203zm0 0"/><use href="#C" x="54.366"/><use href="#E" x="42.347"/><path d="M135.812 32.365v-2.266l-1.125 1.891h-.203l-1.125-1.875v2.25h-.422v-3.109h.359l1.297 2.188 1.281-2.187h.359v3.109zm0 0"/></g><defs ><path id="B" d="M25.508 12.82h-4.016V9.883h11.734v2.938h-4v10.172h-3.719zm0 0"/><path id="C" d="M71.963 32.365l-.672-.953c-.086.012-.152.016-.203.016h-.766v.938h-.437v-3.109h1.203c.406 0 .723.102.953.297.227.188.344.449.344.781 0 .25-.059.461-.172.625s-.281.289-.5.359l.734 1.047zm-.891-1.328c.281 0 .492-.055.641-.172.156-.125.234-.301.234-.531 0-.219-.078-.383-.234-.5-.148-.125-.359-.187-.641-.187h-.75v1.391zm0 0"/><path id="D" d="M76.467 31.974v.391h-2.25v-3.109h2.188v.391h-1.75v.953h1.563v.375h-1.562v1zm0 0"/><path id="E" d="M88.205 31.584h-1.641l-.344.781h-.453l1.406-3.109h.438l1.406 3.109h-.469zm-.141-.344l-.672-1.531-.672 1.531zm0 0"/></defs></svg>
